<svg width="314" height="314" viewBox="0 0 314 314" fill="none" xmlns="http://www.w3.org/2000/svg">
<path d="M314 240.147H0V240.304H314V240.147Z" fill="#EBEBEB"/>
<path d="M49.2733 246.126H32.9453V246.283H49.2733V246.126Z" fill="#EBEBEB"/>
<path d="M125.87 244.424H91.8955V244.581H125.87V244.424Z" fill="#EBEBEB"/>
<path d="M66.4293 251.96H49.9004V252.117H66.4293V251.96Z" fill="#EBEBEB"/>
<path d="M282.537 250.905H270.461V251.062H282.537V250.905Z" fill="#EBEBEB"/>
<path d="M264.865 250.905H245.843V251.062H264.865V250.905Z" fill="#EBEBEB"/>
<path d="M196.432 248.255H162.168V248.412H196.432V248.255Z" fill="#EBEBEB"/>
<path d="M148.836 212.138H27.5757C26.6257 212.137 25.7153 211.758 25.0442 211.086C24.373 210.414 23.9961 209.502 23.9961 208.553V38.0945C24.0044 37.15 24.3849 36.2469 25.0552 35.5814C25.7254 34.9159 26.6312 34.5417 27.5757 34.54H148.836C149.787 34.54 150.699 34.9178 151.372 35.5903C152.044 36.2628 152.422 37.1749 152.422 38.1259V208.553C152.422 209.504 152.044 210.416 151.372 211.088C150.699 211.761 149.787 212.138 148.836 212.138ZM27.5757 34.6656C26.6674 34.6673 25.7969 35.0293 25.1552 35.6722C24.5135 36.315 24.1531 37.1862 24.1531 38.0945V208.553C24.1531 209.461 24.5135 210.332 25.1552 210.975C25.7969 211.618 26.6674 211.98 27.5757 211.981H148.836C149.745 211.98 150.616 211.618 151.259 210.975C151.902 210.333 152.263 209.461 152.265 208.553V38.0945C152.263 37.1856 151.902 36.3144 151.259 35.6718C150.616 35.0291 149.745 34.6673 148.836 34.6656H27.5757Z" fill="#EBEBEB"/>
<path d="M284.679 212.138H163.412C162.462 212.137 161.55 211.758 160.878 211.086C160.206 210.414 159.828 209.503 159.826 208.553V38.0945C159.836 37.1495 160.218 36.2464 160.889 35.581C161.561 34.9157 162.467 34.5416 163.412 34.54H284.679C285.622 34.5433 286.526 34.9183 287.195 35.5836C287.864 36.249 288.244 37.1511 288.252 38.0945V208.553C288.252 209.501 287.876 210.412 287.206 211.084C286.537 211.756 285.628 212.135 284.679 212.138ZM163.412 34.6656C162.503 34.6673 161.632 35.0291 160.989 35.6718C160.347 36.3144 159.985 37.1856 159.983 38.0945V208.553C159.985 209.461 160.347 210.333 160.989 210.975C161.632 211.618 162.503 211.98 163.412 211.981H284.679C285.588 211.98 286.459 211.618 287.102 210.975C287.744 210.333 288.106 209.461 288.108 208.553V38.0945C288.106 37.1856 287.744 36.3144 287.102 35.6718C286.459 35.0291 285.588 34.6673 284.679 34.6656H163.412Z" fill="#EBEBEB"/>
<path d="M277.105 174.17H259.835V240.148H277.105V174.17Z" fill="#E6E6E6"/>
<path d="M273.827 240.148H277.105V230.815H270.386L273.827 240.148Z" fill="#F0F0F0"/>
<path d="M178.559 174.17H161.289V240.148H178.559V174.17Z" fill="#E6E6E6"/>
<path d="M277.105 174.17H175.695V234.42H277.105V174.17Z" fill="#F0F0F0"/>
<path d="M179.068 177.222V222.752H209.131V177.222H179.068Z" fill="#E6E6E6"/>
<path d="M197.073 179.834H191.126C189.847 179.834 188.582 179.575 187.408 179.07C186.233 178.566 185.173 177.828 184.293 176.901H203.905C203.025 177.828 201.965 178.566 200.791 179.07C199.616 179.575 198.351 179.834 197.073 179.834Z" fill="#F0F0F0"/>
<path d="M211.372 177.228V222.758H241.434V177.228H211.372Z" fill="#E6E6E6"/>
<path d="M229.679 179.834H223.732C222.454 179.834 221.191 179.573 220.017 179.069C218.844 178.565 217.785 177.827 216.905 176.901H236.511C235.631 177.828 234.571 178.566 233.397 179.07C232.222 179.575 230.957 179.834 229.679 179.834Z" fill="#F0F0F0"/>
<path d="M243.67 177.228V222.758H273.732V177.228H243.67Z" fill="#E6E6E6"/>
<path d="M261.983 179.834H256.036C254.757 179.834 253.492 179.575 252.318 179.07C251.143 178.566 250.083 177.828 249.203 176.901H268.784C267.907 177.824 266.853 178.56 265.684 179.064C264.515 179.568 263.256 179.83 261.983 179.834Z" fill="#F0F0F0"/>
<path d="M178.973 240.148H175.695V230.815H182.415L178.973 240.148Z" fill="#F0F0F0"/>
<path d="M138.009 46.4658H42.8672V135.579H138.009V46.4658Z" fill="#E6E6E6"/>
<path d="M141.426 46.4658H44.4629V135.579H141.426V46.4658Z" fill="#F0F0F0"/>
<path d="M138.009 135.579H42.8672V141.928H138.009V135.579Z" fill="#E6E6E6"/>
<path d="M147.116 135.579H50.1523V141.928H147.116V135.579Z" fill="#F0F0F0"/>
<path d="M136.646 130.793V51.251L49.2477 51.251V130.793H136.646Z" fill="#FAFAFA"/>
<path d="M58.3975 130.793L86.4753 51.251H99.7261L71.6483 130.793H58.3975Z" fill="white"/>
<path d="M51.4583 103.808C51.5499 103.808 51.6377 103.772 51.7025 103.707C51.7673 103.642 51.8037 103.555 51.8037 103.463V54.3596C51.802 54.2691 51.7649 54.1829 51.7003 54.1194C51.6357 54.056 51.5488 54.0205 51.4583 54.0205C51.3683 54.0205 51.2821 54.0562 51.2185 54.1198C51.1549 54.1834 51.1191 54.2697 51.1191 54.3596V103.463C51.1191 103.553 51.1547 103.64 51.2181 103.705C51.2815 103.77 51.3677 103.807 51.4583 103.808Z" fill="#F0F0F0"/>
<path d="M74.5 130.793L102.578 51.251H107.74L79.6684 130.793H74.5Z" fill="white"/>
<path d="M136.641 130.793V51.251H136.031V130.793H136.641Z" fill="#E6E6E6"/>
<path opacity="0.5" d="M142.556 59.4971H47.4142L46.9746 53.1104H142.117L142.556 59.4971Z" fill="#E6E6E6"/>
<path opacity="0.5" d="M142.556 64.169H47.4142L46.9746 57.7822H142.117L142.556 64.169Z" fill="#E6E6E6"/>
<path opacity="0.5" d="M142.556 69.7774H47.4142L46.9746 63.3906H142.117L142.556 69.7774Z" fill="#E6E6E6"/>
<path opacity="0.5" d="M142.556 76.0196H47.4142L46.9746 69.6328H142.117L142.556 76.0196Z" fill="#E6E6E6"/>
<path opacity="0.5" d="M142.556 83.4991H47.4142L46.9746 77.1123H142.117L142.556 83.4991Z" fill="#E6E6E6"/>
<path opacity="0.5" d="M142.556 91.9083H47.4142L46.9746 85.5215H142.117L142.556 91.9083Z" fill="#E6E6E6"/>
<path d="M143.579 180.989H115.42V240.147H143.579V180.989Z" fill="#E6E6E6"/>
<path d="M140.748 240.147H143.58V232.09H137.777L140.748 240.147Z" fill="#F0F0F0"/>
<path d="M74.3109 180.989H46.1514V240.147H74.3109V180.989Z" fill="#E6E6E6"/>
<path d="M143.573 180.989H71.8369V235.204H143.573V180.989Z" fill="#F0F0F0"/>
<path d="M141.382 183.389H74.0352V198.26H141.382V183.389Z" fill="#E6E6E6"/>
<path d="M110.886 188.011H104.524C101.761 188.011 99.1235 186.177 97.2207 182.937H118.196C116.293 186.177 113.668 188.011 110.886 188.011Z" fill="#F0F0F0"/>
<path d="M74.6692 240.147H71.8369V232.09H77.6396L74.6692 240.147Z" fill="#F0F0F0"/>
<path d="M141.382 200.658H74.0352V215.529H141.382V200.658Z" fill="#E6E6E6"/>
<path d="M110.886 205.28H104.524C101.761 205.28 99.1235 203.447 97.2207 200.206H118.196C116.293 203.472 113.668 205.28 110.886 205.28Z" fill="#F0F0F0"/>
<path d="M141.382 217.929H74.0352V232.8H141.382V217.929Z" fill="#E6E6E6"/>
<path d="M110.886 222.551H104.524C101.761 222.551 99.1235 220.717 97.2207 217.477H118.196C116.293 220.717 113.668 222.551 110.886 222.551Z" fill="#F0F0F0"/>
<path d="M257.272 58.6992H202.599V131.824H257.272V58.6992Z" fill="#E6E6E6"/>
<path d="M260.827 58.6992H203.365V131.824H260.827V58.6992Z" fill="#F0F0F0"/>
<path d="M252.87 123.867V66.6494H211.315V123.867H252.87Z" fill="white"/>
<path d="M252.87 123.867V66.6494H252.248V123.867H252.87Z" fill="#E6E6E6"/>
<path d="M232.868 83.1602H220.428C220.305 83.1601 220.188 83.2082 220.101 83.294C220.014 83.3798 219.965 83.4964 219.963 83.6186V96.0342C219.973 99.0291 221.167 101.899 223.285 104.016C225.402 106.134 228.272 107.328 231.267 107.338H243.682C243.806 107.338 243.924 107.289 244.011 107.202C244.098 107.115 244.147 106.997 244.147 106.873V94.483C244.144 91.4886 242.956 88.6172 240.843 86.4957C238.729 84.3742 235.863 83.1751 232.868 83.1602ZM231.317 106.44C228.559 106.437 225.915 105.339 223.965 103.388C222.015 101.437 220.919 98.7924 220.917 96.0342V84.1022H232.849C235.607 84.1055 238.251 85.202 240.202 87.1514C242.152 89.1009 243.25 91.7441 243.255 94.5018L231.317 106.44Z" fill="#F0F0F0"/>
<path d="M157 268.508C224.248 268.508 278.763 265.325 278.763 261.399C278.763 257.473 224.248 254.29 157 254.29C89.7524 254.29 35.2373 257.473 35.2373 261.399C35.2373 265.325 89.7524 268.508 157 268.508Z" fill="#F5F5F5"/>
<path d="M154.858 55.2644C154.287 51.7978 156.629 48.9844 160.096 48.9844H134.769C131.302 48.9844 128.96 51.7915 129.531 55.2644H154.858Z" fill="#93CBFA"/>
<path opacity="0.3" d="M154.858 55.2644C154.287 51.7978 156.629 48.9844 160.096 48.9844H134.769C131.302 48.9844 128.96 51.7915 129.531 55.2644H154.858Z" fill="black"/>
<path d="M160.096 48.9844H134.769C136.521 49.0426 138.202 49.6965 139.533 50.8381C140.864 51.9798 141.766 53.541 142.091 55.2644L147.636 88.7493C147.962 90.4722 148.865 92.0328 150.196 93.1742C151.526 94.3157 153.206 94.97 154.959 95.0293H167.732C171.199 95.0293 173.541 92.2159 172.97 88.7493L167.418 55.2644C167.094 53.541 166.191 51.9798 164.86 50.8381C163.529 49.6965 161.848 49.0426 160.096 48.9844Z" fill="#93CBFA"/>
<path d="M160.197 88.7686C160.768 92.2351 158.426 95.0486 154.959 95.0486H180.286C181.074 95.0752 181.858 94.9215 182.578 94.5992C183.298 94.277 183.935 93.7946 184.44 93.1889C184.945 92.5832 185.306 91.8701 185.493 91.1041C185.681 90.338 185.692 89.5392 185.524 88.7686H160.197Z" fill="#93CBFA"/>
<path opacity="0.3" d="M160.197 88.7686C160.768 92.2351 158.426 95.0486 154.959 95.0486H180.286C181.074 95.0752 181.858 94.9215 182.578 94.5992C183.298 94.277 183.935 93.7946 184.44 93.1889C184.945 92.5832 185.306 91.8701 185.493 91.1041C185.681 90.338 185.692 89.5392 185.524 88.7686H160.197Z" fill="black"/>
<path d="M164.272 58.1719H146.192C146.087 58.1681 145.986 58.1288 145.906 58.0603C145.826 57.9919 145.772 57.8984 145.752 57.7951C145.741 57.7488 145.742 57.7007 145.753 57.6545C145.763 57.6082 145.785 57.5652 145.815 57.5287C145.846 57.4922 145.884 57.4632 145.928 57.4441C145.971 57.4249 146.019 57.4161 146.066 57.4183H164.146C164.251 57.4221 164.352 57.4614 164.432 57.5299C164.512 57.5983 164.566 57.6918 164.586 57.7951C164.597 57.8414 164.596 57.8895 164.585 57.9357C164.574 57.982 164.553 58.025 164.522 58.0615C164.492 58.098 164.454 58.127 164.41 58.1461C164.367 58.1653 164.319 58.1741 164.272 58.1719Z" fill="white"/>
<path d="M154.255 60.7842H146.625C146.52 60.7804 146.419 60.7411 146.34 60.6726C146.26 60.6042 146.205 60.5107 146.186 60.4074C146.175 60.3611 146.175 60.313 146.186 60.2668C146.197 60.2205 146.219 60.1775 146.249 60.141C146.279 60.1045 146.318 60.0755 146.361 60.0564C146.405 60.0372 146.452 60.0284 146.5 60.0306H154.13C154.235 60.0344 154.336 60.0737 154.416 60.1422C154.495 60.2106 154.55 60.3041 154.569 60.4074C154.579 60.4536 154.578 60.5012 154.566 60.5469C154.555 60.5926 154.533 60.6351 154.503 60.6713C154.473 60.7075 154.435 60.7364 154.392 60.756C154.349 60.7755 154.303 60.7852 154.255 60.7842Z" fill="white"/>
<path d="M161.314 60.785H156.039C155.935 60.7809 155.835 60.7413 155.756 60.6728C155.677 60.6043 155.624 60.5109 155.606 60.4082C155.595 60.3624 155.595 60.3148 155.606 60.2691C155.616 60.2234 155.637 60.1807 155.667 60.1443C155.697 60.108 155.734 60.0789 155.777 60.0593C155.82 60.0397 155.866 60.0301 155.913 60.0314H161.188C161.293 60.0354 161.393 60.075 161.471 60.1435C161.55 60.212 161.603 60.3054 161.622 60.4082C161.632 60.4539 161.632 60.5015 161.622 60.5472C161.611 60.5929 161.59 60.6356 161.56 60.672C161.531 60.7083 161.493 60.7374 161.45 60.757C161.408 60.7766 161.361 60.7862 161.314 60.785Z" fill="white"/>
<path d="M165.164 63.4283H147.059C146.954 63.426 146.854 63.3879 146.774 63.3205C146.694 63.2531 146.639 63.1604 146.619 63.0578C146.609 63.0115 146.609 62.9634 146.62 62.9171C146.631 62.8709 146.652 62.8279 146.683 62.7914C146.713 62.7549 146.752 62.7259 146.795 62.7068C146.838 62.6876 146.886 62.6788 146.933 62.681H165.013C165.118 62.6848 165.219 62.7241 165.299 62.7926C165.379 62.861 165.433 62.9545 165.453 63.0578C165.462 63.1016 165.462 63.1468 165.452 63.1904C165.441 63.2339 165.422 63.2748 165.394 63.31C165.367 63.3453 165.332 63.3742 165.292 63.3946C165.253 63.415 165.209 63.4265 165.164 63.4283Z" fill="white"/>
<path d="M163.788 66.0154H147.492C147.387 66.0116 147.286 65.9722 147.206 65.9038C147.126 65.8354 147.072 65.7419 147.052 65.6386C147.043 65.5924 147.044 65.5448 147.055 65.4991C147.067 65.4534 147.089 65.4109 147.119 65.3747C147.149 65.3385 147.187 65.3096 147.23 65.29C147.272 65.2705 147.319 65.2608 147.366 65.2618H163.694C163.799 65.2656 163.9 65.3049 163.98 65.3734C164.06 65.4418 164.114 65.5353 164.134 65.6386C164.144 65.6875 164.143 65.7382 164.13 65.7864C164.116 65.8346 164.092 65.879 164.058 65.9159C164.024 65.9528 163.982 65.981 163.935 65.9983C163.888 66.0156 163.838 66.0215 163.788 66.0154Z" fill="white"/>
<path d="M158.884 68.6284H147.926C147.821 68.6246 147.72 68.5853 147.64 68.5169C147.56 68.4484 147.506 68.3549 147.486 68.2516C147.476 68.2058 147.477 68.1584 147.489 68.113C147.5 68.0675 147.522 68.0254 147.552 67.9896C147.583 67.9539 147.621 67.9255 147.664 67.9067C147.707 67.8879 147.753 67.8792 147.8 67.8811H158.765C158.869 67.8857 158.968 67.9245 159.048 67.9915C159.127 68.0586 159.182 68.15 159.204 68.2516C159.214 68.2983 159.213 68.3466 159.201 68.3927C159.189 68.4389 159.167 68.4818 159.136 68.5181C159.105 68.5544 159.067 68.5832 159.023 68.6023C158.979 68.6214 158.932 68.6304 158.884 68.6284Z" fill="white"/>
<path d="M166.42 71.2468H148.359C148.254 71.243 148.153 71.2037 148.073 71.1353C147.994 71.0668 147.939 70.9733 147.919 70.87C147.91 70.8239 147.911 70.7762 147.923 70.7305C147.934 70.6848 147.956 70.6423 147.986 70.6061C148.016 70.57 148.054 70.541 148.097 70.5215C148.14 70.5019 148.186 70.4923 148.233 70.4932H166.314C166.419 70.497 166.519 70.5364 166.599 70.6048C166.679 70.6732 166.733 70.7667 166.753 70.87C166.765 70.918 166.764 70.9679 166.752 71.0157C166.74 71.0635 166.717 71.1077 166.684 71.1446C166.652 71.1816 166.611 71.2101 166.565 71.2279C166.519 71.2457 166.469 71.2522 166.42 71.2468Z" fill="white"/>
<path d="M166.872 73.8591H148.792C148.687 73.8553 148.586 73.816 148.506 73.7476C148.426 73.6791 148.372 73.5856 148.352 73.4823C148.343 73.4362 148.344 73.3885 148.355 73.3428C148.367 73.2971 148.388 73.2546 148.418 73.2184C148.449 73.1823 148.487 73.1533 148.529 73.1338C148.572 73.1142 148.619 73.1046 148.666 73.1055H166.752C166.857 73.1096 166.957 73.1492 167.035 73.2177C167.114 73.2862 167.167 73.3796 167.186 73.4823C167.196 73.5286 167.196 73.5768 167.185 73.623C167.174 73.6692 167.153 73.7122 167.122 73.7487C167.092 73.7852 167.054 73.8142 167.01 73.8333C166.967 73.8525 166.919 73.8613 166.872 73.8591Z" fill="white"/>
<path d="M160.19 76.472H149.225C149.121 76.4674 149.022 76.4286 148.942 76.3616C148.863 76.2946 148.808 76.2031 148.786 76.1015C148.776 76.0553 148.777 76.0076 148.789 75.962C148.8 75.9163 148.822 75.8738 148.852 75.8376C148.882 75.8014 148.92 75.7725 148.963 75.7529C149.006 75.7334 149.053 75.7237 149.1 75.7247H160.065C160.17 75.7285 160.27 75.7678 160.35 75.8362C160.43 75.9047 160.484 75.9982 160.504 76.1015C160.514 76.1473 160.513 76.1948 160.501 76.2402C160.49 76.2856 160.468 76.3278 160.438 76.3635C160.407 76.3992 160.369 76.4276 160.326 76.4464C160.284 76.4652 160.237 76.4739 160.19 76.472Z" fill="white"/>
<path d="M170.57 83.6625L171.701 84.3643L189.057 56.3837L187.925 55.6819L170.57 83.6625Z" fill="#263238"/>
<path opacity="0.3" d="M170.57 83.6625L171.701 84.3643L189.057 56.3837L187.925 55.6819L170.57 83.6625Z" fill="black"/>
<path d="M168.312 82.2631L169.443 82.9648L186.799 54.9843L185.667 54.2825L168.312 82.2631Z" fill="#263238"/>
<path opacity="0.3" d="M168.312 82.2631L169.443 82.9648L186.799 54.9843L185.667 54.2825L168.312 82.2631Z" fill="black"/>
<path d="M169.449 82.9603L170.58 83.6621L187.936 55.6815L186.804 54.9798L169.449 82.9603Z" fill="#263238"/>
<path d="M168.285 84.9558L169.303 85.5901L171.708 84.3655L168.317 82.2617L168.285 84.9558Z" fill="#FF8B7B"/>
<path d="M168.272 86.1179L169.302 85.5903L168.285 84.9561L168.272 86.1179Z" fill="#263238"/>
<path d="M167.676 86.3504H167.632C166.791 86.0037 166.047 85.4561 165.466 84.7553C165.101 84.3644 164.704 84.0052 164.279 83.6814C164.214 83.6278 164.133 83.5984 164.05 83.5984C163.966 83.5984 163.885 83.6278 163.82 83.6814C163.769 83.7371 163.741 83.8099 163.741 83.8855C163.741 83.9611 163.769 84.034 163.82 84.0896C163.971 84.3157 164.141 84.5292 164.31 84.7176C164.378 84.7924 164.421 84.8871 164.431 84.9877C164.441 85.0884 164.419 85.1897 164.367 85.2765C164.312 85.3529 164.234 85.4095 164.145 85.4378C164.055 85.4661 163.959 85.4646 163.871 85.4335C163.632 85.3556 163.397 85.2655 163.167 85.1635C163.147 85.1454 163.12 85.1358 163.093 85.1366C163.066 85.1374 163.04 85.1486 163.021 85.1678C163.002 85.1871 162.99 85.2129 162.99 85.2402C162.989 85.2674 162.998 85.2939 163.017 85.3142L163.048 85.3959C163.085 85.4786 163.1 85.5697 163.091 85.66C163.082 85.7503 163.05 85.8368 162.998 85.9108C162.944 85.9818 162.873 86.0379 162.792 86.0742C162.711 86.1104 162.622 86.1255 162.533 86.1181C159.769 85.9877 157 85.9981 154.237 86.1495C154.195 86.1495 154.155 86.1329 154.126 86.1035C154.097 86.074 154.08 86.0341 154.08 85.9925C154.08 85.9508 154.097 85.9109 154.126 85.8814C154.155 85.852 154.195 85.8355 154.237 85.8355C157.011 85.6841 159.79 85.6737 162.564 85.8041C162.6 85.81 162.636 85.8062 162.669 85.7929C162.702 85.7796 162.731 85.7574 162.753 85.7287C162.771 85.6962 162.781 85.6594 162.781 85.6219C162.781 85.5845 162.771 85.5476 162.753 85.5152L162.721 85.4461C162.677 85.3662 162.661 85.2743 162.673 85.1841C162.686 85.0938 162.728 85.0102 162.792 84.9457C162.857 84.8813 162.941 84.8395 163.031 84.8267C163.121 84.8139 163.213 84.8307 163.293 84.8746C163.508 84.9761 163.731 85.0622 163.959 85.1321C163.978 85.1474 164.003 85.1557 164.028 85.1557C164.053 85.1557 164.077 85.1474 164.097 85.1321C164.112 85.1026 164.118 85.0686 164.112 85.0357C164.106 85.0027 164.09 84.9725 164.065 84.95C163.883 84.7365 163.714 84.5104 163.557 84.2843C163.466 84.1666 163.42 84.0207 163.427 83.8723C163.434 83.724 163.493 83.583 163.594 83.4742C163.71 83.3665 163.863 83.3066 164.021 83.3066C164.18 83.3066 164.332 83.3665 164.448 83.4742C164.901 83.8046 165.321 84.1767 165.704 84.5857C166.241 85.2145 166.916 85.711 167.676 86.0364C167.696 86.0428 167.715 86.0531 167.731 86.0667C167.746 86.0804 167.759 86.097 167.769 86.1157C167.778 86.1345 167.784 86.1549 167.785 86.1758C167.786 86.1967 167.784 86.2176 167.777 86.2374C167.771 86.2632 167.759 86.287 167.741 86.3068C167.723 86.3266 167.701 86.3416 167.676 86.3504Z" fill="white"/>
<path d="M164.982 109.361L169.183 102.095H160.787L164.982 109.361Z" fill="#93CBFA"/>
<path d="M212.126 88.0203C210.34 86.4405 208.015 85.6085 205.632 85.6967C204.106 82.6195 200.96 80.8234 197.632 81.4326C192.859 82.3055 191.402 88.0391 194.718 90.1304C195.814 90.8252 197.002 91.3641 198.247 91.7318V91.8825C196.297 92.5857 194.591 93.8367 193.335 95.4854C192.078 97.134 191.324 99.1102 191.163 101.177C190.673 108.286 198.31 112.443 202.467 108.487C203.042 107.941 203.587 107.364 204.1 106.76C204.904 107.89 205.77 109.046 206.706 110.251C217.093 105.466 218.845 93.8167 212.126 88.0203Z" fill="#263238"/>
<path d="M191.245 115.658C191.183 116.537 191.107 117.304 190.994 118.107C190.881 118.911 190.774 119.69 190.642 120.475C190.379 122.051 190.014 123.615 189.644 125.154C188.88 128.284 187.811 131.331 186.454 134.253L186.322 134.53C186.272 134.636 186.259 134.674 186.165 134.862C186.008 135.173 185.82 135.467 185.606 135.742C185.201 136.239 184.715 136.664 184.168 136.998C183.264 137.536 182.267 137.901 181.229 138.072C179.518 138.335 177.778 138.358 176.06 138.141C172.881 137.751 169.756 136.999 166.747 135.899L167.438 133.387C168.889 133.606 170.402 133.807 171.884 133.939C173.344 134.098 174.812 134.174 176.28 134.165C177.628 134.19 178.974 134.046 180.287 133.738C180.762 133.624 181.211 133.421 181.612 133.142C181.711 133.07 181.795 132.978 181.857 132.872C181.874 132.84 181.886 132.806 181.894 132.771L182.07 132.319C182.334 131.647 182.592 130.969 182.811 130.272C183.031 129.575 183.263 128.884 183.483 128.187C183.879 126.774 184.268 125.361 184.589 123.916C184.909 122.472 185.173 121.028 185.418 119.571C185.662 118.114 185.857 116.606 186.002 115.25L191.245 115.658Z" fill="#FFB573"/>
<path d="M187.671 109.372C185.548 109.906 184.066 118.629 184.066 118.629L189.907 122.597C189.907 122.597 195.509 113.805 193.876 111.476C192.168 109.045 190.761 108.581 187.671 109.372Z" fill="#263238"/>
<path opacity="0.2" d="M187.86 111.319L186.233 120.105L189.512 122.334L187.86 111.319Z" fill="black"/>
<path d="M165.252 133.5L161.289 135.019L165.767 137.72C165.767 137.72 168.624 136.068 168.549 133.952L168.109 133.701C167.678 133.457 167.197 133.313 166.703 133.278C166.209 133.243 165.713 133.319 165.252 133.5Z" fill="#FFB573"/>
<path opacity="0.1" d="M164.957 133.694L162.997 134.391C162.614 134.521 162.239 134.672 161.873 134.844C161.873 134.844 163.167 135.384 163.814 135.019C164.795 135.093 165.781 135.034 166.746 134.844L164.957 133.694Z" fill="black"/>
<path d="M158.821 137.965L162.194 140.772L165.761 137.745L161.289 135.045L158.821 137.965Z" fill="#FFB573"/>
<path d="M199.133 256.148H193.996L193.65 244.241H198.794L199.133 256.148Z" fill="#FFB573"/>
<path d="M193.82 255.552H199.591C199.691 255.549 199.789 255.584 199.865 255.649C199.942 255.714 199.992 255.804 200.005 255.904L200.633 260.475C200.646 260.591 200.634 260.707 200.598 260.817C200.562 260.927 200.504 261.029 200.426 261.115C200.348 261.201 200.253 261.269 200.147 261.316C200.041 261.363 199.927 261.387 199.811 261.386C197.801 261.355 196.828 261.235 194.284 261.235C192.727 261.235 188.237 261.399 186.076 261.399C183.916 261.399 183.803 259.263 184.701 259.069C188.733 258.202 191.609 257.009 192.934 255.866C193.183 255.66 193.497 255.549 193.82 255.552Z" fill="#263238"/>
<g opacity="0.2">
<path d="M193.65 244.241L193.826 250.383H198.97L198.794 244.241H193.65Z" fill="black"/>
</g>
<path d="M187.672 109.372C187.672 109.372 185.223 110.233 190.128 140.402H211.009C210.657 131.905 210.651 126.661 214.714 109.222C211.79 108.617 208.827 108.226 205.846 108.054C202.69 107.827 199.52 107.827 196.364 108.054C192.288 108.424 187.672 109.372 187.672 109.372Z" fill="#263238"/>
<path d="M202.053 117.643C200.328 117.592 198.651 117.061 197.211 116.111C197.194 116.1 197.18 116.085 197.169 116.068C197.158 116.051 197.15 116.032 197.147 116.012C197.143 115.992 197.144 115.972 197.148 115.952C197.153 115.933 197.161 115.914 197.173 115.898C197.185 115.88 197.199 115.865 197.217 115.853C197.234 115.842 197.254 115.834 197.274 115.829C197.294 115.825 197.316 115.825 197.336 115.83C197.356 115.834 197.376 115.842 197.393 115.854C198.933 116.863 200.747 117.372 202.587 117.311C203.271 116.877 208.006 113.718 208.364 108.248C208.366 108.228 208.371 108.208 208.381 108.189C208.39 108.171 208.403 108.154 208.419 108.141C208.435 108.128 208.453 108.117 208.473 108.111C208.492 108.105 208.513 108.102 208.534 108.104C208.554 108.106 208.575 108.111 208.593 108.121C208.611 108.13 208.628 108.143 208.641 108.159C208.655 108.175 208.665 108.193 208.671 108.213C208.678 108.232 208.68 108.253 208.678 108.274C208.314 113.869 203.654 117.022 202.719 117.593C202.696 117.599 202.672 117.599 202.649 117.593C202.448 117.637 202.248 117.643 202.053 117.643Z" fill="white"/>
<path d="M193.167 116.675C193.14 116.684 193.111 116.684 193.085 116.675C192.856 116.497 192.668 116.271 192.536 116.013C192.404 115.755 192.329 115.471 192.319 115.181C192.024 113.265 192.733 109.918 194.203 108.185C194.217 108.17 194.235 108.157 194.254 108.149C194.274 108.141 194.295 108.137 194.316 108.137C194.337 108.137 194.358 108.141 194.377 108.149C194.397 108.157 194.414 108.17 194.429 108.185C194.458 108.214 194.474 108.254 194.474 108.295C194.474 108.336 194.458 108.375 194.429 108.405C193.035 110.031 192.312 113.303 192.595 115.149C192.623 115.627 192.832 116.076 193.179 116.405C194.049 116.254 194.894 115.986 195.691 115.608C195.73 115.593 195.772 115.593 195.811 115.608C195.849 115.623 195.881 115.652 195.898 115.689C195.907 115.708 195.911 115.729 195.912 115.749C195.912 115.77 195.908 115.791 195.901 115.81C195.893 115.829 195.882 115.847 195.867 115.862C195.853 115.877 195.836 115.888 195.817 115.897C194.975 116.281 194.082 116.543 193.167 116.675Z" fill="white"/>
<path d="M204.904 97.377C204.307 100.423 203.711 106.018 205.846 108.053C205.846 108.053 205.011 111.149 199.34 111.149C193.104 111.149 196.363 108.053 196.363 108.053C199.761 107.237 199.673 104.712 199.082 102.344L204.904 97.377Z" fill="#FFB573"/>
<path d="M205.84 108.054C202.683 107.827 199.514 107.827 196.357 108.054L195.729 108.116C194.969 109.548 194.781 111.752 196.596 115.024C196.596 115.024 204.91 111.671 207.077 108.167C206.675 108.104 206.261 108.072 205.84 108.054Z" fill="#FFB573"/>
<path opacity="0.2" d="M202.53 99.4062L199.076 102.364C199.226 102.915 199.324 103.478 199.371 104.047C200.671 103.859 202.455 102.433 202.593 101.07C202.676 100.517 202.654 99.9523 202.53 99.4062Z" fill="black"/>
<path d="M208.195 92.0892C207.033 97.0567 206.644 99.1857 203.667 101.327C199.196 104.555 193.349 102.043 192.991 96.8244C192.677 92.1332 194.637 84.7919 199.899 83.6364C201.056 83.3754 202.261 83.4145 203.399 83.7497C204.537 84.085 205.571 84.7054 206.402 85.5521C207.233 86.3988 207.833 87.4437 208.147 88.5877C208.461 89.7318 208.478 90.9371 208.195 92.0892Z" fill="#FFB573"/>
<path d="M190.128 140.401C190.128 140.401 186.071 180.009 186.41 195.665C186.761 211.993 192.734 249.165 192.734 249.165H199.705C199.705 249.165 198.606 212.923 199.221 196.909C199.893 179.444 205.438 140.389 205.438 140.389L190.128 140.401Z" fill="#93CBFA"/>
<path opacity="0.3" d="M190.128 140.401C190.128 140.401 186.071 180.009 186.41 195.665C186.761 211.993 192.734 249.165 192.734 249.165H199.705C199.705 249.165 198.606 212.923 199.221 196.909C199.893 179.444 205.438 140.389 205.438 140.389L190.128 140.401Z" fill="white"/>
<path d="M200.289 249.442H192.131L191.534 246.842L200.672 246.521L200.289 249.442Z" fill="#263238"/>
<path opacity="0.2" d="M199.132 150.255C194.008 160.573 198.102 179.395 199.917 186.397C200.847 175.884 202.429 163.023 203.641 153.584C202.844 148.246 201.5 145.501 199.132 150.255Z" fill="black"/>
<path d="M223.166 256.148H218.023L216.139 244.241H221.276L223.166 256.148Z" fill="#FFB573"/>
<path d="M217.771 255.552H223.568C223.671 255.554 223.771 255.589 223.852 255.652C223.934 255.716 223.993 255.804 224.02 255.903L225.276 260.475C225.307 260.583 225.311 260.697 225.29 260.808C225.268 260.918 225.221 261.022 225.152 261.11C225.083 261.199 224.994 261.27 224.892 261.318C224.79 261.366 224.679 261.389 224.566 261.386C222.55 261.354 221.564 261.235 219.021 261.235C217.457 261.235 212.992 261.398 210.857 261.398C208.722 261.398 208.307 259.263 209.18 259.069C213.099 258.202 215.787 257.009 216.999 255.866C217.21 255.672 217.484 255.56 217.771 255.552Z" fill="#263238"/>
<g opacity="0.2">
<path d="M216.139 244.241L217.112 250.383H222.255L221.282 244.241H216.139Z" fill="black"/>
</g>
<path d="M195.937 140.401C195.937 140.401 200.251 180.009 202.625 195.665C205.093 211.993 215.894 249.165 215.894 249.165H222.815C222.815 249.165 217.012 212.923 215.549 196.909C213.954 179.444 211.197 140.389 211.197 140.389L195.937 140.401Z" fill="#93CBFA"/>
<path opacity="0.3" d="M195.937 140.401C195.937 140.401 200.251 180.009 202.625 195.665C205.093 211.993 215.894 249.165 215.894 249.165H222.815C222.815 249.165 217.012 212.923 215.549 196.909C213.954 179.444 211.197 140.389 211.197 140.389L195.937 140.401Z" fill="white"/>
<path d="M223.449 249.442H215.291L214.355 246.842L223.449 246.521V249.442Z" fill="#263238"/>
<path d="M215.957 256.45C215.505 256.486 215.054 256.376 214.669 256.136C214.578 256.066 214.504 255.975 214.453 255.872C214.402 255.768 214.375 255.655 214.374 255.539C214.367 255.476 214.379 255.412 214.408 255.355C214.437 255.298 214.482 255.251 214.537 255.219C215.121 254.874 217.307 255.916 217.552 256.042C217.577 256.052 217.598 256.07 217.612 256.092C217.627 256.114 217.634 256.141 217.633 256.167C217.634 256.191 217.626 256.214 217.611 256.233C217.596 256.251 217.575 256.264 217.552 256.268C217.027 256.38 216.493 256.441 215.957 256.45ZM214.902 255.389C214.826 255.384 214.75 255.399 214.682 255.433C214.659 255.445 214.641 255.465 214.629 255.489C214.618 255.512 214.614 255.539 214.619 255.565C214.62 255.639 214.637 255.713 214.67 255.78C214.702 255.848 214.749 255.907 214.807 255.954C215.159 256.237 216.007 256.281 217.125 256.092C216.426 255.741 215.675 255.503 214.902 255.389Z" fill="#93CBFA"/>
<path d="M217.527 256.268H217.477C216.849 255.985 215.474 254.88 215.492 254.296C215.492 254.158 215.574 253.988 215.907 253.951C216.158 253.93 216.408 254.006 216.604 254.164C217.13 254.711 217.487 255.398 217.634 256.142C217.638 256.163 217.637 256.184 217.63 256.204C217.624 256.224 217.612 256.242 217.596 256.255C217.575 256.266 217.551 256.271 217.527 256.268ZM216.032 254.183H215.963C215.744 254.183 215.737 254.296 215.737 254.321C215.737 254.673 216.66 255.546 217.332 255.923C217.203 255.324 216.904 254.774 216.472 254.34C216.347 254.24 216.192 254.184 216.032 254.183Z" fill="#93CBFA"/>
<path d="M199.961 92.0586C199.892 92.4668 199.616 92.762 199.333 92.6866C199.051 92.6113 198.9 92.2721 198.975 91.8639C199.051 91.4557 199.314 91.1606 199.603 91.2045C199.892 91.2485 200.03 91.6504 199.961 92.0586Z" fill="#263238"/>
<path d="M195.34 91.2731C195.271 91.6813 194.995 91.9765 194.712 91.9011C194.429 91.8258 194.285 91.4929 194.354 91.0784C194.423 90.664 194.693 90.3751 194.982 90.4504C195.271 90.5258 195.409 90.8649 195.34 91.2731Z" fill="#263238"/>
<path d="M195.095 90.4942L194.159 90.042C194.159 90.042 194.536 90.8961 195.095 90.4942Z" fill="#263238"/>
<path d="M196.64 92.2529C196.122 93.1222 195.489 93.9167 194.756 94.6142C194.94 94.7975 195.162 94.939 195.406 95.0289C195.649 95.1189 195.91 95.1552 196.169 95.1355L196.64 92.2529Z" fill="#ED893E"/>
<path d="M198.102 97.1141C197.892 97.1142 197.681 97.0953 197.474 97.0576C197.458 97.0553 197.443 97.0498 197.43 97.0416C197.416 97.0334 197.404 97.0225 197.395 97.0097C197.386 96.9968 197.379 96.9822 197.375 96.9667C197.372 96.9512 197.371 96.9351 197.374 96.9194C197.38 96.8871 197.398 96.8584 197.425 96.8396C197.452 96.8209 197.486 96.8134 197.518 96.8189C198.024 96.916 198.546 96.8927 199.041 96.7508C199.536 96.609 199.991 96.3527 200.369 96.0025C200.381 95.9903 200.394 95.9806 200.409 95.974C200.424 95.9673 200.441 95.9639 200.457 95.9639C200.474 95.9639 200.49 95.9673 200.505 95.974C200.52 95.9806 200.534 95.9903 200.545 96.0025C200.556 96.0136 200.565 96.0268 200.571 96.0414C200.577 96.0559 200.581 96.0715 200.581 96.0873C200.581 96.1031 200.577 96.1187 200.571 96.1332C200.565 96.1478 200.556 96.161 200.545 96.1721C199.888 96.7969 199.009 97.1356 198.102 97.1141Z" fill="#263238"/>
<path d="M210.618 84.3526C210.029 83.939 209.359 83.6524 208.653 83.5111C208.081 78.6127 204.156 75.4978 199.779 76.4838C194.818 77.6016 193.091 83.756 196.426 85.8536C198.387 87.0521 200.603 87.7728 202.894 87.9574C202.982 92.0205 205.513 95.4934 207.29 95.6818C212.364 93.6596 213.677 86.5067 210.618 84.3526Z" fill="#263238"/>
<path d="M208.773 96.9254C208.272 97.7757 207.458 98.3957 206.506 98.6524C205.25 98.9727 204.622 97.836 205.011 96.6554C205.344 95.594 206.412 94.1434 207.674 94.338C207.948 94.3881 208.205 94.5055 208.423 94.6796C208.64 94.8538 208.811 95.0792 208.92 95.3357C209.029 95.5921 209.073 95.8717 209.047 96.1491C209.021 96.4266 208.927 96.6933 208.773 96.9254Z" fill="#FFB573"/>
<path d="M201.977 91.4305C201.926 91.4303 201.875 91.4139 201.834 91.3834C201.792 91.353 201.761 91.3101 201.745 91.2609C201.412 90.187 200.037 89.7223 200.024 89.7223C199.963 89.7022 199.912 89.6585 199.882 89.6009C199.853 89.5432 199.847 89.4762 199.867 89.4146C199.876 89.3837 199.892 89.3549 199.913 89.3301C199.933 89.3052 199.959 89.2849 199.987 89.2702C200.016 89.2555 200.048 89.2468 200.08 89.2447C200.112 89.2425 200.144 89.2469 200.175 89.2576C200.238 89.2576 201.808 89.804 202.21 91.1416C202.229 91.2032 202.224 91.2702 202.195 91.3279C202.165 91.3855 202.114 91.4292 202.053 91.4493L201.977 91.4305Z" fill="#263238"/>
<path d="M194.316 88.8997C194.273 88.8997 194.231 88.8887 194.194 88.8678C194.156 88.8469 194.125 88.8168 194.102 88.7804C194.071 88.7237 194.063 88.6569 194.081 88.5945C194.098 88.5321 194.14 88.4793 194.196 88.4475C194.527 88.2475 194.901 88.1295 195.287 88.1032C195.672 88.077 196.059 88.1434 196.413 88.2968C196.463 88.3303 196.498 88.3806 196.513 88.4383C196.528 88.496 196.521 88.5571 196.494 88.6102C196.467 88.6634 196.422 88.7048 196.366 88.7269C196.311 88.749 196.25 88.7501 196.193 88.7301C195.91 88.6141 195.603 88.5662 195.298 88.5902C194.992 88.6142 194.697 88.7094 194.435 88.8683C194.399 88.8903 194.358 88.9012 194.316 88.8997Z" fill="#263238"/>
<path d="M217.112 115.206C217.74 118.164 218.155 121.072 218.506 124.042C218.878 127.024 219.088 130.024 219.134 133.029C219.134 133.179 219.134 133.493 219.134 133.77C219.134 134.046 219.091 134.272 219.059 134.504C218.984 134.963 218.902 135.39 218.795 135.76C218.594 136.564 218.356 137.312 218.105 138.046C217.602 139.51 217.006 140.898 216.403 142.267C215.174 144.982 213.81 147.633 212.314 150.211L209.953 149.112L211.354 144.98C211.825 143.61 212.277 142.229 212.697 140.854C213.118 139.478 213.526 138.115 213.878 136.772C214.048 136.1 214.192 135.434 214.293 134.806C214.343 134.492 214.381 134.178 214.406 133.927C214.406 133.795 214.406 133.676 214.406 133.569L214.374 133.211C214.261 131.804 214.098 130.391 213.928 128.972L213.338 124.701C212.905 121.863 212.421 118.987 211.938 116.179L217.112 115.206Z" fill="#FFB573"/>
<path d="M214.713 109.221C216.804 109.849 219.316 117.059 219.316 117.059L211.196 122.861C211.196 122.861 208.238 116.851 209.117 114.145C210.034 111.331 212.32 108.493 214.713 109.221Z" fill="#263238"/>
<path d="M191.885 256.45C191.443 256.494 190.999 256.383 190.629 256.136C190.546 256.063 190.482 255.97 190.443 255.866C190.405 255.762 190.393 255.649 190.409 255.539C190.412 255.473 190.432 255.409 190.468 255.353C190.503 255.297 190.552 255.251 190.61 255.219C191.238 254.874 193.292 255.916 193.524 256.042C193.547 256.053 193.565 256.072 193.576 256.094C193.587 256.117 193.591 256.143 193.587 256.167C193.584 256.192 193.573 256.215 193.556 256.233C193.539 256.251 193.517 256.263 193.493 256.268C192.964 256.378 192.425 256.439 191.885 256.45ZM190.968 255.389C190.89 255.384 190.813 255.399 190.742 255.433C190.718 255.445 190.697 255.464 190.683 255.487C190.669 255.511 190.661 255.537 190.661 255.565C190.651 255.636 190.658 255.708 190.683 255.776C190.707 255.844 190.746 255.905 190.799 255.954C191.113 256.237 191.96 256.281 193.097 256.092C192.433 255.737 191.713 255.499 190.968 255.389Z" fill="#93CBFA"/>
<path d="M193.481 256.268H193.424C192.796 255.985 191.597 254.88 191.697 254.296C191.697 254.158 191.817 253.988 192.15 253.951C192.271 253.939 192.394 253.951 192.51 253.988C192.627 254.025 192.735 254.085 192.828 254.164C193.456 254.704 193.594 256.086 193.594 256.142C193.597 256.164 193.595 256.186 193.586 256.206C193.577 256.227 193.562 256.244 193.544 256.255C193.524 256.265 193.503 256.269 193.481 256.268ZM192.256 254.183H192.168C191.949 254.183 191.936 254.296 191.93 254.321C191.873 254.673 192.696 255.546 193.318 255.923C193.277 255.343 193.058 254.79 192.69 254.34C192.57 254.235 192.415 254.179 192.256 254.183Z" fill="#93CBFA"/>
<path d="M199.704 91.2793L198.769 90.8271C198.769 90.8271 199.158 91.6875 199.704 91.2793Z" fill="#263238"/>
<path d="M211.322 139.177L211.856 141.061C211.931 141.212 211.756 141.356 211.517 141.356H190.021C189.832 141.356 189.681 141.262 189.669 141.149L189.48 139.265C189.48 139.133 189.631 139.026 189.832 139.026H211.008C211.069 139.025 211.129 139.038 211.183 139.064C211.238 139.09 211.286 139.129 211.322 139.177Z" fill="#93CBFA"/>
<path d="M208.496 141.538H209.061C209.174 141.538 209.256 141.482 209.25 141.413L208.986 138.982C208.986 138.913 208.879 138.851 208.766 138.851H208.201C208.088 138.851 208 138.913 208.006 138.982L208.276 141.413C208.27 141.482 208.37 141.538 208.496 141.538Z" fill="#93CBFA"/>
<g opacity="0.3">
<path d="M208.496 141.538H209.061C209.174 141.538 209.256 141.482 209.25 141.413L208.986 138.982C208.986 138.913 208.879 138.851 208.766 138.851H208.201C208.088 138.851 208 138.913 208.006 138.982L208.276 141.413C208.27 141.482 208.37 141.538 208.496 141.538Z" fill="white"/>
</g>
<path d="M191.616 141.538H192.181C192.294 141.538 192.382 141.482 192.375 141.413L192.105 138.982C192.105 138.913 191.999 138.851 191.886 138.851H191.32C191.207 138.851 191.119 138.913 191.132 138.982L191.396 141.413C191.402 141.482 191.503 141.538 191.616 141.538Z" fill="#93CBFA"/>
<path opacity="0.3" d="M191.616 141.538H192.181C192.294 141.538 192.382 141.482 192.375 141.413L192.105 138.982C192.105 138.913 191.999 138.851 191.886 138.851H191.32C191.207 138.851 191.119 138.913 191.132 138.982L191.396 141.413C191.402 141.482 191.503 141.538 191.616 141.538Z" fill="white"/>
<path d="M200.049 141.538H200.614C200.727 141.538 200.815 141.482 200.803 141.413L200.539 138.982C200.539 138.913 200.432 138.851 200.319 138.851H199.754C199.641 138.851 199.553 138.913 199.566 138.982L199.829 141.413C199.836 141.482 199.936 141.538 200.049 141.538Z" fill="#93CBFA"/>
<path opacity="0.3" d="M200.049 141.538H200.614C200.727 141.538 200.815 141.482 200.803 141.413L200.539 138.982C200.539 138.913 200.432 138.851 200.319 138.851H199.754C199.641 138.851 199.553 138.913 199.566 138.982L199.829 141.413C199.836 141.482 199.936 141.538 200.049 141.538Z" fill="white"/>
<path d="M210.047 148.647L206.06 152.515L211.259 153.037C211.259 153.037 213.143 150.317 212.157 148.421L210.047 148.647Z" fill="#FFB573"/>
<path d="M205.469 156.799L209.852 157L211.259 153.037L206.059 152.516L205.469 156.799Z" fill="#FFB573"/>
<path d="M103.808 256.921C104.304 256.979 104.803 256.856 105.215 256.576C105.272 256.512 105.309 256.432 105.32 256.347C105.331 256.262 105.317 256.175 105.278 256.098C105.25 256.035 105.207 255.979 105.154 255.934C105.1 255.89 105.038 255.858 104.97 255.841C104.229 255.634 102.458 256.551 102.408 256.595C102.387 256.604 102.369 256.621 102.356 256.641C102.344 256.661 102.338 256.684 102.339 256.708C102.34 256.729 102.348 256.749 102.362 256.765C102.375 256.78 102.394 256.791 102.414 256.796C102.874 256.878 103.341 256.92 103.808 256.921ZM104.675 256.029C104.744 256.019 104.814 256.019 104.882 256.029C104.923 256.038 104.962 256.056 104.995 256.082C105.028 256.108 105.054 256.142 105.071 256.18C105.127 256.318 105.071 256.387 105.071 256.425C104.813 256.72 103.645 256.726 102.804 256.607C103.389 256.306 104.022 256.111 104.675 256.029Z" fill="#93CBFA"/>
<path d="M102.433 256.796H102.484C103.074 256.545 104.324 255.54 104.317 255.025C104.317 254.899 104.248 254.748 103.953 254.717C103.728 254.701 103.505 254.768 103.325 254.905C102.841 255.396 102.504 256.011 102.352 256.683C102.345 256.701 102.345 256.72 102.351 256.738C102.356 256.756 102.368 256.772 102.383 256.783C102.398 256.792 102.416 256.797 102.433 256.796ZM103.834 254.912H103.903C104.091 254.912 104.098 255.006 104.098 255.031C104.098 255.345 103.237 256.13 102.615 256.469C102.755 255.931 103.037 255.441 103.432 255.05C103.549 254.967 103.69 254.923 103.834 254.924V254.912Z" fill="#93CBFA"/>
<path d="M97.3779 256.689H101.994L104.022 246H99.4064L97.3779 256.689Z" fill="#B55B52"/>
<path d="M102.037 256.155H97.0133C96.9174 256.159 96.8245 256.19 96.7463 256.246C96.6682 256.302 96.6082 256.38 96.5737 256.469L95.0603 260.57C95.018 260.659 94.9994 260.757 95.0063 260.856C95.0132 260.954 95.0454 261.049 95.0997 261.131C95.1541 261.213 95.2287 261.28 95.3164 261.324C95.4041 261.369 95.5019 261.391 95.6003 261.387C97.4278 261.387 100.065 261.255 102.351 261.255C105.02 261.255 104.775 261.399 107.909 261.399C109.793 261.399 110.61 259.484 109.843 259.308C106.352 258.523 105.944 258.435 103.111 256.513C102.798 256.287 102.424 256.162 102.037 256.155Z" fill="#263238"/>
<path opacity="0.2" d="M104.022 246.007L102.973 251.514H98.3574L99.4062 246.007H104.022Z" fill="black"/>
<path d="M104.368 141.583L107.389 144.754L102.515 146.456C102.515 146.456 100.744 143.869 102.107 142.098L104.368 141.583Z" fill="#B55B52"/>
<path d="M108.292 149.188L103.469 149.891L102.515 146.456L107.388 144.754L108.292 149.188Z" fill="#B55B52"/>
<path d="M86.2622 167.903L109.8 168.933C110.353 168.941 110.892 168.758 111.326 168.415C111.759 168.072 112.061 167.589 112.18 167.049L114.993 152.668C115.052 152.424 115.055 152.17 115.002 151.925C114.949 151.68 114.841 151.451 114.688 151.253C114.534 151.055 114.338 150.894 114.113 150.783C113.889 150.671 113.642 150.611 113.392 150.608L89.8544 149.571C89.3024 149.564 88.7648 149.748 88.3323 150.091C87.8999 150.434 87.599 150.916 87.4806 151.455L84.6608 165.837C84.6013 166.081 84.5976 166.335 84.65 166.581C84.7024 166.827 84.8095 167.057 84.9634 167.256C85.1173 167.454 85.3141 167.616 85.5389 167.728C85.7638 167.84 86.011 167.9 86.2622 167.903Z" fill="#263238"/>
<path d="M87.8765 172.324L116.953 173.58C117.612 173.605 118.256 173.376 118.752 172.94C119.247 172.504 119.557 171.895 119.616 171.237L121.154 153.39C121.185 153.072 121.151 152.752 121.053 152.449C120.956 152.146 120.797 151.865 120.587 151.626C120.377 151.386 120.12 151.192 119.832 151.056C119.544 150.92 119.231 150.844 118.912 150.834L89.8421 149.578C89.1828 149.555 88.5397 149.785 88.0439 150.22C87.548 150.656 87.2366 151.263 87.1731 151.92L85.6345 169.768C85.6044 170.085 85.6393 170.405 85.7372 170.708C85.8351 171.011 85.994 171.29 86.2039 171.53C86.4139 171.769 86.6705 171.963 86.9582 172.1C87.2458 172.236 87.5583 172.312 87.8765 172.324Z" fill="#93CBFA"/>
<path opacity="0.2" d="M87.8765 172.324L116.953 173.58C117.612 173.605 118.256 173.376 118.752 172.94C119.247 172.504 119.557 171.895 119.616 171.237L121.154 153.39C121.185 153.072 121.151 152.752 121.053 152.449C120.956 152.146 120.797 151.865 120.587 151.626C120.377 151.386 120.12 151.192 119.832 151.056C119.544 150.92 119.231 150.844 118.912 150.834L89.8421 149.578C89.1828 149.555 88.5397 149.785 88.0439 150.22C87.548 150.656 87.2366 151.263 87.1731 151.92L85.6345 169.768C85.6044 170.085 85.6393 170.405 85.7372 170.708C85.8351 171.011 85.994 171.29 86.2039 171.53C86.4139 171.769 86.6705 171.963 86.9582 172.1C87.2458 172.236 87.5583 172.312 87.8765 172.324Z" fill="black"/>
<path d="M109.21 155.562H109.134L100.694 155.192C100.474 155.184 100.258 155.132 100.059 155.037C99.8603 154.943 99.6828 154.809 99.5375 154.644C99.3922 154.479 99.2823 154.286 99.2144 154.076C99.1465 153.867 99.1222 153.646 99.1429 153.427L99.4757 149.577C99.5577 148.79 99.9338 148.063 100.529 147.542C101.124 147.02 101.894 146.742 102.685 146.764L108.337 147.009C108.745 147.025 109.146 147.124 109.515 147.3C109.884 147.476 110.213 147.725 110.483 148.032C110.753 148.34 110.957 148.699 111.083 149.087C111.21 149.476 111.256 149.886 111.219 150.293L110.899 154.024C110.857 154.443 110.661 154.833 110.35 155.117C110.038 155.401 109.632 155.56 109.21 155.562ZM101.046 153.314L109.028 153.666L109.335 150.124C109.353 149.969 109.338 149.812 109.292 149.663C109.246 149.514 109.169 149.376 109.067 149.258C108.965 149.14 108.84 149.044 108.699 148.977C108.558 148.91 108.405 148.873 108.249 148.868L102.597 148.616C102.289 148.614 101.991 148.725 101.76 148.927C101.528 149.13 101.379 149.41 101.341 149.715L101.046 153.314Z" fill="#93CBFA"/>
<path d="M120.061 173.736L90.9911 172.48C90.3268 172.442 89.7009 172.156 89.2362 171.68C88.7715 171.203 88.5015 170.571 88.4791 169.906L88.0898 151.976C88.0769 151.66 88.1305 151.344 88.2471 151.05C88.3638 150.755 88.5408 150.488 88.7668 150.266C88.9928 150.045 89.2628 149.873 89.5594 149.761C89.856 149.65 90.1725 149.602 90.4887 149.621L119.565 150.877C120.23 150.914 120.857 151.2 121.322 151.676C121.787 152.153 122.056 152.786 122.077 153.452L122.46 171.381C122.472 171.698 122.418 172.013 122.301 172.307C122.184 172.601 122.007 172.867 121.781 173.089C121.555 173.311 121.286 173.483 120.989 173.594C120.693 173.706 120.377 173.754 120.061 173.736Z" fill="#93CBFA"/>
<path d="M111.451 106.459C111.144 107.087 110.779 107.803 110.453 108.487C110.126 109.172 109.825 109.9 109.48 110.61C108.852 112.035 108.224 113.467 107.683 114.905C107.143 116.343 106.641 117.794 106.195 119.232C105.988 119.954 105.774 120.67 105.617 121.38C105.523 121.738 105.441 122.096 105.379 122.441L105.278 122.969C105.241 123.151 105.203 123.333 105.19 123.459C105.19 123.735 105.115 123.986 105.102 124.357C105.09 124.727 105.058 125.029 105.058 125.412C105.058 126.146 105.058 126.919 105.058 127.691C105.09 129.255 105.184 130.831 105.278 132.452C105.46 135.661 105.73 138.92 105.982 142.135L100.229 143.065C99.4504 139.793 98.8349 136.552 98.2823 133.23C98.0185 131.572 97.7924 129.902 97.604 128.206C97.5161 127.34 97.4282 126.479 97.3842 125.569C97.3466 125.135 97.3403 124.646 97.334 124.168C97.3277 123.691 97.334 123.151 97.3905 122.611C97.4031 122.365 97.4282 122.12 97.4659 121.876L97.5538 121.185C97.604 120.721 97.6731 120.268 97.7548 119.829C97.9055 118.924 98.0939 118.052 98.2823 117.179C98.6905 115.452 99.1552 113.75 99.7078 112.104C100.26 110.459 100.845 108.826 101.498 107.231C101.824 106.434 102.126 105.642 102.515 104.851C102.904 104.06 103.212 103.306 103.645 102.439L111.451 106.459Z" fill="#93CBFA"/>
<path d="M124.036 139.335C124.036 139.335 119.596 173.831 117.028 187.898C114.352 202.531 104.876 250.447 104.876 250.447H97.0322C97.0322 250.447 101.014 203.385 102.778 189.016C104.706 173.316 107.802 139.335 107.802 139.335H124.036Z" fill="#263238"/>
<path d="M106.811 247.332C106.848 247.332 105.894 250.579 105.894 250.579H96.3857L96.5553 247.684L106.811 247.332Z" fill="#93CBFA"/>
<path d="M127.817 82.0481C127.817 82.4374 128.025 82.7577 128.282 82.7577C128.54 82.7577 128.741 82.4374 128.741 82.0481C128.741 81.6587 128.533 81.3447 128.282 81.3447C128.031 81.3447 127.817 81.6399 127.817 82.0481Z" fill="#263238"/>
<path d="M127.986 82.7578C128.458 83.9527 129.092 85.0769 129.87 86.0988C129.601 86.2918 129.293 86.4234 128.967 86.4841C128.642 86.5449 128.307 86.5334 127.986 86.4505V82.7578Z" fill="#A02724"/>
<path d="M126.435 79.8824C126.482 79.8826 126.528 79.8696 126.567 79.8447C126.795 79.6677 127.063 79.548 127.347 79.4955C127.631 79.4431 127.924 79.4595 128.2 79.5433C128.257 79.5639 128.319 79.5617 128.374 79.5371C128.429 79.5125 128.473 79.4674 128.495 79.4114C128.506 79.3834 128.512 79.3534 128.511 79.3233C128.51 79.2932 128.504 79.2636 128.491 79.2361C128.479 79.2086 128.461 79.1838 128.439 79.1632C128.417 79.1426 128.391 79.1267 128.363 79.1162C128.016 79.0043 127.647 78.9778 127.287 79.039C126.927 79.1002 126.588 79.2473 126.297 79.4679C126.249 79.5042 126.216 79.558 126.207 79.6178C126.198 79.6777 126.212 79.7388 126.247 79.7882C126.268 79.818 126.297 79.8422 126.329 79.8586C126.362 79.875 126.399 79.8832 126.435 79.8824Z" fill="#263238"/>
<path d="M115.452 86.3633C116.08 89.7419 116.77 95.9277 114.409 98.176C114.409 98.176 115.332 101.599 121.606 101.599C128.514 101.599 124.897 98.176 124.897 98.176C121.129 97.2779 121.236 94.4896 121.889 91.8646L115.452 86.3633Z" fill="#B55B52"/>
<path d="M113.505 99.3499C113.015 98.2697 112.468 97.0263 113.592 96.6369C114.848 96.2099 121.612 95.7766 123.948 96.5804C124.256 96.6658 124.545 96.8115 124.796 97.0091C125.047 97.2066 125.257 97.4521 125.413 97.7313C125.569 98.0105 125.668 98.3179 125.705 98.6356C125.741 98.9533 125.714 99.2751 125.625 99.5823L113.505 99.3499Z" fill="#263238"/>
<path d="M105.323 99.5006C101.284 101.334 98.7725 115.238 98.7725 115.238L106.692 117.75C108.247 114.079 109.54 110.301 110.56 106.446C111.998 100.644 109.455 97.6292 105.323 99.5006Z" fill="#93CBFA"/>
<path d="M154.488 133.928H159.362L158.508 139.756C158.508 139.756 154.689 139.617 152.956 136.741L154.488 133.928Z" fill="#B55B52"/>
<path d="M163.946 135.956L161.497 140.459L158.482 139.768L159.337 133.94L163.946 135.956Z" fill="#B55B52"/>
<path d="M114.786 81.2195C115.081 86.0174 115.012 88.8434 117.436 91.3051C121.078 95.0103 127 92.8123 128.143 88.0207C129.18 83.7126 128.52 76.5911 123.823 74.682C122.79 74.2562 121.665 74.1016 120.555 74.2329C119.445 74.3641 118.387 74.7768 117.482 75.4318C116.577 76.0868 115.854 76.9623 115.382 77.9752C114.91 78.9882 114.705 80.1049 114.786 81.2195Z" fill="#B55B52"/>
<path d="M114.234 87.7445C114.234 87.7445 109.888 81.2258 110.83 76.9743C111.69 73.087 120.463 71.6991 124.106 72.0884C127.974 72.5092 129.482 74.1734 127.359 77.5269C126.106 78.1206 124.789 78.5673 123.434 78.8583C123.434 78.8583 125.588 81.5022 125.607 83.2543C124.979 83.5809 123.038 84.3596 123.038 84.3596C123.038 84.3596 120.288 91.1482 120.206 91.1357C119.145 91.0101 116.689 90.9724 115.81 91.3052C115.187 90.1639 114.66 88.9729 114.234 87.7445Z" fill="#263238"/>
<path d="M121.135 83.6563C121.452 84.804 122.135 85.8164 123.082 86.5389C124.338 87.4809 125.273 86.5891 125.179 85.1761C125.098 83.9201 124.344 81.8917 122.962 81.496C121.581 81.1004 120.771 82.2685 121.135 83.6563Z" fill="#B55B52"/>
<path opacity="0.3" d="M120.708 152.228C114.535 153.659 115.684 175.991 116.871 188.721C116.927 188.432 116.971 188.162 117.021 187.898C118.554 179.52 120.745 163.908 122.271 152.642C121.796 152.367 121.257 152.224 120.708 152.228Z" fill="black"/>
<path d="M126.68 256.921C127.27 256.921 127.842 256.84 128.036 256.576C128.086 256.506 128.113 256.423 128.113 256.337C128.113 256.251 128.086 256.168 128.036 256.098C127.999 256.034 127.95 255.979 127.89 255.934C127.831 255.89 127.763 255.858 127.691 255.841C126.925 255.634 125.311 256.551 125.242 256.595C125.223 256.606 125.208 256.623 125.199 256.643C125.19 256.663 125.187 256.686 125.192 256.708C125.196 256.729 125.207 256.749 125.222 256.765C125.238 256.78 125.258 256.791 125.279 256.796C125.742 256.877 126.21 256.919 126.68 256.921ZM127.415 256.029C127.483 256.019 127.553 256.019 127.622 256.029C127.666 256.038 127.708 256.056 127.745 256.082C127.782 256.108 127.812 256.141 127.835 256.18C127.917 256.318 127.886 256.387 127.835 256.425C127.622 256.72 126.454 256.726 125.593 256.607C126.157 256.298 126.776 256.102 127.415 256.029Z" fill="#93CBFA"/>
<path d="M125.286 256.796H125.33C125.889 256.544 126.994 255.54 126.906 255.025C126.906 254.899 126.8 254.748 126.498 254.717C126.386 254.703 126.272 254.713 126.164 254.745C126.056 254.778 125.956 254.832 125.87 254.905C125.28 255.389 125.16 256.632 125.154 256.683C125.152 256.702 125.155 256.721 125.162 256.739C125.17 256.757 125.182 256.772 125.198 256.783C125.225 256.798 125.256 256.803 125.286 256.796ZM126.41 254.912H126.479C126.674 254.912 126.687 255.006 126.693 255.031C126.743 255.345 125.989 256.13 125.437 256.469C125.494 255.942 125.714 255.447 126.065 255.05C126.163 254.971 126.284 254.927 126.41 254.924V254.912Z" fill="#93CBFA"/>
<path d="M120.212 256.689H124.828L125.286 246H120.677L120.212 256.689Z" fill="#B55B52"/>
<path d="M124.796 256.155H119.772C119.681 256.156 119.592 256.187 119.52 256.244C119.448 256.301 119.398 256.38 119.377 256.469L118.466 260.57C118.444 260.669 118.445 260.772 118.468 260.87C118.492 260.969 118.537 261.061 118.601 261.139C118.665 261.218 118.746 261.281 118.838 261.324C118.93 261.366 119.03 261.388 119.132 261.387C120.947 261.387 123.572 261.255 125.857 261.255C128.533 261.255 130.838 261.399 133.971 261.399C135.855 261.399 136.389 259.484 135.598 259.308C131.987 258.523 129.041 258.435 125.92 256.513C125.586 256.291 125.197 256.167 124.796 256.155Z" fill="#263238"/>
<path opacity="0.2" d="M125.286 246.007L125.047 251.514H120.432L120.67 246.007H125.286Z" fill="black"/>
<path d="M132.27 139.335C132.27 139.335 132.898 173.831 132.402 187.898C131.88 202.531 126.75 250.447 126.75 250.447H118.956C118.956 250.447 118.667 203.385 118.328 189.016C117.945 173.316 116.055 139.335 116.055 139.335H132.27Z" fill="#263238"/>
<path d="M128.276 247.332C128.307 247.332 127.83 250.579 127.83 250.579H118.328L118.064 247.684L128.276 247.332Z" fill="#93CBFA"/>
<path d="M131.994 99.4564C131.994 99.4564 137.533 107.897 132.892 142.229H106.83C106.66 138.461 109.806 117.065 106.151 99.2177C108.879 98.6925 111.637 98.3443 114.41 98.1752C117.903 97.9741 121.404 97.9741 124.897 98.1752C127.292 98.4166 129.665 98.8449 131.994 99.4564Z" fill="#93CBFA"/>
<path opacity="0.2" d="M134.744 117.022L129.28 107.966C129.28 107.966 131.334 120.802 134.48 126.592C134.694 122.969 134.769 119.791 134.744 117.022Z" fill="black"/>
<path d="M137.074 106.063C137.972 108.933 138.958 111.872 139.969 114.749C140.98 117.625 142.035 120.482 143.191 123.227L143.63 124.244C143.668 124.32 143.702 124.397 143.731 124.476C143.757 124.535 143.786 124.591 143.819 124.646C144.098 125.062 144.422 125.445 144.786 125.789C145.777 126.712 146.842 127.552 147.97 128.301C149.151 129.117 150.4 129.909 151.688 130.656C152.975 131.403 154.306 132.169 155.575 132.829L153.132 138.531C150.041 137.397 147.041 136.028 144.158 134.437C142.615 133.575 141.145 132.59 139.762 131.491C138.938 130.827 138.19 130.073 137.533 129.243C137.344 128.973 137.162 128.734 136.98 128.433C136.798 128.131 136.597 127.755 136.54 127.629L135.988 126.53C134.55 123.604 133.262 120.677 132.075 117.738C130.888 114.799 129.783 111.841 128.722 108.783L137.074 106.063Z" fill="#93CBFA"/>
<path d="M125.838 101.542C124.224 105.649 134.04 122.184 134.04 122.184L140.427 116.074C140.427 116.074 139.033 110.88 137.174 104.626C135.34 98.4774 127.377 97.617 125.838 101.542Z" fill="#93CBFA"/>
</svg>
