<svg width="314" height="314" viewBox="0 0 314 314" fill="none" xmlns="http://www.w3.org/2000/svg">
<path d="M283.429 130.448C279.033 122.623 271.403 115.916 262.19 114.692C252.713 113.436 243.419 118.07 235.983 123.829C228.516 129.588 222.136 136.634 217.143 144.635C214.236 149.32 211.265 154.758 205.795 156.284C200.646 157.716 195.232 155.028 191.081 151.775C186.93 148.522 183.2 144.553 178.195 142.7C165.158 137.871 150.613 149.451 137.073 146.11C125.411 143.234 119.829 131.038 112.581 121.838C100.612 106.691 79.8124 97.9366 60.2313 101.114C40.6503 104.292 25.7478 137.205 23.0537 156.001L291.266 155.914C289.583 147.172 287.844 138.267 283.429 130.448Z" fill="#EBEBEB"/>
<path d="M73.6955 62.5546C73.9341 60.8025 71.4661 59.3644 69.6072 59.2137C68.7199 59.2496 67.8316 59.1737 66.9633 58.9876C65.1484 58.3596 64.4513 56.0046 62.649 55.2573C61.3239 54.6984 59.7978 55.1945 58.5167 55.8413C57.2356 56.4882 55.9607 57.3046 54.5226 57.3925C53.2666 57.4741 51.9164 57.0094 50.8237 57.6186C50.0136 58.077 49.5677 59.0127 48.833 59.5654C48.0553 60.0545 47.1516 60.3055 46.233 60.2876C45.3201 60.2653 44.4109 60.4122 43.5515 60.7209C43.1252 60.8871 42.7641 61.1867 42.522 61.5748C42.2798 61.963 42.1695 62.419 42.2075 62.8749L73.6955 62.5546Z" fill="#F5F5F5"/>
<path d="M157.144 79.2158C157.383 77.4637 154.915 76.0255 153.056 75.8748C152.169 75.9108 151.28 75.8348 150.412 75.6487C148.597 75.0207 147.9 72.6657 146.098 71.9184C144.773 71.3595 143.247 71.8556 141.965 72.5025C140.684 73.1493 139.409 73.9657 137.971 74.0599C136.715 74.1353 135.365 73.6768 134.279 74.286C133.462 74.7381 133.023 75.6739 132.288 76.2328C131.505 76.7128 130.6 76.957 129.682 76.9361C128.768 76.9127 127.858 77.0619 127 77.3757C126.575 77.5417 126.215 77.8402 125.973 78.2271C125.731 78.614 125.62 79.0686 125.656 79.5235L157.144 79.2158Z" fill="#F5F5F5"/>
<path d="M293.966 78.1854C294.4 75.0454 289.953 72.4392 286.606 72.1691C285.011 72.0435 283.359 72.2884 281.846 71.7609C278.574 70.618 277.268 66.3915 274.071 65.0413C271.685 64.0365 268.94 64.9346 266.623 66.0964C264.306 67.2582 262.02 68.7277 259.439 68.8972C257.191 69.0354 254.748 68.2064 252.776 69.3054C251.313 70.1218 250.546 71.8174 249.19 72.8097C247.833 73.8019 246.144 73.9903 244.505 74.0657C242.866 74.141 241.164 74.1724 239.669 74.857C238.175 75.5415 236.944 77.1178 237.252 78.7317L293.966 78.1854Z" fill="#EBEBEB"/>
<path d="M164.875 46.9237C165.421 42.9359 159.801 39.6578 155.568 39.3186C153.552 39.1554 151.461 39.4631 149.552 38.7974C145.413 37.353 143.761 32.0087 139.723 30.3068C136.703 29.0508 133.23 30.1687 130.303 31.6382C127.377 33.1077 124.488 34.9666 121.204 35.1676C118.359 35.3497 115.269 34.2946 112.782 35.6888C110.898 36.7187 109.956 38.8288 108.248 40.0848C106.54 41.3408 104.398 41.5794 102.32 41.6925C100.241 41.8055 98.0996 41.8244 96.2093 42.691C94.319 43.5576 92.7616 45.5547 93.1509 47.5957L164.875 46.9237Z" fill="#EBEBEB"/>
<path d="M11.6992 228.831L13.6963 210.512L127.634 217.966C130.104 218.129 132.545 217.351 134.464 215.787C136.383 214.223 137.638 211.991 137.977 209.539L145.407 155.744H171.236L182.408 210.763C182.872 213.053 184.14 215.102 185.983 216.538C187.826 217.974 190.122 218.704 192.456 218.594L299.493 213.696V232.925L205.513 248.939C203.315 249.157 201.185 249.817 199.249 250.879C197.314 251.942 195.613 253.384 194.249 255.121C192.885 256.857 191.886 258.851 191.313 260.984C190.739 263.116 190.603 265.342 190.912 267.528L195.308 298.865H129.06L131.741 270.172C132.238 264.872 130.7 259.582 127.441 255.373C124.182 251.165 119.444 248.353 114.189 247.507L11.6992 228.831Z" fill="#E0E0E0"/>
<path d="M163.249 205.325H157L158.482 178.497L161.195 178.503L163.249 205.325Z" fill="#F5F5F5"/>
<path d="M165.497 267.246H157L158.513 234.024L163.161 234.037L165.497 267.246Z" fill="#F5F5F5"/>
<path d="M203.798 235.387L203.195 230.194L236.303 227.299L237.202 230.747L203.798 235.387Z" fill="#F5F5F5"/>
<path d="M270.906 228.247L270.31 223.053L299.486 220.497V224.271L270.906 228.247Z" fill="#F5F5F5"/>
<path d="M118.459 232.291L119.062 227.098L85.9537 224.196L85.0557 227.65L118.459 232.291Z" fill="#F5F5F5"/>
<path d="M45.1025 224.196L45.5798 220.051L13.1059 215.906L12.6914 219.693L45.1025 224.196Z" fill="#F5F5F5"/>
<path d="M201.413 206.731H196.012V42.9484C196.012 42.2323 196.296 41.5454 196.803 41.039C197.309 40.5326 197.996 40.248 198.712 40.248C199.428 40.2497 200.114 40.5347 200.62 41.0408C201.126 41.5469 201.411 42.2328 201.413 42.9484V206.731Z" fill="#263238"/>
<path d="M173.103 109.209L188.068 107.821L225.063 127.735L222.589 132.326L217.923 132.307L221.031 135.227L217.647 141.513L180.89 121.731L173.103 109.209Z" fill="#93CBFA"/>
<path opacity="0.3" d="M173.103 109.209L188.068 107.821L225.063 127.735L222.589 132.326L217.923 132.307L221.031 135.227L217.647 141.513L180.89 121.731L173.103 109.209Z" fill="black"/>
<path d="M172.644 107.306L183.207 106.326C184.396 106.215 185.591 106.457 186.642 107.023L222.024 126.064L219.55 130.661H214.883L217.992 133.581L214.607 139.861L179.276 120.846C178.345 120.343 177.562 119.608 177.003 118.71L171.445 109.743C171.3 109.512 171.216 109.248 171.202 108.976C171.188 108.705 171.244 108.434 171.364 108.189C171.484 107.945 171.665 107.736 171.889 107.581C172.113 107.426 172.373 107.332 172.644 107.306Z" fill="#93CBFA"/>
<g opacity="0.2">
<path d="M213.088 139.083C212.959 138.544 212.747 138.029 212.46 137.556C211.573 136.334 210.45 135.302 209.156 134.523C205.063 131.657 200.694 129.208 196.113 127.213C193.431 126.039 190.794 125.122 188.42 124.218C186.3 123.449 184.226 122.557 182.209 121.549C180.849 120.863 179.555 120.056 178.34 119.137C177.907 118.817 177.599 118.509 177.379 118.352C177.264 118.264 177.158 118.163 177.065 118.051C177.065 118.051 177.543 118.415 178.416 119.03C179.649 119.908 180.954 120.681 182.316 121.342C184.337 122.319 186.41 123.184 188.526 123.935C190.9 124.821 193.55 125.731 196.245 126.912C200.846 128.915 205.221 131.404 209.294 134.335C210.595 135.14 211.712 136.21 212.573 137.475C212.787 137.834 212.94 138.227 213.025 138.637C213.052 138.741 213.069 138.849 213.075 138.957C213.088 139.045 213.094 139.083 213.088 139.083Z" fill="black"/>
<path d="M173.9 107.387C173.736 108.058 173.719 108.756 173.85 109.434C174.012 110.225 174.337 110.974 174.804 111.632C175.438 112.493 176.191 113.261 177.04 113.912C179.242 115.642 181.549 117.234 183.948 118.678C186.655 120.324 189.726 121.969 192.985 123.633L209.677 132.161C211.781 133.26 213.502 134.146 214.701 134.78L216.064 135.509C216.224 135.589 216.38 135.679 216.529 135.779C216.357 135.723 216.191 135.652 216.033 135.565L214.645 134.893L209.552 132.381L192.847 123.903C189.588 122.233 186.51 120.575 183.804 118.879C181.397 117.417 179.089 115.798 176.896 114.031C176.037 113.36 175.282 112.566 174.654 111.676C174.185 110.993 173.868 110.218 173.724 109.403C173.63 108.888 173.63 108.36 173.724 107.845C173.769 107.687 173.828 107.534 173.9 107.387Z" fill="black"/>
<path d="M188.444 114.226C188.327 114.087 188.222 113.938 188.13 113.78C187.843 113.344 187.53 112.925 187.195 112.524C185.963 111.081 184.433 109.922 182.711 109.127C182.148 108.857 181.559 108.646 180.952 108.499C180.311 108.336 179.636 108.367 179.012 108.587C178.686 108.698 178.393 108.889 178.161 109.142C177.928 109.396 177.763 109.703 177.68 110.037C177.613 110.782 177.838 111.523 178.308 112.103C180.117 114.71 182.987 116.832 186.165 118.635C186.962 119.087 187.76 119.533 188.551 119.935C189.303 120.352 190.141 120.593 191 120.638C191.403 120.658 191.805 120.585 192.175 120.425C192.546 120.265 192.874 120.022 193.135 119.715C193.589 119.076 193.774 118.284 193.65 117.511C193.528 116.76 193.263 116.04 192.872 115.388C192.501 114.76 192.093 114.132 191.697 113.548C190.954 112.474 190.113 111.471 189.185 110.552C187.828 109.226 186.271 108.122 184.569 107.28C183.941 106.985 183.489 106.778 183.156 106.652C182.989 106.589 182.825 106.516 182.667 106.433C182.842 106.47 183.015 106.523 183.182 106.59C183.673 106.759 184.155 106.954 184.626 107.174C186.366 107.978 187.96 109.067 189.342 110.395C190.298 111.311 191.164 112.317 191.93 113.397C192.332 113.981 192.746 114.59 193.129 115.281C193.543 115.961 193.824 116.713 193.958 117.498C194.096 118.356 193.89 119.233 193.387 119.941C193.096 120.286 192.731 120.56 192.318 120.742C191.906 120.923 191.457 121.008 191.006 120.99C190.093 120.953 189.201 120.703 188.4 120.261C187.59 119.853 186.799 119.407 185.995 118.955C182.799 117.146 179.891 114.992 178.057 112.311C177.556 111.658 177.33 110.835 177.429 110.019C177.523 109.639 177.711 109.29 177.976 109.002C178.24 108.715 178.573 108.499 178.943 108.373C179.619 108.14 180.348 108.112 181.04 108.292C181.66 108.435 182.262 108.646 182.836 108.92C185.066 109.95 186.939 111.62 188.218 113.717C188.303 113.882 188.379 114.052 188.444 114.226Z" fill="black"/>
<path d="M220.956 128.155C220.956 128.187 220.447 127.942 219.487 127.747C218.116 127.529 216.719 127.529 215.348 127.747C213.609 127.942 211.58 128.482 209.187 128.507C207.944 128.514 206.709 128.301 205.539 127.879C204.289 127.425 203.113 126.79 202.047 125.995C200.016 124.442 198.291 122.526 196.96 120.343C195.879 118.574 194.906 116.741 194.046 114.854C193.286 113.259 192.665 111.978 192.2 111.086L191.672 110.082C191.601 109.97 191.544 109.849 191.503 109.724C191.589 109.825 191.665 109.934 191.729 110.05C191.873 110.27 192.068 110.597 192.313 111.024C192.809 111.884 193.469 113.153 194.254 114.735C195.137 116.598 196.125 118.409 197.211 120.161C198.537 122.3 200.239 124.181 202.235 125.713C204.227 127.256 206.662 128.117 209.181 128.168C211.492 128.168 213.577 127.653 215.317 127.483C216.711 127.292 218.127 127.339 219.505 127.622C219.877 127.706 220.24 127.822 220.592 127.967C220.721 128.013 220.844 128.076 220.956 128.155Z" fill="black"/>
<path d="M208.001 121.831C207.871 121.796 207.745 121.75 207.624 121.693C207.385 121.592 207.04 121.435 206.594 121.209C206.148 120.983 205.627 120.694 205.03 120.318C204.729 120.133 204.415 119.924 204.088 119.69C203.709 119.472 203.387 119.169 203.146 118.804C203.072 118.686 203.039 118.547 203.053 118.408C203.067 118.269 203.126 118.139 203.222 118.038C203.33 117.953 203.458 117.896 203.594 117.872C203.73 117.848 203.869 117.857 204 117.9C204.49 118.032 204.949 118.195 205.445 118.364C206.425 118.71 207.461 119.124 208.522 119.62C209.633 120.134 210.715 120.708 211.763 121.341C212.366 121.644 212.885 122.091 213.276 122.641C213.383 122.798 213.453 122.978 213.481 123.166C213.509 123.355 213.493 123.547 213.436 123.728C213.378 123.91 213.281 124.076 213.149 124.214C213.018 124.352 212.858 124.458 212.679 124.525C212.025 124.753 211.327 124.831 210.638 124.751C209.986 124.719 209.337 124.635 208.698 124.5C207.487 124.256 206.316 123.844 205.219 123.275C203.664 122.473 202.285 121.366 201.166 120.021C200.046 118.675 199.208 117.119 198.7 115.444C198.587 115.082 198.497 114.713 198.43 114.339C198.398 114.21 198.381 114.077 198.38 113.943C198.411 113.943 198.512 114.477 198.826 115.407C199.267 116.716 199.902 117.953 200.71 119.074C201.921 120.731 203.507 122.078 205.338 123.005C206.413 123.553 207.559 123.95 208.742 124.186C209.363 124.313 209.993 124.393 210.626 124.425C211.261 124.502 211.905 124.433 212.51 124.224C212.648 124.169 212.771 124.084 212.872 123.975C212.973 123.867 213.049 123.737 213.094 123.596C213.133 123.459 213.141 123.316 213.118 123.176C213.095 123.036 213.042 122.903 212.962 122.786C212.6 122.28 212.122 121.868 211.568 121.586C210.53 120.959 209.461 120.384 208.365 119.865C207.316 119.369 206.293 118.949 205.326 118.609C204.842 118.434 204.358 118.258 203.919 118.138C203.826 118.104 203.727 118.091 203.629 118.102C203.531 118.113 203.436 118.147 203.354 118.201C203.294 118.266 203.257 118.349 203.25 118.436C203.243 118.524 203.267 118.612 203.316 118.685C203.537 119.023 203.834 119.304 204.183 119.507C204.497 119.746 204.811 119.953 205.093 120.135C205.677 120.519 206.198 120.826 206.626 121.065C207.053 121.304 207.392 121.486 207.624 121.605C207.759 121.663 207.886 121.739 208.001 121.831Z" fill="black"/>
</g>
<path d="M231.732 93.8854L231.651 93.8163L221.069 87.5363L179.156 84.6035L178.792 89.8034L182.748 92.3154L178.566 93.1255L178.063 100.247L217.326 102.991C218.866 103.099 220.407 102.802 221.797 102.131L229.566 98.363C231.199 97.578 231.732 95.7568 231.732 93.8854Z" fill="#93CBFA"/>
<path opacity="0.3" d="M231.732 93.8854L231.651 93.8163L221.069 87.5363L179.156 84.6035L178.792 89.8034L182.748 92.3154L178.566 93.1255L178.063 100.247L217.326 102.991C218.866 103.099 220.407 102.802 221.797 102.131L229.566 98.363C230.289 97.873 230.87 97.201 231.25 96.4149C231.63 95.6288 231.797 94.7563 231.732 93.8854Z" fill="black"/>
<path d="M231.105 93.0437L222.702 86.569C221.758 85.8358 220.617 85.3987 219.424 85.313L179.339 82.5059L178.975 87.712L182.931 90.1863L178.749 90.9964L178.246 98.1179L218.275 100.925C219.33 100.998 220.387 100.795 221.339 100.335L230.829 95.7441C231.072 95.6242 231.281 95.4445 231.436 95.2217C231.591 94.9989 231.687 94.7404 231.714 94.4704C231.742 94.2004 231.7 93.9279 231.594 93.6783C231.487 93.4288 231.319 93.2104 231.105 93.0437Z" fill="#93CBFA"/>
<g opacity="0.2">
<path d="M179.916 98.3006C179.916 98.3006 179.916 98.2629 179.979 98.2064C180.043 98.1188 180.114 98.0368 180.192 97.9615C180.486 97.6643 180.825 97.4163 181.197 97.2267C182.601 96.6067 184.121 96.2941 185.656 96.3098C190.665 96.0023 195.693 96.2361 200.653 97.0069C203.56 97.4465 206.305 98.0934 208.766 98.6146C210.957 99.1104 213.173 99.4857 215.404 99.7387C216.908 99.9047 218.422 99.9488 219.932 99.8706C221 99.8141 221.59 99.7262 221.596 99.7638C221.457 99.8053 221.314 99.8327 221.169 99.8455C220.754 99.9188 220.334 99.9691 219.913 99.9962C218.397 100.135 216.871 100.135 215.354 99.9962C213.11 99.771 210.881 99.4166 208.678 98.9349C206.166 98.4262 203.466 97.7919 200.577 97.3523C195.638 96.5959 190.635 96.3329 185.643 96.5673C184.139 96.536 182.644 96.8072 181.247 97.3649C180.758 97.6056 180.308 97.9213 179.916 98.3006Z" fill="black"/>
<path d="M229.987 92.4229C229.96 92.6011 229.914 92.7759 229.849 92.9441C229.66 93.432 229.383 93.8811 229.032 94.2692C228.47 94.878 227.788 95.3635 227.029 95.6947C226.026 96.1087 224.968 96.3752 223.889 96.486C221.09 96.8086 218.272 96.9428 215.455 96.8879C212.284 96.8503 208.798 96.6116 205.149 96.2599L186.492 94.4576L180.84 93.8673L179.301 93.6914C179.123 93.6792 178.947 93.6519 178.773 93.6098C178.951 93.5931 179.13 93.5931 179.307 93.6098L180.852 93.7228L186.504 94.2064L205.175 95.9145C208.817 96.2474 212.29 96.4923 215.455 96.5425C218.258 96.613 221.062 96.504 223.851 96.216C224.927 96.1203 225.984 95.8729 226.991 95.4812C227.737 95.1763 228.411 94.7185 228.969 94.1373C229.425 93.6431 229.771 93.0591 229.987 92.4229Z" fill="black"/>
<path d="M214.029 90.4317C214.18 90.3317 214.337 90.2415 214.5 90.1617C214.967 89.9351 215.447 89.7359 215.938 89.5651C217.755 88.9521 219.686 88.7526 221.59 88.9811C222.231 89.0504 222.862 89.1872 223.474 89.3893C224.156 89.6054 224.759 90.0183 225.207 90.5762C225.453 90.8808 225.618 91.2424 225.687 91.6277C225.756 92.0129 225.727 92.4094 225.603 92.7805C225.244 93.5219 224.608 94.0925 223.832 94.3693C220.843 95.6253 217.238 95.9205 213.564 95.7383C212.641 95.6944 211.737 95.6504 210.839 95.5625C209.929 95.5094 209.043 95.2472 208.251 94.7963C207.86 94.5718 207.525 94.2601 207.274 93.8855C207.022 93.5108 206.86 93.0833 206.801 92.636C206.754 91.7696 207.05 90.9196 207.623 90.2685C208.154 89.6752 208.794 89.1892 209.507 88.8366C210.179 88.4849 210.851 88.2086 211.511 87.9072C212.727 87.4043 213.989 87.0174 215.279 86.7517C217.157 86.3649 219.086 86.2969 220.987 86.5507C221.503 86.6135 222.014 86.7058 222.519 86.827C222.699 86.8597 222.876 86.9081 223.047 86.9715C222.865 86.955 222.685 86.9278 222.507 86.8898C222.161 86.827 221.64 86.7454 220.975 86.6763C219.086 86.4774 217.179 86.5792 215.323 86.9777C214.046 87.2571 212.797 87.6523 211.592 88.1584C210.964 88.441 210.273 88.7424 209.614 89.0878C208.936 89.4298 208.329 89.8963 207.824 90.4631C207.305 91.0521 207.037 91.8206 207.077 92.6046C207.134 93.0049 207.283 93.3865 207.511 93.7198C207.74 94.0532 208.043 94.3292 208.396 94.5263C209.145 94.9476 209.98 95.1925 210.839 95.2422C211.724 95.3239 212.635 95.3678 213.552 95.4118C217.2 95.5939 220.761 95.3301 223.675 94.093C224.381 93.8523 224.964 93.3452 225.301 92.68C225.412 92.3537 225.439 92.0046 225.379 91.6653C225.318 91.3259 225.173 91.0074 224.956 90.7395C224.546 90.2198 223.991 89.8331 223.361 89.6279C222.773 89.4229 222.164 89.2839 221.546 89.2134C219.665 88.9625 217.751 89.1232 215.938 89.6844C215.31 89.8854 214.82 90.0926 214.494 90.2245C214.344 90.3056 214.189 90.3749 214.029 90.4317Z" fill="black"/>
<path d="M179.106 84.8553C179.239 84.851 179.372 84.8637 179.502 84.893C179.879 84.9555 180.248 85.0522 180.607 85.1819C181.922 85.6772 183.144 86.3929 184.218 87.2982C185.619 88.3847 187.088 89.917 189.041 91.1604C191.199 92.4625 193.718 93.0351 196.226 92.7932C198.743 92.5729 201.199 91.894 203.473 90.7899C205.328 89.8889 207.131 88.8846 208.874 87.7818C210.381 86.8649 211.618 86.1427 212.491 85.6843C212.931 85.4519 213.276 85.2824 213.508 85.1756C213.625 85.1084 213.749 85.0556 213.879 85.0186C213.774 85.1022 213.66 85.1738 213.54 85.2321L212.554 85.7973C211.7 86.2872 210.488 87.0533 208.999 87.9828C207.264 89.1158 205.463 90.1434 203.605 91.06C201.311 92.1951 198.825 92.8936 196.276 93.1198C194.953 93.2205 193.621 93.1253 192.326 92.8372C191.115 92.5683 189.96 92.0879 188.916 91.4179C186.925 90.1619 185.474 88.5794 184.105 87.4804C183.059 86.5709 181.874 85.8352 180.595 85.3012C180.107 85.1254 179.61 84.9765 179.106 84.8553Z" fill="black"/>
<path d="M193.425 86.4253C193.556 86.4128 193.689 86.4128 193.82 86.4253C194.078 86.4253 194.448 86.4819 194.951 86.507C195.453 86.5321 196.044 86.551 196.741 86.5384C197.092 86.5384 197.463 86.5384 197.858 86.4882C198.261 86.496 198.66 86.4145 199.027 86.2495C199.108 86.2151 199.174 86.1539 199.215 86.0761C199.257 85.9984 199.27 85.9088 199.253 85.8225C199.215 85.6592 199.027 85.5399 198.813 85.4645C198.373 85.3326 197.871 85.2259 197.375 85.1128C196.364 84.893 195.277 84.7046 194.122 84.5602C192.966 84.4157 191.754 84.3341 190.492 84.309C189.875 84.2461 189.251 84.3367 188.677 84.5727C188.546 84.6316 188.429 84.7183 188.335 84.8267C188.241 84.9351 188.171 85.0627 188.131 85.2007C188.098 85.342 188.096 85.4887 188.125 85.6307C188.155 85.7727 188.214 85.9067 188.3 86.0234C188.701 86.5222 189.21 86.9237 189.789 87.1978C190.344 87.5135 190.924 87.7844 191.522 88.0079C192.647 88.4408 193.826 88.7197 195.026 88.8369C197.071 89.0277 199.132 88.7351 201.042 87.9828C202.33 87.4723 203.533 86.7693 204.609 85.8978C205.376 85.2698 205.746 84.8805 205.765 84.8993C205.784 84.9182 205.69 85.0123 205.514 85.207C205.269 85.4987 205.007 85.7755 204.729 86.036C203.407 87.1832 201.868 88.0525 200.203 88.592C198.538 89.1315 196.782 89.3301 195.039 89.176C193.807 89.0669 192.597 88.7901 191.44 88.3533C190.829 88.1248 190.236 87.8476 189.669 87.5243C189.045 87.2367 188.496 86.8065 188.068 86.2683C187.956 86.1134 187.879 85.936 187.842 85.7485C187.805 85.561 187.81 85.3677 187.854 85.1819C187.907 85.0011 187.998 84.8339 188.122 84.6919C188.246 84.5498 188.399 84.4363 188.57 84.3592C189.191 84.1004 189.866 83.999 190.536 84.0641C191.761 84.0891 192.983 84.1814 194.197 84.3404C195.359 84.4911 196.458 84.6921 197.469 84.9244C197.984 85.0437 198.455 85.1505 198.939 85.3012C199.072 85.3365 199.194 85.4035 199.296 85.4964C199.398 85.5894 199.476 85.7055 199.523 85.835C199.551 85.9715 199.533 86.1134 199.471 86.2385C199.41 86.3635 199.309 86.4646 199.184 86.5258C198.789 86.702 198.359 86.7858 197.928 86.7707C197.526 86.7707 197.149 86.7707 196.797 86.7707C196.094 86.7707 195.491 86.7268 195.001 86.6828C194.511 86.6389 194.128 86.5886 193.871 86.5447C193.717 86.5272 193.567 86.487 193.425 86.4253Z" fill="black"/>
</g>
<path d="M171.821 65.8575L184.632 73.72L226.614 72.2128L226.432 67.0004L222.237 64.9469L226.313 63.7034L226.055 56.5693L184.344 58.064L171.821 65.8575Z" fill="#93CBFA"/>
<path opacity="0.3" d="M171.821 65.8575L184.632 73.72L226.614 72.2128L226.432 67.0004L222.237 64.9469L226.313 63.7034L226.055 56.5693L184.344 58.064L171.821 65.8575Z" fill="black"/>
<path d="M170.565 67.3647L179.608 72.91C180.626 73.5367 181.806 73.8471 183 73.8017L223.154 72.3636L222.966 67.1512L218.771 65.1039L222.846 63.8479L222.595 56.7139L182.497 58.1583C181.438 58.1953 180.408 58.5092 179.508 59.0689L170.559 64.6392C170.327 64.7832 170.135 64.9842 170.003 65.223C169.87 65.4618 169.801 65.7306 169.802 66.0037C169.802 66.2769 169.873 66.5453 170.007 66.7835C170.14 67.0218 170.332 67.2218 170.565 67.3647Z" fill="#93CBFA"/>
<g opacity="0.2">
<path d="M220.893 56.7334C220.88 56.7699 220.861 56.8039 220.837 56.8339C220.783 56.9268 220.723 57.0151 220.654 57.0976C220.392 57.4241 220.081 57.708 219.731 57.9392C218.4 58.6989 216.923 59.1696 215.398 59.3208C210.448 60.1535 205.422 60.4525 200.408 60.2125C197.469 60.0806 194.693 59.7227 192.168 59.4652C189.938 59.2013 187.695 59.0567 185.449 59.0319C183.937 59.0243 182.427 59.1398 180.933 59.3773C179.878 59.5468 179.301 59.6976 179.288 59.6599C179.424 59.6104 179.562 59.5685 179.703 59.5343C179.979 59.4652 180.381 59.3459 180.908 59.2517C182.405 58.9654 183.925 58.8141 185.449 58.7995C187.704 58.7853 189.958 58.9006 192.2 59.1449C194.712 59.3898 197.5 59.7352 200.42 59.8671C205.414 60.1003 210.419 59.8332 215.36 59.0696C216.864 58.9422 218.326 58.5151 219.662 57.8136C220.124 57.5165 220.539 57.1525 220.893 56.7334Z" fill="black"/>
<path d="M171.721 67.8678C171.725 67.6871 171.753 67.5077 171.802 67.334C171.938 66.8296 172.166 66.3548 172.474 65.9335C172.966 65.266 173.593 64.7096 174.314 64.3007C175.275 63.7813 176.305 63.4028 177.373 63.1766C180.12 62.5765 182.904 62.1569 185.706 61.9206C188.846 61.6255 192.363 61.4936 196.024 61.4371L214.776 61.2298H220.46H222.005C222.184 61.2151 222.365 61.2151 222.545 61.2298C222.366 61.259 222.186 61.2737 222.005 61.2738L220.46 61.3177L214.808 61.4371L196.062 61.7071C192.401 61.7636 188.922 61.8829 185.769 62.1655C182.963 62.4116 180.176 62.8332 177.423 63.4278C176.371 63.6379 175.354 63.9952 174.402 64.4891C173.693 64.872 173.07 65.3981 172.575 66.034C172.163 66.5778 171.872 67.2029 171.721 67.8678Z" fill="black"/>
<path d="M187.773 68.138C187.636 68.2579 187.489 68.3651 187.333 68.4583C186.894 68.7375 186.437 68.9872 185.964 69.2056C184.217 70.0119 182.311 70.4154 180.387 70.3862C179.754 70.3812 179.123 70.3118 178.503 70.179C177.805 70.0355 177.164 69.688 176.663 69.1805C176.386 68.903 176.184 68.5602 176.074 68.1838C175.964 67.8073 175.951 67.4093 176.035 67.0264C176.315 66.2518 176.888 65.618 177.63 65.2617C180.463 63.6729 184.024 63.026 187.678 62.8125C188.602 62.7623 189.506 62.712 190.41 62.6995C191.32 62.658 192.227 62.8278 193.06 63.1956C193.474 63.3768 193.84 63.6505 194.131 63.9957C194.421 64.3409 194.629 64.7483 194.737 65.1864C194.874 66.0441 194.669 66.9213 194.166 67.6293C193.698 68.274 193.112 68.8239 192.439 69.2495C191.811 69.6766 191.183 70.0408 190.555 70.3862C189.392 71.0171 188.173 71.5365 186.912 71.9374C185.086 72.5163 183.176 72.788 181.26 72.7412C180.742 72.7317 180.224 72.694 179.709 72.6282C179.529 72.6167 179.35 72.5873 179.175 72.5402C179.355 72.5277 179.536 72.5277 179.715 72.5402C180.067 72.5402 180.588 72.5968 181.26 72.5968C183.157 72.5922 185.041 72.2891 186.843 71.6987C188.085 71.2897 189.286 70.764 190.429 70.1287C191.057 69.7833 191.685 69.4128 192.313 68.992C192.954 68.5848 193.51 68.0582 193.952 67.4409C194.403 66.7984 194.588 66.0061 194.467 65.2303C194.367 64.839 194.179 64.4758 193.917 64.1687C193.654 63.8617 193.325 63.619 192.954 63.4594C192.162 63.1191 191.303 62.9644 190.442 63.0072C189.556 63.0072 188.646 63.07 187.729 63.1203C184.08 63.3338 180.57 63.968 177.8 65.5066C177.121 65.8173 176.593 66.384 176.331 67.0829C176.257 67.4181 176.27 67.7663 176.366 68.0955C176.463 68.4247 176.641 68.7243 176.883 68.9669C177.346 69.441 177.938 69.7686 178.585 69.9089C179.191 70.0486 179.81 70.1223 180.431 70.1287C182.328 70.1767 184.213 69.8147 185.958 69.0674C186.43 68.8617 186.891 68.6312 187.339 68.3766C187.479 68.2881 187.623 68.2084 187.773 68.138Z" fill="black"/>
<path d="M223.116 70.0215C222.984 70.0339 222.852 70.0339 222.72 70.0215C222.339 69.9989 221.961 69.9421 221.59 69.8519C220.228 69.497 218.937 68.913 217.772 68.1249C216.264 67.1955 214.632 65.8265 212.572 64.7965C210.289 63.7295 207.724 63.4256 205.256 63.9299C202.786 64.4196 200.426 65.3537 198.291 66.6868C196.541 67.779 194.853 68.9678 193.236 70.2476C191.835 71.3215 190.68 72.1693 189.857 72.7156C189.449 72.9919 189.122 73.1992 188.902 73.3436C188.792 73.4198 188.674 73.485 188.551 73.5383C188.647 73.4443 188.752 73.3602 188.865 73.2871L189.788 72.6214C190.586 72.0437 191.71 71.1707 193.091 70.078C194.692 68.7667 196.369 67.5524 198.115 66.4419C200.276 65.0741 202.671 64.1181 205.18 63.6222C206.487 63.3797 207.822 63.3331 209.143 63.484C210.376 63.6279 211.574 63.9849 212.685 64.5391C214.795 65.6067 216.403 67.0008 217.878 67.9428C219.025 68.7243 220.289 69.3199 221.621 69.7075C222.57 69.9838 223.122 69.9838 223.116 70.0215Z" fill="black"/>
<path d="M208.697 69.9714C208.565 69.9794 208.433 69.9794 208.301 69.9714C208.044 69.9714 207.673 69.9714 207.171 70.0091C206.669 70.0467 206.078 70.0844 205.388 70.1723C205.042 70.2163 204.672 70.2728 204.282 70.3419C203.881 70.3727 203.492 70.4952 203.146 70.6999C203.069 70.7421 203.009 70.8095 202.976 70.8906C202.943 70.9717 202.938 71.0618 202.963 71.1457C203.013 71.2309 203.082 71.3032 203.165 71.3566C203.248 71.4101 203.343 71.4433 203.441 71.4535C203.887 71.5414 204.402 71.5979 204.91 71.6544C205.934 71.7675 207.039 71.8428 208.195 71.8554C209.41 71.8776 210.626 71.8357 211.837 71.7298C212.457 71.7237 213.067 71.5686 213.614 71.2776C213.738 71.205 213.844 71.107 213.926 70.99C214.009 70.8731 214.065 70.7399 214.092 70.5994C214.107 70.4558 214.093 70.3105 214.048 70.173C214.004 70.0356 213.931 69.9091 213.834 69.8018C213.384 69.348 212.836 69.0023 212.233 68.7907C211.647 68.5348 211.042 68.3248 210.424 68.1627C209.259 67.8527 208.057 67.7007 206.851 67.7106C204.797 67.734 202.778 68.244 200.96 69.1989C199.733 69.8388 198.61 70.6626 197.632 71.6419C196.941 72.3389 196.608 72.7785 196.583 72.7597C196.648 72.6421 196.724 72.5307 196.809 72.4269C197.034 72.1217 197.278 71.8302 197.538 71.5539C198.733 70.2762 200.173 69.2511 201.771 68.5392C203.37 67.8273 205.095 67.443 206.845 67.4091C208.079 67.3884 209.311 67.5363 210.506 67.8487C211.138 68.0109 211.758 68.2209 212.358 68.4767C213.012 68.707 213.603 69.0853 214.085 69.582C214.213 69.7236 214.309 69.8913 214.365 70.0735C214.421 70.2557 214.437 70.448 214.412 70.6371C214.382 70.8245 214.31 71.0026 214.201 71.1582C214.092 71.3137 213.95 71.4426 213.784 71.5351C213.191 71.8554 212.53 72.0278 211.856 72.0375C210.636 72.1406 209.412 72.1763 208.188 72.1443C207.014 72.1443 205.903 72.0375 204.873 71.9119C204.351 71.8428 203.868 71.7863 203.372 71.6858C203.237 71.6644 203.11 71.611 203.001 71.5301C202.892 71.4492 202.803 71.3432 202.744 71.2211C202.702 71.0878 202.706 70.9445 202.755 70.8137C202.804 70.6829 202.895 70.5721 203.014 70.4989C203.396 70.2748 203.827 70.1456 204.27 70.1221C204.659 70.0593 205.036 70.0153 205.388 69.9777C206.085 69.9086 206.688 69.8772 207.184 69.8709C207.68 69.8646 208.063 69.8709 208.32 69.8709C208.45 69.8864 208.577 69.9202 208.697 69.9714Z" fill="black"/>
</g>
<path d="M280.528 155.744C280.528 155.832 225.716 155.908 158.118 155.908C90.5203 155.908 35.7021 155.801 35.7021 155.744C35.7021 155.688 90.5014 155.581 158.118 155.581C225.735 155.581 280.528 155.619 280.528 155.744Z" fill="#263238"/>
<path d="M42.1829 258.353C42.1264 258.353 41.9003 257.424 41.4419 255.935C40.8403 253.999 40.0972 252.11 39.2188 250.283C38.3367 248.456 37.3208 246.697 36.1792 245.021C35.3 243.733 34.7034 242.967 34.7474 242.936C34.9227 243.08 35.0807 243.245 35.2184 243.425C35.5073 243.758 35.9029 244.254 36.3676 244.889C37.57 246.543 38.6209 248.302 39.5076 250.145C40.3985 251.986 41.1175 253.905 41.6554 255.879C41.8626 256.639 42.0071 257.254 42.0824 257.687C42.141 257.905 42.1748 258.128 42.1829 258.353Z" fill="#263238"/>
<path d="M46.3149 261.06C46.2333 261.06 44.6445 255.81 42.7793 249.278C40.9141 242.747 39.4697 237.428 39.5639 237.384C39.6581 237.34 41.2344 242.634 43.0996 249.165C44.9647 255.697 46.4028 261.035 46.3149 261.06Z" fill="#263238"/>
<path d="M49.6935 246.904C49.6561 247.62 49.5743 248.334 49.4485 249.039C49.279 250.352 49.0843 252.18 48.9775 254.189C48.8708 256.199 48.8645 258.032 48.8959 259.358C48.9348 260.073 48.9348 260.79 48.8959 261.505C48.8292 261.322 48.7931 261.129 48.7891 260.934C48.7389 260.563 48.6949 260.029 48.651 259.364C48.5486 257.634 48.5486 255.9 48.651 254.17C48.7419 252.44 48.9327 250.716 49.2225 249.008C49.3355 248.349 49.4423 247.821 49.5302 247.463C49.5609 247.271 49.6158 247.083 49.6935 246.904Z" fill="#263238"/>
<path d="M228.887 139.171C228.975 139.171 230.112 142.832 231.399 147.404C232.687 151.976 233.71 155.706 233.629 155.731C233.547 155.756 232.404 152.07 231.085 147.498C229.767 142.926 228.799 139.196 228.887 139.171Z" fill="#263238"/>
<path d="M236.348 140.339C236.399 140.339 236.16 141.193 235.89 142.575C235.533 144.367 235.323 146.186 235.262 148.013C235.21 149.839 235.309 151.667 235.557 153.477C235.745 154.871 235.934 155.719 235.877 155.731C235.789 155.546 235.725 155.349 235.689 155.147C235.542 154.609 235.422 154.064 235.331 153.514C234.691 149.867 234.805 146.127 235.664 142.524C235.787 141.979 235.938 141.44 236.116 140.91C236.162 140.709 236.241 140.516 236.348 140.339Z" fill="#263238"/>
<path d="M240.989 143.271C241.033 143.303 240.599 143.899 240.003 144.979C239.23 146.355 238.599 147.804 238.119 149.306C237.654 150.813 237.347 152.364 237.202 153.935C237.089 155.147 237.095 155.9 237.038 155.9C236.988 155.729 236.964 155.551 236.969 155.373C236.944 154.89 236.944 154.405 236.969 153.922C237.134 150.712 238.106 147.595 239.795 144.86C240.05 144.448 240.327 144.05 240.624 143.667C240.844 143.403 240.97 143.259 240.989 143.271Z" fill="#263238"/>
<path d="M199.974 199.232C199.641 197.976 200.483 196.658 201.431 195.728C202.38 194.799 203.504 193.957 203.993 192.726C204.791 190.723 203.723 188.136 205.08 186.446C205.877 185.467 207.316 185.14 208.025 184.091C208.35 183.508 208.563 182.869 208.653 182.207C209.409 178.886 211.042 175.828 213.382 173.353C213.532 176.315 212.881 179.263 211.498 181.887C210.855 182.881 210.379 183.973 210.091 185.121C209.79 187.005 210.851 188.983 210.387 190.842C209.853 192.978 207.454 194.403 207.341 196.601C207.247 198.485 208.867 200.086 208.747 201.939C208.648 202.729 208.364 203.484 207.918 204.143C206.48 206.53 204.377 208.175 201.18 208.119L197.268 208.257L199.974 199.232Z" fill="#93CBFA"/>
<g opacity="0.3">
<path d="M199.974 199.232C199.641 197.976 200.483 196.658 201.431 195.728C202.38 194.799 203.504 193.957 203.993 192.726C204.791 190.723 203.723 188.136 205.08 186.446C205.877 185.467 207.316 185.14 208.025 184.091C208.35 183.508 208.563 182.869 208.653 182.207C209.409 178.886 211.042 175.828 213.382 173.353C213.532 176.315 212.881 179.263 211.498 181.887C210.855 182.881 210.379 183.973 210.091 185.121C209.79 187.005 210.851 188.983 210.387 190.842C209.853 192.978 207.454 194.403 207.341 196.601C207.247 198.485 208.867 200.086 208.747 201.939C208.648 202.729 208.364 203.484 207.918 204.143C206.48 206.53 204.377 208.175 201.18 208.119L197.268 208.257L199.974 199.232Z" fill="black"/>
</g>
<path d="M196.507 208.396C196.152 208.457 195.789 208.457 195.434 208.396C195.006 208.328 194.585 208.221 194.178 208.075C193.612 207.874 193.082 207.584 192.608 207.215C192.331 206.982 192.115 206.684 191.98 206.348C191.863 205.97 191.802 205.576 191.797 205.18C191.787 204.76 191.756 204.341 191.703 203.924C191.629 203.478 191.467 203.051 191.226 202.668C190.768 201.858 190.001 201.092 189.75 199.993C189.561 198.852 189.597 197.685 189.857 196.558C190.141 195.346 190.111 194.081 189.769 192.884C189.348 191.659 188.513 190.554 188.061 189.172C187.609 187.791 187.828 186.277 187.741 184.776C187.713 184.026 187.54 183.288 187.232 182.604C186.912 181.906 186.472 181.253 186.133 180.525C185.436 179.049 185.316 177.385 185.122 175.746C185.034 174.917 184.94 174.082 184.845 173.234C184.788 172.383 184.641 171.541 184.406 170.722C184.143 169.896 183.83 169.086 183.47 168.298C183.285 167.892 183.134 167.472 183.018 167.042C182.952 166.596 182.91 166.148 182.892 165.698C182.851 164.794 182.884 163.889 182.993 162.991C183.1 162.087 183.263 161.189 183.363 160.284V160.127V159.945L183.52 160.027C184.35 160.45 185.072 161.058 185.63 161.804C186.172 162.535 186.607 163.338 186.924 164.191C187.484 165.861 187.892 167.578 188.142 169.321C188.389 170.982 188.933 172.584 189.75 174.05C190.177 174.747 190.698 175.388 191.151 176.066C191.639 176.726 191.971 177.489 192.124 178.295C192.356 179.953 191.446 181.404 191.634 182.874C191.725 183.593 191.969 184.285 192.35 184.902C192.702 185.53 193.123 186.108 193.518 186.692C193.923 187.261 194.274 187.867 194.567 188.5C194.843 189.12 195.007 189.783 195.05 190.46C195.145 191.779 194.956 193.035 195.05 194.228C195.154 195.353 195.481 196.446 196.011 197.443C196.489 198.41 197.016 199.277 197.456 200.125C197.676 200.546 197.883 200.96 198.046 201.381C198.204 201.786 198.32 202.207 198.391 202.637C198.511 203.376 198.522 204.13 198.423 204.872C198.321 205.909 197.932 206.897 197.299 207.724C197.203 207.847 197.098 207.962 196.985 208.069C196.906 208.148 196.82 208.22 196.727 208.282C196.583 208.389 196.501 208.439 196.501 208.439C196.785 208.223 197.04 207.972 197.261 207.692C197.866 206.862 198.232 205.883 198.322 204.86C198.411 204.129 198.394 203.388 198.272 202.662C198.2 202.247 198.084 201.841 197.927 201.45C197.751 201.021 197.551 200.601 197.33 200.194C196.884 199.359 196.357 198.492 195.873 197.525C195.325 196.509 194.984 195.395 194.868 194.247C194.768 193.041 194.95 191.785 194.868 190.479C194.825 189.828 194.665 189.19 194.397 188.595C194.108 187.972 193.759 187.379 193.355 186.824C192.959 186.246 192.538 185.662 192.174 185.021C191.779 184.379 191.524 183.66 191.427 182.911C191.239 181.348 192.143 179.884 191.91 178.346C191.759 177.573 191.438 176.843 190.968 176.211C190.523 175.545 190.001 174.904 189.562 174.188C188.724 172.699 188.166 171.069 187.916 169.378C187.664 167.652 187.258 165.952 186.704 164.297C186.398 163.467 185.975 162.685 185.448 161.974C184.916 161.257 184.227 160.673 183.432 160.266L183.608 160.165V160.322C183.508 161.239 183.345 162.137 183.238 163.029C183.129 163.914 183.096 164.807 183.137 165.698C183.154 166.135 183.194 166.571 183.257 167.004C183.368 167.422 183.515 167.83 183.696 168.222C184.055 169.021 184.37 169.838 184.638 170.672C184.873 171.504 185.02 172.358 185.078 173.221C185.172 174.063 185.266 174.898 185.354 175.733C185.543 177.379 185.668 179.024 186.334 180.45C186.667 181.153 187.106 181.812 187.433 182.528C187.751 183.239 187.928 184.005 187.954 184.783C188.042 186.29 187.841 187.766 188.249 189.103C188.657 190.441 189.505 191.546 189.945 192.815C190.294 194.043 190.322 195.341 190.026 196.583C189.768 197.686 189.725 198.829 189.901 199.949C190.127 200.998 190.868 201.758 191.339 202.593C191.583 202.993 191.749 203.437 191.829 203.899C191.879 204.316 191.906 204.735 191.91 205.155C191.91 205.542 191.965 205.927 192.074 206.298C192.214 206.619 192.429 206.901 192.702 207.121C193.163 207.489 193.68 207.779 194.234 207.981C194.641 208.134 195.062 208.25 195.49 208.326C195.754 208.372 196.02 208.398 196.288 208.402L196.507 208.396Z" fill="#263238"/>
<path d="M184.143 162.281C184.161 162.319 184.174 162.359 184.18 162.401C184.18 162.495 184.231 162.614 184.268 162.752C184.344 163.06 184.438 163.531 184.582 164.109C184.727 164.686 185.091 165.365 185.392 166.156C185.753 167.064 186.066 167.99 186.328 168.932C186.623 169.974 186.887 171.136 187.163 172.373C187.403 173.7 187.826 174.987 188.419 176.198C188.74 176.826 189.098 177.454 189.386 178.182C189.668 178.905 189.858 179.66 189.952 180.43C190.15 182.022 190.43 183.603 190.793 185.166C191.578 188.368 192.325 191.446 193.01 194.209L194.894 201.581C195.409 203.673 195.83 205.349 196.15 206.562C196.288 207.139 196.395 207.591 196.47 207.918L196.546 208.276C196.546 208.351 196.546 208.395 196.546 208.395C196.529 208.359 196.514 208.321 196.502 208.282L196.401 207.931C196.313 207.604 196.194 207.158 196.037 206.587L194.731 201.625C194.184 199.528 193.537 197.035 192.847 194.265C192.156 191.496 191.402 188.425 190.611 185.216C190.245 183.648 189.964 182.061 189.769 180.462C189.683 179.711 189.501 178.975 189.229 178.27C188.953 177.586 188.601 176.945 188.275 176.304C187.677 175.076 187.255 173.769 187.019 172.423C186.749 171.167 186.498 170.018 186.209 168.976C185.92 167.933 185.625 167.01 185.323 166.206C185.022 165.402 184.695 164.737 184.544 164.134C184.394 163.531 184.337 163.079 184.274 162.765C184.274 162.62 184.23 162.501 184.212 162.407C184.181 162.37 184.157 162.327 184.143 162.281Z" fill="#263238"/>
<path d="M195.817 208.408C193.261 206.888 192.526 202.279 193.594 199.503C194.662 196.727 196.527 194.184 196.816 191.226C197.035 188.952 196.294 186.616 196.816 184.393C197.531 181.391 200.464 179.061 200.427 175.978C200.427 174.245 199.422 172.618 199.503 170.891C199.598 168.769 201.224 167.085 202.235 165.239C203.78 162.382 203.881 158.997 204.408 155.819C204.936 152.641 206.16 149.175 208.999 147.599C209.42 150.318 210.135 152.183 209.916 155.876C209.834 157.201 208.295 159.738 208.082 162.639C207.956 164.373 207.875 166.112 207.768 167.852C207.749 169.546 207.471 171.227 206.945 172.838C206.48 174.05 205.739 175.155 205.394 176.405C204.766 178.76 205.595 181.303 205.074 183.69C204.628 185.712 203.234 187.458 202.945 189.499C202.543 192.375 204.408 195.364 203.454 198.109C202.983 199.471 201.858 200.564 201.57 201.971C201.318 203.064 201.57 204.219 201.362 205.318C201.004 207.083 197.638 208.458 195.836 208.345" fill="#93CBFA"/>
<path d="M208.301 150.249C208.308 150.301 208.308 150.354 208.301 150.406C208.301 150.519 208.27 150.664 208.245 150.852C208.188 151.248 208.119 151.825 207.987 152.566C207.855 153.307 207.46 154.168 207.152 155.185C206.844 156.202 206.524 157.371 206.21 158.683C205.896 159.996 205.676 161.453 205.419 163.01C205.213 164.694 204.773 166.34 204.112 167.902C203.748 168.718 203.346 169.541 203.045 170.414C202.752 171.309 202.57 172.238 202.505 173.177C202.362 175.176 202.112 177.165 201.757 179.137C200.972 183.169 200.231 187.012 199.547 190.51C198.862 194.008 198.19 197.136 197.663 199.779C197.135 202.423 196.67 204.527 196.363 206.022C196.206 206.744 196.08 207.309 195.992 207.711C195.955 207.893 195.917 208.038 195.892 208.151C195.883 208.203 195.869 208.253 195.848 208.301C195.844 208.251 195.844 208.201 195.848 208.151C195.848 208.031 195.892 207.887 195.923 207.705C196.005 207.297 196.112 206.725 196.243 205.997C196.539 204.502 196.959 202.373 197.499 199.717C198.04 197.06 198.649 193.926 199.346 190.441C200.043 186.956 200.759 183.1 201.538 179.068C201.892 177.104 202.142 175.123 202.285 173.133C202.354 172.174 202.542 171.227 202.844 170.314C203.158 169.422 203.566 168.599 203.924 167.802C204.585 166.261 205.027 164.635 205.236 162.972C205.506 161.409 205.758 159.958 206.065 158.639C206.331 157.455 206.656 156.286 207.039 155.135C207.365 154.111 207.767 153.251 207.918 152.541C208.069 151.832 208.144 151.229 208.219 150.839L208.301 150.393V150.249Z" fill="#263238"/>
<path d="M250.874 267.283C251.484 267.574 252.03 267.985 252.478 268.492C252.926 269 253.267 269.592 253.48 270.234C253.898 271.524 254.017 272.892 253.825 274.235C253.53 276.828 252.061 279.447 250.472 281.526C248.286 279.642 247.784 276.288 247.633 274.586C247.395 271.892 248.607 266.881 250.874 267.283Z" fill="#93CBFA"/>
<path d="M253.009 285.809C252.861 285.067 252.911 284.299 253.155 283.582C253.399 282.866 253.827 282.226 254.396 281.727C254.975 281.241 255.644 280.874 256.365 280.649C257.086 280.423 257.845 280.344 258.598 280.415C258.947 280.412 259.293 280.484 259.612 280.627C259.93 280.77 260.214 280.981 260.444 281.244C260.614 281.529 260.703 281.854 260.703 282.186C260.703 282.517 260.614 282.843 260.444 283.128C260.114 283.694 259.639 284.162 259.069 284.484C257.185 285.671 255.125 286.475 252.983 285.834" fill="#93CBFA"/>
<path d="M250.208 293.766C250.219 293.586 250.244 293.408 250.283 293.232L250.547 291.788C250.795 290.184 251.297 288.629 252.035 287.184C252.806 285.742 253.946 284.53 255.339 283.674C255.764 283.424 256.217 283.223 256.689 283.077C256.816 283.036 256.946 283.005 257.078 282.983C257.124 282.974 257.171 282.974 257.216 282.983C256.585 283.19 255.979 283.466 255.408 283.806C254.063 284.681 252.962 285.882 252.205 287.297C251.476 288.728 250.962 290.257 250.679 291.838C250.547 292.466 250.44 292.93 250.359 293.263C250.325 293.435 250.274 293.603 250.208 293.766Z" fill="#263238"/>
<path d="M250.29 271.183C250.301 271.26 250.301 271.338 250.29 271.415C250.29 271.585 250.29 271.811 250.334 272.081C250.334 272.665 250.397 273.506 250.428 274.542C250.497 276.621 250.547 279.497 250.535 282.675C250.522 285.853 250.447 288.723 250.359 290.801C250.315 291.838 250.277 292.685 250.24 293.263C250.24 293.533 250.208 293.759 250.196 293.929C250.194 294.007 250.184 294.085 250.164 294.161C250.157 294.084 250.157 294.006 250.164 293.929C250.164 293.753 250.164 293.533 250.164 293.257C250.164 292.629 250.202 291.819 250.227 290.795C250.277 288.716 250.334 285.846 250.346 282.669C250.359 279.491 250.346 276.627 250.296 274.549C250.296 273.525 250.265 272.665 250.258 272.087V271.415C250.259 271.337 250.27 271.258 250.29 271.183Z" fill="#263238"/>
<path d="M249.228 287.385C248.963 285.814 248.329 284.328 247.376 283.051C246.424 281.773 245.182 280.741 243.752 280.038C243.017 279.686 242.063 279.454 241.466 280C240.869 280.546 241.001 281.52 241.29 282.273C241.929 283.845 243.019 285.193 244.423 286.145C245.827 287.097 247.481 287.612 249.178 287.624" fill="#93CBFA"/>
<path d="M244.104 282.493C244.264 282.55 244.419 282.62 244.569 282.7C244.747 282.783 244.921 282.875 245.09 282.977C245.285 283.102 245.523 283.222 245.756 283.397C246.021 283.574 246.277 283.765 246.522 283.969C246.804 284.202 247.075 284.449 247.332 284.71C247.919 285.31 248.437 285.973 248.877 286.688C249.302 287.413 249.644 288.184 249.894 288.987C249.995 289.364 250.095 289.715 250.152 290.054C250.214 290.368 250.258 290.684 250.283 291.003C250.298 291.264 250.298 291.526 250.283 291.788C250.297 291.986 250.297 292.186 250.283 292.384C250.28 292.553 250.261 292.721 250.227 292.887C250.183 292.887 250.227 292.164 250.126 291.003C250.094 290.69 250.043 290.38 249.976 290.073C249.905 289.721 249.815 289.373 249.706 289.031C249.21 287.449 248.35 286.005 247.194 284.817C246.946 284.555 246.684 284.308 246.409 284.076C246.157 283.85 245.9 283.668 245.668 283.492C244.744 282.832 244.085 282.531 244.104 282.493Z" fill="#263238"/>
<path d="M231.732 247.91C231.692 248.016 231.64 248.117 231.575 248.211C231.449 248.437 231.286 248.713 231.085 249.046C230.884 249.379 230.602 249.844 230.319 250.371C230.036 250.899 229.691 251.477 229.346 252.149C228.642 253.467 227.876 255.088 227.104 256.909C226.284 258.898 225.565 260.927 224.95 262.988C224.322 265.186 223.844 267.315 223.486 269.268C223.128 271.221 222.927 272.998 222.808 274.493C222.733 275.24 222.708 275.918 222.67 276.509C222.632 277.099 222.613 277.62 222.601 278.041C222.588 278.462 222.601 278.751 222.601 279.008C222.605 279.12 222.592 279.232 222.563 279.341C222.539 279.232 222.529 279.12 222.532 279.008C222.532 278.751 222.532 278.43 222.532 278.035C222.532 277.639 222.532 277.099 222.532 276.502C222.532 275.906 222.532 275.246 222.626 274.474C222.747 272.712 222.956 270.958 223.254 269.218C223.621 267.087 224.103 264.978 224.698 262.9C225.316 260.829 226.048 258.793 226.89 256.802C227.681 254.968 228.473 253.361 229.207 252.042C229.559 251.376 229.917 250.786 230.225 250.283C230.533 249.781 230.803 249.335 231.041 248.983C231.28 248.632 231.437 248.399 231.588 248.186C231.738 247.972 231.732 247.903 231.732 247.91Z" fill="#263238"/>
<path d="M221.816 256.965C221.833 257.246 221.82 257.528 221.779 257.806C221.722 258.434 221.647 259.188 221.565 260.105C221.377 262.039 221.138 264.721 220.937 267.679C220.736 270.636 220.617 273.331 220.535 275.271L220.428 277.576C220.435 277.86 220.409 278.145 220.353 278.424C220.307 278.143 220.29 277.859 220.303 277.576C220.303 277.029 220.303 276.244 220.303 275.265C220.303 273.318 220.41 270.624 220.611 267.66C220.811 264.696 221.088 262.008 221.333 260.08C221.458 259.113 221.565 258.334 221.653 257.794C221.683 257.513 221.738 257.236 221.816 256.965Z" fill="#263238"/>
<path d="M212.189 265.179C212.356 265.291 212.508 265.424 212.641 265.574C213.032 265.959 213.401 266.366 213.746 266.793C214.891 268.201 215.839 269.758 216.566 271.421C217.292 273.083 217.786 274.837 218.036 276.633C218.115 277.177 218.163 277.724 218.18 278.272C218.206 278.481 218.206 278.692 218.18 278.9C218.123 278.9 218.067 278.053 217.828 276.696C217.203 273.161 215.748 269.825 213.583 266.962C212.735 265.838 212.145 265.216 212.189 265.179Z" fill="#263238"/>
<path d="M250.653 161.735C250.761 161.822 250.86 161.918 250.948 162.024L251.752 162.891L252.324 163.519C252.531 163.758 252.738 164.028 252.952 164.31C253.404 164.888 253.944 165.522 254.459 166.288L255.288 167.469C255.571 167.883 255.828 168.336 256.117 168.794C256.714 169.705 257.241 170.735 257.819 171.802C260.242 176.514 261.817 181.616 262.472 186.874C262.592 188.086 262.736 189.235 262.761 190.316C262.761 190.862 262.818 191.383 262.818 191.886V193.33C262.818 194.247 262.736 195.076 262.686 195.804C262.686 196.169 262.636 196.514 262.604 196.822C262.573 197.129 262.523 197.412 262.485 197.67C262.416 198.153 262.359 198.542 262.309 198.838C262.3 198.977 262.273 199.114 262.227 199.246C262.219 199.108 262.219 198.969 262.227 198.831C262.259 198.53 262.296 198.141 262.34 197.657C262.34 197.399 262.397 197.117 262.428 196.809C262.46 196.501 262.466 196.181 262.485 195.792C262.516 195.07 262.592 194.241 262.566 193.324V191.886C262.566 191.389 262.51 190.868 262.485 190.334C262.453 189.254 262.303 188.118 262.171 186.912C261.485 181.697 259.924 176.636 257.555 171.94C256.984 170.873 256.469 169.843 255.891 168.939C255.608 168.48 255.351 168.022 255.074 167.607C254.798 167.193 254.528 166.797 254.271 166.42C253.774 165.648 253.247 165.007 252.807 164.423C252.588 164.134 252.387 163.858 252.179 163.619L251.627 162.991L250.873 162.087C250.787 161.979 250.713 161.861 250.653 161.735Z" fill="#263238"/>
<path d="M269.412 174.132C269.355 174.45 269.273 174.763 269.167 175.068C268.985 175.696 268.733 176.525 268.438 177.58C266.901 183.166 266.007 188.91 265.776 194.699C265.732 195.81 265.707 196.708 265.694 197.33C265.706 197.653 265.689 197.977 265.644 198.297C265.587 197.98 265.562 197.658 265.568 197.336C265.568 196.708 265.524 195.81 265.568 194.693C265.669 188.872 266.569 183.092 268.244 177.517C268.57 176.449 268.872 175.595 269.073 175.005C269.159 174.704 269.273 174.412 269.412 174.132Z" fill="#263238"/>
<path d="M270.769 186.428C269.979 187.874 269.289 189.372 268.703 190.912C268.226 192.486 267.857 194.091 267.597 195.716C267.527 195.231 267.527 194.738 267.597 194.253C267.729 193.079 267.989 191.923 268.37 190.805C268.75 189.685 269.253 188.611 269.871 187.602C270.11 187.168 270.412 186.772 270.769 186.428Z" fill="#263238"/>
<path d="M91.4556 277.501L90.5952 297.892L79.5801 297.641L80.409 277.212L91.4556 277.501Z" fill="#93CBFA"/>
<path d="M85.1881 297.001C85.0939 297.001 85.2635 292.529 85.565 287.028C85.8664 281.527 86.193 277.068 86.2809 277.074C86.3688 277.081 86.2055 281.546 85.8978 287.047C85.5901 292.548 85.2761 297.007 85.1881 297.001Z" fill="#263238"/>
<path d="M90.6517 296.486L79.6429 296.203L79.5801 297.641L90.5952 297.892L90.6517 296.486Z" fill="#263238"/>
<path d="M79.8438 291.116C79.9206 290.955 80.0247 290.808 80.1515 290.683C80.4594 290.315 80.8023 289.979 81.1751 289.678C81.7319 289.226 82.3491 288.854 83.0089 288.572C84.1594 288.07 85.4411 287.951 86.6646 288.232C87.8882 288.514 88.9887 289.181 89.8038 290.136C90.1151 290.515 90.3671 290.938 90.5512 291.392C90.6325 291.551 90.6836 291.723 90.7019 291.901C90.3925 291.339 90.0308 290.807 89.6217 290.312C88.5768 289.176 87.1254 288.499 85.5837 288.428C84.0396 288.405 82.5344 288.913 81.3196 289.866C80.3838 290.576 79.8877 291.154 79.8438 291.116Z" fill="#263238"/>
<g opacity="0.3">
<path d="M80.17 283.027L80.082 285.276L91.116 285.47L91.1914 283.781L80.17 283.027Z" fill="black"/>
</g>
<path d="M117.373 278.719L116.839 291.134C116.839 291.134 129.274 295.844 129.399 298.149L105.303 297.973L105.347 278.6L117.373 278.719Z" fill="#93CBFA"/>
<path d="M109.555 290.08C109.32 290.148 109.119 290.3 108.99 290.508C108.861 290.716 108.814 290.964 108.858 291.204C108.919 291.44 109.068 291.644 109.275 291.774C109.482 291.904 109.73 291.949 109.969 291.901C110.217 291.828 110.429 291.665 110.563 291.445C110.698 291.224 110.746 290.962 110.698 290.708C110.658 290.583 110.594 290.468 110.509 290.368C110.424 290.269 110.319 290.187 110.202 290.129C110.085 290.07 109.958 290.036 109.827 290.027C109.696 290.019 109.565 290.037 109.442 290.08" fill="#E0E0E0"/>
<path d="M105.297 297.967V296.033L128.621 296.912C128.621 296.912 129.695 297.39 129.569 298.168L105.297 297.967Z" fill="#263238"/>
<path d="M117.052 291.21C117.052 291.329 116.456 291.38 115.872 291.756C115.288 292.133 114.974 292.629 114.861 292.579C114.747 292.529 114.936 291.851 115.652 291.405C116.368 290.959 117.084 291.103 117.052 291.21Z" fill="#263238"/>
<path d="M119.596 292.284C119.596 292.397 119.106 292.598 118.698 293.094C118.289 293.591 118.17 294.124 118.07 294.118C117.969 294.112 117.881 293.44 118.402 292.862C118.924 292.284 119.589 292.171 119.596 292.284Z" fill="#263238"/>
<path d="M121.016 295.342C120.909 295.342 120.746 294.771 121.06 294.124C121.374 293.477 121.92 293.226 121.97 293.326C122.021 293.427 121.675 293.766 121.43 294.3C121.185 294.833 121.135 295.329 121.016 295.342Z" fill="#263238"/>
<path d="M116.864 288.353C116.814 288.46 116.236 288.29 115.608 288.353C114.98 288.416 114.409 288.598 114.352 288.497C114.296 288.397 114.792 287.976 115.608 287.938C116.424 287.901 116.921 288.252 116.864 288.353Z" fill="#263238"/>
<path d="M117.316 285.678C116.917 285.788 116.496 285.788 116.098 285.678C115.665 285.593 115.243 285.459 114.842 285.276C114.6 285.168 114.367 285.042 114.145 284.899C114.009 284.822 113.886 284.724 113.78 284.61C113.704 284.526 113.657 284.418 113.648 284.305C113.639 284.191 113.668 284.077 113.73 283.982C113.789 283.898 113.867 283.829 113.957 283.782C114.048 283.735 114.149 283.711 114.251 283.712C114.407 283.716 114.561 283.739 114.71 283.781C114.969 283.846 115.221 283.934 115.464 284.045C115.873 284.234 116.25 284.486 116.581 284.792C117.14 285.313 117.329 285.759 117.285 285.784C117.241 285.809 116.958 285.445 116.393 285.012C116.06 284.759 115.697 284.548 115.313 284.384C115.087 284.291 114.854 284.215 114.616 284.158C114.358 284.089 114.138 284.089 114.076 284.202C114.013 284.315 114.076 284.265 114.076 284.34C114.152 284.422 114.241 284.492 114.339 284.547C114.541 284.683 114.751 284.807 114.967 284.918C115.344 285.108 115.737 285.264 116.142 285.382C116.54 285.453 116.932 285.552 117.316 285.678Z" fill="#263238"/>
<path d="M117.159 285.847C116.928 285.501 116.817 285.088 116.845 284.673C116.827 284.222 116.886 283.772 117.021 283.341C117.101 283.087 117.207 282.841 117.335 282.607C117.4 282.442 117.506 282.298 117.644 282.188C117.782 282.078 117.946 282.006 118.12 281.979C118.228 281.983 118.332 282.017 118.421 282.079C118.51 282.14 118.58 282.225 118.622 282.324C118.686 282.465 118.726 282.616 118.742 282.77C118.797 283.132 118.778 283.502 118.686 283.857C118.594 284.212 118.432 284.545 118.208 284.836C117.731 285.464 117.234 285.602 117.228 285.564C117.222 285.527 117.599 285.276 117.969 284.673C118.183 284.327 118.318 283.939 118.365 283.536C118.396 283.303 118.396 283.066 118.365 282.833C118.327 282.575 118.233 282.368 118.132 282.393C118.032 282.418 117.806 282.581 117.705 282.789C117.585 282.988 117.484 283.198 117.404 283.417C117.265 283.807 117.182 284.215 117.159 284.629C117.103 285.389 117.222 285.828 117.159 285.847Z" fill="#263238"/>
<g opacity="0.3">
<path d="M105.29 286.042L105.315 288.799H116.939V286.299L105.29 286.042Z" fill="black"/>
</g>
<path d="M98.6079 199.723L95.0471 234.05L92.4911 285.741H78.851L78.4805 175.728L117.536 178.51L125.631 236.229L118.622 286.752H103.657L107.155 238.716L98.6079 199.723Z" fill="#263238"/>
<path d="M98.5957 199.704C99.3991 200.657 100.288 201.533 101.252 202.323C102.138 203.197 103.101 203.989 104.128 204.69C103.328 203.737 102.441 202.86 101.478 202.072C100.591 201.197 99.6262 200.404 98.5957 199.704Z" fill="#455A64"/>
<path d="M98.6527 199.038C98.7081 197.572 98.6829 196.105 98.5773 194.642C98.5733 193.173 98.4895 191.706 98.3261 190.246C98.1546 191.705 98.1251 193.177 98.2382 194.642C98.2347 196.117 98.3735 197.589 98.6527 199.038Z" fill="#455A64"/>
<path d="M94.1366 186.227C94.0635 186.22 93.9898 186.22 93.9168 186.227L93.2448 186.19L90.6574 186.064L81.4133 185.675H81.25V185.832C81.25 188.721 81.25 191.986 81.25 195.434V195.735L81.3568 195.779L87.373 198.185H87.4295H87.486L92.8052 196.338L92.8868 196.307V196.219C93.2762 193.223 93.6028 190.73 93.8351 188.94C93.9356 188.105 94.0172 187.433 94.08 186.937C94.1142 186.71 94.1352 186.482 94.1428 186.253C94.1239 186.316 94.1113 186.381 94.1052 186.447C94.1052 186.598 94.0486 186.774 94.011 186.987C93.9293 187.49 93.8226 188.168 93.6907 189.016C93.4269 190.774 93.0627 193.236 92.6105 196.181L92.7047 196.068L87.373 197.877H87.486L81.4761 195.453L81.5828 195.61V195.421C81.5828 191.974 81.5828 188.708 81.5828 185.819L81.4258 185.976L90.5695 186.202L93.2008 186.246H94.1617L94.1366 186.227Z" fill="#455A64"/>
<path d="M113.831 186.39H113.63H113.002L110.659 186.321L102.225 186.12H102.068V186.277C102.163 189.128 102.263 192.406 102.376 195.904V195.936L102.445 195.986L103.425 196.614L108.367 199.836L108.455 199.892L108.543 199.842L114.113 196.444L114.182 196.4V196.319C114.076 193.33 113.988 190.836 113.925 189.047C113.894 188.218 113.862 187.546 113.843 187.05C113.825 186.553 113.799 186.359 113.793 186.365C113.785 186.432 113.785 186.499 113.793 186.566V187.144C113.793 187.652 113.793 188.331 113.793 189.178C113.793 190.943 113.856 193.411 113.9 196.363L113.969 196.243L108.373 199.597H108.549L103.62 196.35L102.646 195.722L102.721 195.86C102.596 192.362 102.477 189.078 102.37 186.227L102.219 186.384L110.565 186.428H113.573L113.831 186.39Z" fill="#455A64"/>
<path d="M82.6943 201.94C83.3121 201.986 83.9332 201.967 84.5469 201.883C85.6836 201.801 87.2536 201.644 88.9806 201.418C90.7076 201.192 92.2651 200.947 93.3766 200.74C93.9898 200.66 94.5936 200.519 95.179 200.319C94.5615 200.327 93.9459 200.388 93.3389 200.501L88.9429 201.085L84.5469 201.644C83.9222 201.691 83.3025 201.789 82.6943 201.94Z" fill="#455A64"/>
<path d="M83.0146 240.204C83.0146 240.204 83.0712 240.399 83.3349 240.638C83.731 240.951 84.2238 241.118 84.7291 241.109C85.4785 241.09 86.1991 240.816 86.7701 240.33C87.4541 239.76 88.0847 239.13 88.6541 238.446C89.6913 237.238 90.6142 235.937 91.411 234.558C91.77 234.003 92.0609 233.406 92.2776 232.781C91.8931 233.313 91.5367 233.864 91.21 234.433C90.3578 235.751 89.4179 237.009 88.3966 238.201C87.8492 238.866 87.2485 239.486 86.6005 240.053C86.0875 240.51 85.4389 240.786 84.7542 240.838C84.2917 240.869 83.8315 240.75 83.4417 240.499C83.1465 240.349 83.0398 240.185 83.0146 240.204Z" fill="#455A64"/>
<path d="M109.956 241.41C109.956 241.41 109.956 241.586 110.138 241.85C110.379 242.216 110.701 242.521 111.08 242.741C111.65 243.077 112.302 243.249 112.964 243.237C113.766 243.204 114.544 242.957 115.219 242.522C116.396 241.706 117.333 240.589 117.932 239.287C118.223 238.782 118.448 238.242 118.604 237.68C118.273 238.156 117.977 238.656 117.718 239.174C117.083 240.394 116.163 241.443 115.037 242.233C114.415 242.639 113.699 242.877 112.958 242.923C112.352 242.946 111.751 242.812 111.212 242.534C110.715 242.258 110.286 241.874 109.956 241.41Z" fill="#455A64"/>
<path d="M109.083 236.229C109.414 236.508 109.796 236.721 110.207 236.857C111.176 237.264 112.209 237.494 113.259 237.535C114.323 237.584 115.386 237.442 116.399 237.114C116.82 237.002 117.216 236.812 117.567 236.555C116.188 236.978 114.752 237.19 113.309 237.183C111.86 237.085 110.434 236.763 109.083 236.229Z" fill="#455A64"/>
<path d="M98.1056 116.287L83.3916 116.105L85.037 104.009C85.037 104.009 84.0322 103.802 83.9631 98.5395C83.894 93.2769 83.6428 84.3342 83.6428 84.3342C86.7469 83.0467 90.1313 82.5846 93.4669 82.9929C96.8025 83.4011 99.9756 84.6659 102.677 86.6641L103.488 87.2921L98.1056 116.287Z" fill="#FFBE9D"/>
<path d="M101.78 93.7164C101.874 93.6787 105.548 92.6488 105.403 96.2284C105.259 99.808 101.566 98.9665 101.566 98.8597C101.566 98.753 101.78 93.7164 101.78 93.7164Z" fill="#FFBE9D"/>
<path d="M84.2774 92.9447C84.1832 92.907 80.8673 92.0466 80.9804 95.6388C81.0934 99.2309 84.8175 98.3831 84.8237 98.2764C84.83 98.1696 84.2774 92.9447 84.2774 92.9447Z" fill="#FFBE9D"/>
<path d="M102.992 93.3145C102.439 96.3289 102.546 97.9114 102.031 99.9273C101.214 103.111 99.5753 105.579 96.6049 107.149C93.6344 108.719 89.609 108.713 87.0593 106.521C85.282 105.014 84.026 103.319 83.7623 101.051C83.4985 98.7844 83.241 94.7714 83.2222 92.5044C83.2222 88.3972 82.9082 84.4722 82.9082 84.4722L95.06 82.3496L101.968 86.3186L102.992 93.3145Z" fill="#263238"/>
<path d="M90.4316 108.964C91.1123 109.214 91.8474 109.277 92.5606 109.146C93.2833 109.126 93.9869 108.909 94.5953 108.518C94.5953 108.43 93.6658 108.7 92.5229 108.82C91.3799 108.939 90.463 108.87 90.4316 108.964Z" fill="#263238"/>
<path d="M102.401 98.4392C102.753 95.3494 102.986 91.8201 103.488 88.5608C103.676 87.3048 104.116 85.5778 104.015 84.3469C103.979 83.1011 103.706 81.8737 103.212 80.7296C102.843 80.0223 102.319 79.4072 101.68 78.9299C101.04 78.4527 100.302 78.1255 99.5189 77.9727C98.7281 77.8262 97.9148 77.8542 97.1359 78.0549C96.3571 78.2556 95.6315 78.624 95.0099 79.1345C94.5416 78.496 93.8993 78.006 93.1598 77.7231C92.4202 77.4402 91.6148 77.3764 90.84 77.5394C90.0762 77.7147 89.3816 78.1126 88.8439 78.6827C88.3063 79.2528 87.9497 79.9695 87.8193 80.7422C87.3683 80.3523 86.8086 80.1102 86.2157 80.0484C85.6227 79.9867 85.0251 80.1083 84.5035 80.3968C84.0043 80.6973 83.6167 81.1522 83.3991 81.6927C83.1816 82.2332 83.146 82.8298 83.2977 83.3923C82.8662 83.4635 82.4583 83.6376 82.1084 83.9C81.7586 84.1623 81.4772 84.5052 81.2881 84.8995C81.1131 85.2929 81.0399 85.7239 81.075 86.1529C81.1101 86.582 81.2525 86.9954 81.4891 87.355C82.0543 88.1903 83.0716 88.6487 83.6871 89.4462C84.0384 89.907 84.2441 90.4623 84.2777 91.0408C84.3112 91.6193 84.1712 92.1947 83.8755 92.693" fill="#263238"/>
<path d="M85.5205 87.2925C85.5399 87.4128 85.5872 87.5268 85.6587 87.6254C85.8322 87.9324 86.0726 88.1964 86.362 88.3978C86.823 88.7266 87.3785 88.8964 87.9446 88.8814C88.3115 88.8699 88.6725 88.7857 89.0067 88.6337C89.3409 88.4817 89.6416 88.2649 89.8914 87.9959L89.6339 87.9268C89.7273 88.3417 89.926 88.7255 90.2109 89.0412C90.4958 89.3569 90.8573 89.5939 91.2604 89.7292C91.7101 89.8971 92.1936 89.9546 92.6701 89.8966C93.1466 89.8387 93.6022 89.6671 93.9985 89.3963C94.7084 88.9266 95.2497 88.2423 95.5434 87.4433L95.2482 87.4809C95.5603 87.922 95.9721 88.2833 96.45 88.5354C96.9279 88.7874 97.4586 88.9232 97.9989 88.9316C98.4262 88.9412 98.8512 88.8656 99.2491 88.7092C99.6469 88.5529 100.01 88.319 100.316 88.021C100.712 87.6452 101 87.1704 101.151 86.6457C101.218 86.463 101.244 86.2679 101.227 86.0742C101.227 86.0742 101.17 86.2752 101.045 86.6143C100.856 87.0954 100.557 87.5255 100.172 87.8703C99.5801 88.4012 98.8059 88.6825 98.0114 88.6553C97.5164 88.6384 97.0321 88.5071 96.5963 88.2718C96.1605 88.0364 95.7851 87.7034 95.4994 87.2988L95.3236 87.0288L95.2043 87.3302C94.9278 88.0593 94.4319 88.6846 93.785 89.12C93.4339 89.3616 93.03 89.5156 92.6072 89.5692C92.1844 89.6227 91.7549 89.5742 91.3546 89.4277C91.0006 89.3132 90.6813 89.1109 90.4266 88.8396C90.1718 88.5684 89.9899 88.2371 89.8977 87.8766L89.8474 87.5751L89.6402 87.8075C89.2443 88.247 88.706 88.5328 88.1201 88.6143C87.5342 88.6959 86.9383 88.5681 86.4374 88.2534C86.072 87.996 85.7605 87.6696 85.5205 87.2925Z" fill="#455A64"/>
<path d="M85.5462 85.854C85.6161 85.3831 85.7922 84.9343 86.0612 84.5415C86.3707 84.1276 86.8149 83.8344 87.3172 83.7125C87.6328 83.6408 87.9598 83.6338 88.2782 83.6921C88.5967 83.7504 88.9 83.8727 89.1698 84.0516L89.4649 84.2589L89.4335 83.9072C89.4046 83.5569 89.4473 83.2043 89.5591 82.871C89.6811 82.5045 89.8765 82.1668 90.1335 81.8785C90.3905 81.5902 90.7037 81.3573 91.0538 81.1942C91.6473 80.9365 92.3087 80.8792 92.9378 81.031C93.5208 81.1966 94.0594 81.4906 94.514 81.8913C94.514 81.8913 94.445 81.7218 94.2126 81.4894C93.8672 81.1717 93.452 80.9394 93.0006 80.8112C92.241 80.5779 91.4202 80.6526 90.7153 81.0191C90.0103 81.3857 89.4778 82.0148 89.2326 82.7705C89.1085 83.1466 89.0636 83.5443 89.1007 83.9386L89.3644 83.7879C89.0546 83.5848 88.7057 83.4487 88.3402 83.3881C87.9747 83.3275 87.6006 83.3439 87.2418 83.4362C86.675 83.5823 86.1826 83.9336 85.8602 84.4222C85.6498 84.7306 85.5203 85.0869 85.4834 85.4584C85.4897 85.7158 85.5274 85.854 85.5462 85.854Z" fill="#455A64"/>
<path d="M93.2951 85.9545C93.339 85.9545 93.2951 85.7535 93.2951 85.4647C93.3318 85.0824 93.4635 84.7155 93.6781 84.3971C93.9231 84.0265 94.2119 83.6497 94.3815 83.4425C94.5511 83.2353 94.7395 83.3923 94.7709 83.3734C94.8023 83.3546 94.7709 83.2918 94.6892 83.229C94.6178 83.19 94.5366 83.1722 94.4554 83.1778C94.3742 83.1833 94.2963 83.212 94.2308 83.2604C94.0754 83.3822 93.9342 83.5213 93.81 83.6749C93.6542 83.8482 93.5114 84.0329 93.383 84.2275C93.1351 84.5971 93.0199 85.0399 93.0564 85.4835C93.1067 85.8101 93.2574 85.9733 93.2951 85.9545Z" fill="#455A64"/>
<path d="M100.48 81.4327C100.518 81.4327 100.48 81.1501 100.254 80.8047C100.115 80.5748 99.9233 80.3811 99.695 80.2395C99.4008 80.0569 99.0518 79.9835 98.709 80.0323C98.1223 80.1329 97.5952 80.4514 97.2332 80.924C96.9632 81.2569 96.8376 81.4829 96.869 81.5081C96.9004 81.5332 97.1076 81.3573 97.4091 81.081C97.7741 80.7093 98.2423 80.4556 98.753 80.3525C99.0018 80.3279 99.2527 80.3689 99.4808 80.4713C99.7089 80.5738 99.9061 80.7342 100.053 80.9366C100.336 81.2192 100.48 81.4515 100.48 81.4327Z" fill="#455A64"/>
<path d="M98.5957 96.7117C99.7123 95.3345 100.326 93.6177 100.335 91.8447C100.235 91.8447 100.04 92.9751 99.5628 94.3128C99.0855 95.6504 98.5266 96.6364 98.5957 96.7117Z" fill="#455A64"/>
<path d="M96.9814 97.5537C97.3961 97.079 97.7026 96.5197 97.8795 95.9147C98.1589 95.354 98.3111 94.7386 98.3254 94.1123C97.9961 94.638 97.7404 95.2064 97.5655 95.8016C97.2863 96.354 97.0895 96.9443 96.9814 97.5537Z" fill="#455A64"/>
<path d="M86.7391 97.7988C86.5669 98.8641 86.7133 99.9565 87.1599 100.939C87.5169 101.983 88.1718 102.9 89.0439 103.576C88.459 102.703 87.9465 101.783 87.5116 100.826C87.1728 99.8393 86.9144 98.827 86.7391 97.7988Z" fill="#455A64"/>
<path d="M85.1067 95.1738C84.7166 96.0701 84.6328 97.0699 84.8681 98.0187C84.9949 98.9946 85.4357 99.9027 86.1241 100.606C85.741 99.7529 85.4321 98.8683 85.2009 97.9621C85.0856 97.0374 85.0541 96.1042 85.1067 95.1738Z" fill="#455A64"/>
<path d="M65.4311 145.527V160.599C65.4311 160.599 76.7351 185.581 76.7351 185.198C76.7351 184.814 80.7731 169.428 80.7731 169.428L76.2264 157.427L75.7994 149.59L66.4673 130.926C66.4673 130.926 64.15 143.486 64.5268 144.239C64.7587 144.713 65.0639 145.148 65.4311 145.527Z" fill="#93CBFA"/>
<path d="M79.5106 115.597C79.5106 115.597 69.2366 120.928 67.968 122.574C66.6994 124.219 66.4482 130.945 66.4482 130.945L79.5106 157.07L80.1386 167.595C80.1386 167.595 76.2074 175.79 76.2074 181.518V182.146L75.5794 190.008L91.2794 191.402C91.2794 191.402 92.1711 187.088 92.1711 187.471C92.1711 187.854 93.3141 191.402 93.3141 191.402H119.32L118.359 174.089L113.931 147.361C113.931 147.361 115.815 132.031 115.91 131.472C116.073 130.48 132.539 123.177 132.539 123.177L140.295 118.988C141.284 118.449 142.111 117.654 142.688 116.686C143.265 115.718 143.57 114.613 143.573 113.487C143.569 112.322 143.242 111.181 142.628 110.192C142.013 109.203 141.136 108.404 140.094 107.885L118.208 97.0518L113.115 105.618L119.784 109.901L124.563 113.21L111.306 114.466C111.306 114.466 108.951 111.389 107.94 111.389C106.929 111.389 98.8091 113.273 98.8091 113.273L98.9347 111.245C98.9347 111.245 96.7806 108.833 94.3691 108.959C91.9576 109.084 81.8091 112.004 81.8091 112.004L79.5106 115.597Z" fill="#93CBFA"/>
<path d="M116.38 100.122L110.672 96.7999L101.987 92.0899C101.987 92.0899 99.123 89.9171 97.9926 89.9799C97.5124 90.0673 97.0561 90.2551 96.6535 90.5311C96.2509 90.807 95.9112 91.1649 95.6565 91.5813C95.6062 91.8387 96.0772 92.316 96.8057 92.115C97.0443 92.0522 97.71 91.5687 98.0617 91.644C98.7352 91.8034 99.3179 92.2235 99.6819 92.8121C99.7269 92.8701 99.7546 92.9396 99.7618 93.0127C99.769 93.0857 99.7554 93.1593 99.7226 93.225C99.6897 93.2906 99.639 93.3456 99.5763 93.3837C99.5135 93.4218 99.4413 93.4413 99.3679 93.4401C99.3679 93.4401 94.4507 92.1841 92.6169 93.1889C92.4007 93.294 92.2306 93.475 92.1392 93.6973C92.0477 93.9196 92.0411 94.1678 92.1208 94.3947C92.2527 94.715 92.6044 95.0227 93.4647 94.8343C95.1917 94.5014 98.0428 95.8265 98.0428 95.8265C98.0428 95.8265 91.6624 95.6193 90.5697 96.1657C90.1363 96.3792 89.6653 97.7733 90.9653 97.9178C92.4976 98.0811 95.5183 98.0183 95.5183 98.0183C95.5183 98.0183 98.3694 98.4139 97.911 98.9477C97.4525 99.4815 93.0754 99.5255 92.7425 99.5757C92.4097 99.6259 90.9276 99.5757 91.0092 100.781C91.0532 101.466 92.3343 101.899 93.9922 101.843C95.399 101.799 99.7636 101.711 100.272 102.508C100.781 103.306 100.436 103.884 100.034 104.085C98.7569 104.399 97.4569 104.609 96.1463 104.713C95.5685 104.713 94.8087 105.78 96.2154 106.119C97.7477 106.496 99.0414 106.189 100.366 106.189C101.692 106.189 103.387 106.295 107.105 104.838C107.105 104.838 109.617 103.702 113.033 105.661L116.38 100.122Z" fill="#FFBE9D"/>
<path d="M98.1683 113.398C98.1683 113.492 94.1679 114.026 89.2067 114.654C84.2455 115.282 80.2075 115.672 80.2012 115.577C80.1949 115.483 84.2015 114.949 89.169 114.321C94.1365 113.693 98.162 113.31 98.1683 113.398Z" fill="#263238"/>
<path d="M97.2773 168.932C97.3418 168.808 97.4153 168.688 97.4971 168.574L98.188 167.576C98.816 166.716 99.6512 165.453 100.7 163.871C101.749 162.288 102.911 160.392 104.16 158.219C105.41 156.046 106.672 153.653 107.972 151.072C109.272 148.491 110.333 145.985 111.282 143.68C112.23 141.376 112.996 139.284 113.605 137.488C114.215 135.692 114.692 134.26 115 133.249C115.15 132.778 115.27 132.395 115.364 132.094C115.403 131.958 115.454 131.826 115.514 131.698C115.501 131.839 115.474 131.978 115.433 132.113C115.351 132.414 115.251 132.804 115.119 133.287C114.849 134.311 114.415 135.799 113.825 137.564C113.235 139.328 112.481 141.476 111.558 143.794C110.635 146.111 109.53 148.629 108.267 151.216C107.005 153.804 105.68 156.24 104.424 158.369C103.168 160.498 101.956 162.42 100.895 163.984C99.8333 165.547 98.9478 166.791 98.3073 167.626L97.5725 168.593C97.488 168.718 97.3889 168.832 97.2773 168.932Z" fill="#263238"/>
<path d="M75.9879 185.223C75.9796 185.105 75.9796 184.988 75.9879 184.871C75.9879 184.62 76.0445 184.281 76.0821 183.866C76.1763 182.993 76.3585 181.718 76.6411 180.129C77.4431 175.854 78.5662 171.645 80.0009 167.538V167.601C79.8627 165.415 79.7183 163.06 79.5738 160.618C79.4985 159.405 79.4294 158.212 79.3603 157.076V157.138C76.5657 151.694 74.2547 146.814 72.6784 143.272C71.8871 141.507 71.2842 140.069 70.8823 139.077C70.7002 138.6 70.5495 138.217 70.4364 137.928C70.3904 137.799 70.3568 137.667 70.3359 137.532C70.4109 137.654 70.474 137.782 70.5243 137.915L71.0205 139.039C71.4601 140.013 72.0881 141.438 72.9045 143.191C74.531 146.701 76.8797 151.568 79.6743 157.007V157.038C79.7434 158.175 79.8187 159.368 79.8878 160.58C80.0385 163.023 80.1767 165.378 80.3023 167.563V167.595C78.8606 171.681 77.7044 175.864 76.842 180.111C76.528 181.693 76.3208 182.962 76.214 183.828L76.0633 184.827C76.0614 184.962 76.0359 185.096 75.9879 185.223Z" fill="#263238"/>
<path d="M93.0445 180.098C92.9177 182.033 92.685 183.959 92.3474 185.869C92.116 187.792 91.7764 189.699 91.3301 191.584C91.4533 189.65 91.686 187.726 92.0272 185.819C92.259 183.894 92.5987 181.984 93.0445 180.098Z" fill="#263238"/>
<path d="M111.652 126.787C111.521 126.652 111.409 126.5 111.32 126.335C111.125 126.034 110.861 125.581 110.56 125.01C109.784 123.511 109.167 121.934 108.72 120.306C108.268 118.68 107.986 117.011 107.878 115.326C107.84 114.698 107.834 114.158 107.847 113.8C107.838 113.612 107.855 113.424 107.897 113.241C107.953 113.241 107.972 114.032 108.11 115.307C108.449 118.633 109.347 121.877 110.767 124.903C111.094 125.515 111.39 126.144 111.652 126.787Z" fill="#263238"/>
<g opacity="0.3">
<path d="M97.9678 167.733C98.614 168.005 99.3149 168.123 100.015 168.077C100.715 168.032 101.394 167.823 102 167.469C103.202 166.745 104.255 165.799 105.102 164.68C111.694 156.674 114.982 146.454 114.296 136.106C110.586 147.145 105.259 157.573 98.489 167.048" fill="black"/>
</g>
<g opacity="0.3">
<path d="M70.8505 138.838C70.3018 138.182 69.5982 137.672 68.8032 137.356C68.4337 137.211 68.0222 137.215 67.6555 137.367C67.2889 137.519 66.9956 137.808 66.8376 138.172C66.7695 138.598 66.8262 139.034 67.0009 139.428C68.2129 143.002 69.4626 146.657 71.8365 149.589C72.2641 150.064 72.767 150.465 73.3248 150.776C73.89 151.134 75.4286 151.448 75.6422 150.839C75.7524 150.322 75.7524 149.787 75.6422 149.269C75.6422 149.269 72.2572 142.361 70.6182 138.813" fill="black"/>
</g>
<g opacity="0.3">
<path d="M124.425 113.204C125.936 113.56 127.512 113.532 129.01 113.122C126.655 111.339 123.584 110.949 120.657 110.554L124.425 113.204Z" fill="black"/>
</g>
<path d="M134.122 113.467C133.636 113.516 133.145 113.516 132.659 113.467L129.155 113.367L125.65 113.31C125.163 113.331 124.675 113.304 124.193 113.229C124.669 113.12 125.156 113.069 125.644 113.078C126.542 113.034 127.786 113.009 129.161 113.04C130.536 113.072 131.78 113.153 132.678 113.235C133.167 113.256 133.651 113.334 134.122 113.467Z" fill="#263238"/>
<path d="M69.0801 155.744C69.0801 155.707 69.4129 155.933 69.8902 156.297C70.4852 156.785 71.1393 157.197 71.837 157.522C72.5342 157.824 73.3024 157.924 74.0538 157.81C74.6253 157.704 74.9393 157.49 74.9707 157.54C75.0021 157.591 74.7132 157.861 74.1041 158.037C73.3048 158.232 72.4635 158.157 71.7114 157.823C70.9825 157.488 70.3157 157.031 69.7395 156.473C69.3124 156.027 69.0801 155.744 69.0801 155.744Z" fill="#263238"/>
<path opacity="0.3" d="M93.0443 181.285L96.134 191.434H93.3332L92.0332 186.868L93.0443 181.285Z" fill="black"/>
</svg>
