<svg width="314" height="314" viewBox="0 0 314 314" fill="none" xmlns="http://www.w3.org/2000/svg">
<path d="M314 240.147H0V240.304H314V240.147Z" fill="#EBEBEB"/>
<path d="M282.538 250.252H261.738V250.409H282.538V250.252Z" fill="#EBEBEB"/>
<path d="M208.006 251.96H202.549V252.117H208.006V251.96Z" fill="#EBEBEB"/>
<path d="M261.11 244.424H249.059V244.581H261.11V244.424Z" fill="#EBEBEB"/>
<path d="M60.0686 245.479H32.9453V245.636H60.0686V245.479Z" fill="#EBEBEB"/>
<path d="M69.6393 245.479H65.6641V245.636H69.6393V245.479Z" fill="#EBEBEB"/>
<path d="M141.395 248.129H82.5635V248.286H141.395V248.129Z" fill="#EBEBEB"/>
<path d="M148.836 212.138H27.5757C26.6257 212.137 25.7153 211.758 25.0442 211.086C24.373 210.414 23.9961 209.502 23.9961 208.553V38.0945C24.0044 37.15 24.3849 36.2469 25.0552 35.5814C25.7254 34.9159 26.6312 34.5417 27.5757 34.54H148.836C149.787 34.54 150.699 34.9178 151.372 35.5903C152.044 36.2628 152.422 37.1749 152.422 38.1259V208.553C152.422 209.504 152.044 210.416 151.372 211.088C150.699 211.761 149.787 212.138 148.836 212.138ZM27.5757 34.6656C26.6674 34.6673 25.7969 35.0293 25.1552 35.6722C24.5135 36.315 24.1531 37.1862 24.1531 38.0945V208.553C24.1531 209.461 24.5135 210.332 25.1552 210.975C25.7969 211.618 26.6674 211.98 27.5757 211.981H148.836C149.745 211.98 150.616 211.618 151.259 210.975C151.902 210.333 152.263 209.461 152.265 208.553V38.0945C152.263 37.1856 151.902 36.3144 151.259 35.6718C150.616 35.0291 149.745 34.6673 148.836 34.6656H27.5757Z" fill="#EBEBEB"/>
<path d="M284.679 212.138H163.412C162.462 212.137 161.55 211.758 160.878 211.086C160.206 210.414 159.828 209.503 159.826 208.553V38.0945C159.836 37.1495 160.218 36.2464 160.889 35.581C161.561 34.9157 162.467 34.5416 163.412 34.54H284.679C285.622 34.5433 286.526 34.9183 287.195 35.5836C287.864 36.249 288.244 37.1511 288.252 38.0945V208.553C288.252 209.501 287.876 210.412 287.206 211.084C286.537 211.756 285.628 212.135 284.679 212.138ZM163.412 34.6656C162.503 34.6673 161.632 35.0291 160.989 35.6718C160.347 36.3144 159.985 37.1856 159.983 38.0945V208.553C159.985 209.461 160.347 210.333 160.989 210.975C161.632 211.618 162.503 211.98 163.412 211.981H284.679C285.588 211.98 286.459 211.618 287.102 210.975C287.744 210.333 288.106 209.461 288.108 208.553V38.0945C288.106 37.1856 287.744 36.3144 287.102 35.6718C286.459 35.0291 285.588 34.6673 284.679 34.6656H163.412Z" fill="#EBEBEB"/>
<path d="M225.653 119.477C243.834 119.477 258.573 104.739 258.573 86.5575C258.573 68.3764 243.834 53.6377 225.653 53.6377C207.472 53.6377 192.733 68.3764 192.733 86.5575C192.733 104.739 207.472 119.477 225.653 119.477Z" fill="#E0E0E0"/>
<path d="M223.153 119.477C241.334 119.477 256.073 104.739 256.073 86.5575C256.073 68.3764 241.334 53.6377 223.153 53.6377C204.972 53.6377 190.233 68.3764 190.233 86.5575C190.233 104.739 204.972 119.477 223.153 119.477Z" fill="#F5F5F5"/>
<path d="M244.671 108.076C256.553 96.1941 256.553 76.929 244.671 65.0467C232.788 53.1644 213.523 53.1644 201.641 65.0467C189.758 76.929 189.759 96.1941 201.641 108.076C213.523 119.959 232.788 119.959 244.671 108.076Z" fill="white"/>
<path d="M228.341 108.701C228.175 108.701 228.015 108.645 227.885 108.543C227.755 108.44 227.663 108.297 227.625 108.135L222.438 86.7332C222.401 86.5462 222.438 86.3522 222.54 86.1916C222.643 86.031 222.804 85.9161 222.989 85.8708C223.174 85.8255 223.369 85.8534 223.535 85.9485C223.7 86.0436 223.822 86.1987 223.876 86.3815L229.057 107.79C229.102 107.981 229.07 108.182 228.968 108.349C228.865 108.516 228.701 108.636 228.51 108.682C228.455 108.694 228.398 108.701 228.341 108.701Z" fill="#F5F5F5"/>
<path d="M223.153 88.0335C222.959 88.0335 222.768 87.9953 222.589 87.9209C222.41 87.8465 222.247 87.7375 222.111 87.6001L204.307 69.7963C204.17 69.659 204.061 69.4961 203.988 69.3168C203.914 69.1376 203.876 68.9455 203.876 68.7516C203.877 68.36 204.033 67.9847 204.31 67.7082C204.587 67.4318 204.963 67.2768 205.355 67.2773C205.746 67.2779 206.122 67.4341 206.398 67.7114L223.153 84.4727L232.931 74.6947C233.208 74.4183 233.584 74.2633 233.976 74.2638C234.367 74.2644 234.743 74.4206 235.019 74.6979C235.296 74.9752 235.451 75.351 235.45 75.7426C235.45 76.1342 235.293 76.5095 235.016 76.786L224.196 87.6001C223.919 87.877 223.544 88.0329 223.153 88.0335Z" fill="#EBEBEB"/>
<path d="M139.102 235.562H144.063V201.588H139.102V235.562Z" fill="#F0F0F0"/>
<path d="M38.7536 240.147H140.791V235.563H38.7536V240.147Z" fill="#F0F0F0"/>
<path d="M139.102 201.588H35.4756V235.563H139.102V201.588Z" fill="#F5F5F5"/>
<path d="M132.395 207.504H42.1768V226.909H132.395V207.504Z" fill="#F0F0F0"/>
<path d="M65.343 210.098H109.24C110.062 210.098 110.729 209.431 110.729 208.609V208.333C110.729 207.511 110.062 206.845 109.24 206.845H65.343C64.521 206.845 63.8546 207.511 63.8546 208.333V208.609C63.8546 209.431 64.521 210.098 65.343 210.098Z" fill="#F5F5F5"/>
<path d="M33.2019 201.588H139.102V198.555H33.2019V201.588Z" fill="#F0F0F0"/>
<path d="M146.443 198.555H139.102V201.588H146.443V198.555Z" fill="#E6E6E6"/>
<path d="M269.845 165.717H260.174V240.147H269.845V165.717Z" fill="#F0F0F0"/>
<path d="M175.526 240.147H260.174V165.717H175.526V240.147Z" fill="#F5F5F5"/>
<path d="M174.754 233.609H249.071V193.8H174.754V233.609Z" fill="#FAFAFA"/>
<path d="M174.754 189.581H249.071V176.475H174.754V189.581Z" fill="#FAFAFA"/>
<g style="mix-blend-mode:multiply" opacity="0.7">
<path d="M249.737 193.801H249.071V233.61H249.737V193.801Z" fill="#E6E6E6"/>
</g>
<g style="mix-blend-mode:multiply" opacity="0.7">
<path d="M249.737 176.475H249.071V189.581H249.737V176.475Z" fill="#E6E6E6"/>
</g>
<g style="mix-blend-mode:multiply" opacity="0.7">
<path d="M269.845 168.856H175.312V170.539H269.845V168.856Z" fill="#E6E6E6"/>
</g>
<path d="M270.975 164.699H260.174V169.566H270.975V164.699Z" fill="#F0F0F0"/>
<path d="M174.395 169.566H260.174V164.699H174.395V169.566Z" fill="#F5F5F5"/>
<path d="M206.574 150.369C205.991 149.45 205.606 148.419 205.444 147.342C205.273 146.266 205.219 145.176 205.28 144.089C205.415 141.926 205.877 139.796 206.649 137.771C207.017 136.766 207.437 135.781 207.905 134.82C208.408 133.878 208.91 132.936 209.475 132.038C210.041 131.139 210.662 130.273 211.303 129.431C211.944 128.59 212.666 127.805 213.413 127.045C213.049 128.056 212.615 129.011 212.157 129.965C211.699 130.92 211.341 131.881 210.901 132.81L209.683 135.636L209.124 137.062L208.835 137.771L208.584 138.487C207.866 140.374 207.297 142.314 206.882 144.29C206.666 145.277 206.519 146.278 206.442 147.285C206.349 148.314 206.393 149.351 206.574 150.369Z" fill="#E6E6E6"/>
<path d="M194.385 152.033C194.465 150.516 194.332 148.996 193.989 147.517C193.668 146.169 193.038 144.913 192.149 143.85C191.201 142.796 190.08 141.912 188.833 141.237C187.546 140.49 186.126 139.906 184.663 139.215C186.289 139.042 187.933 139.217 189.486 139.73C190.288 139.993 191.056 140.351 191.772 140.798C192.504 141.269 193.166 141.842 193.738 142.5C194.878 143.845 195.541 145.53 195.622 147.291C195.708 148.962 195.276 150.618 194.385 152.033Z" fill="#E6E6E6"/>
<path d="M194.931 151.813C194.878 150.046 194.712 148.284 194.435 146.537C194.175 144.873 193.714 143.247 193.059 141.696C192.405 140.17 191.505 138.761 190.397 137.526C189.2 136.248 187.869 135.103 186.428 134.109C188.285 134.397 190.037 135.159 191.515 136.32C193.029 137.523 194.219 139.086 194.975 140.867C195.72 142.619 196.091 144.508 196.061 146.412C196.072 148.272 195.687 150.113 194.931 151.813Z" fill="#E6E6E6"/>
<path d="M205.739 148.604C204.375 146.834 203.216 144.914 202.285 142.883C201.339 140.856 200.56 138.756 199.955 136.603C199.344 134.444 198.938 132.232 198.743 129.996C198.538 127.761 198.641 125.508 199.051 123.302C199.509 125.506 199.861 127.635 200.364 129.751C200.866 131.868 201.368 133.953 201.965 136.031C202.562 138.11 203.164 140.189 203.811 142.267C204.458 144.346 205.118 146.456 205.739 148.604Z" fill="#E6E6E6"/>
<path d="M205.174 148.447C203.62 146.926 202.234 145.242 201.042 143.423C199.848 141.609 198.798 139.705 197.902 137.727C196.993 135.745 196.27 133.682 195.742 131.566C195.207 129.447 194.964 127.264 195.019 125.079C195.811 127.126 196.495 129.111 197.305 131.064C198.115 133.017 198.919 134.951 199.817 136.867C200.715 138.782 201.582 140.691 202.499 142.613C203.416 144.535 204.301 146.45 205.174 148.447Z" fill="#E6E6E6"/>
<path d="M207.51 150.456C205.749 149.523 204.114 148.371 202.643 147.027C201.162 145.692 199.81 144.22 198.605 142.631C197.376 141.051 196.323 139.341 195.465 137.532C194.607 135.724 194.035 133.794 193.77 131.811C194.85 133.5 195.804 135.152 196.91 136.728C198.015 138.304 199.082 139.868 200.257 141.369C201.431 142.87 202.605 144.377 203.824 145.871C205.042 147.366 206.279 148.886 207.51 150.456Z" fill="#E6E6E6"/>
<path d="M204.1 148.46C202.39 147.755 200.803 146.78 199.403 145.571C197.99 144.383 196.725 143.029 195.635 141.539C195.081 140.796 194.569 140.022 194.103 139.222C193.648 138.41 193.243 137.571 192.891 136.71C192.168 135.004 191.725 133.193 191.578 131.347C192.564 132.923 193.374 134.487 194.354 135.956C194.793 136.716 195.321 137.419 195.779 138.16C196.238 138.902 196.772 139.592 197.312 140.283C198.35 141.681 199.439 143.053 200.577 144.397C201.683 145.759 202.844 147.084 204.1 148.46Z" fill="#E6E6E6"/>
<path d="M206.775 149.533C205.963 148.96 205.314 148.185 204.891 147.285C204.455 146.387 204.148 145.431 203.981 144.447C203.667 142.494 203.722 140.5 204.144 138.569C204.347 137.621 204.599 136.684 204.898 135.761C205.256 134.863 205.576 133.953 206.003 133.092C206.43 132.232 206.882 131.391 207.391 130.58C207.914 129.778 208.478 129.002 209.08 128.257C208.879 129.205 208.596 130.103 208.326 131.001C208.056 131.899 207.83 132.804 207.535 133.676C207.24 134.549 207.064 135.454 206.794 136.327L206.486 137.652C206.38 138.091 206.254 138.531 206.191 138.977C205.812 140.72 205.619 142.499 205.613 144.283C205.606 145.175 205.686 146.064 205.852 146.94C206.009 147.851 206.321 148.728 206.775 149.533Z" fill="#E6E6E6"/>
<path d="M205.608 147.53C204.231 146.058 203.233 144.273 202.7 142.33C202.12 140.368 201.935 138.31 202.154 136.276C202.185 135.767 202.311 135.271 202.392 134.769L202.537 134.015L202.756 133.287C202.92 132.803 203.058 132.32 203.24 131.849C203.422 131.378 203.661 130.925 203.868 130.473L204.207 129.801L204.615 129.173L205.444 127.917C206.064 127.144 206.733 126.412 207.448 125.726C207.121 126.674 206.688 127.534 206.336 128.426L205.84 129.764L205.589 130.392L205.388 131.07C205.256 131.516 205.118 131.962 204.973 132.401L204.666 133.751L204.502 134.423L204.408 135.102C204.352 135.554 204.239 136.006 204.213 136.458C204.022 138.286 204.047 140.131 204.289 141.953C204.521 143.855 204.964 145.725 205.608 147.53Z" fill="#E6E6E6"/>
<path d="M202.957 146.764L193.958 138.757L195.289 149.628L202.957 146.764Z" fill="#E6E6E6"/>
<path d="M185.611 145.301H211.724L208.301 164.7H189.034L185.611 145.301Z" fill="#F5F5F5"/>
<path d="M201.927 145.301H211.724L208.301 164.7H203.158L201.927 145.301Z" fill="#EBEBEB"/>
<path d="M234.785 150.406C234.908 149.548 234.871 148.675 234.678 147.831C234.512 147.023 234.252 146.237 233.905 145.488C233.202 143.987 232.309 142.581 231.249 141.306C231.01 140.961 230.703 140.678 230.433 140.345C230.162 140.012 229.886 139.717 229.597 139.384C228.969 138.756 228.429 138.128 227.807 137.5C227.186 136.872 226.589 136.244 225.961 135.616C225.333 134.988 224.705 134.36 224.077 133.676C224.925 133.996 225.729 134.392 226.545 134.794C227.337 135.229 228.107 135.705 228.85 136.219C229.225 136.476 229.585 136.753 229.93 137.048C230.282 137.337 230.627 137.638 230.973 137.934C231.642 138.565 232.271 139.239 232.857 139.95C234.063 141.402 234.943 143.096 235.438 144.917C235.676 145.839 235.759 146.794 235.683 147.743C235.64 148.697 235.329 149.62 234.785 150.406Z" fill="#E6E6E6"/>
<path d="M249.467 147.774C248.805 147.204 248.316 146.46 248.054 145.627C247.909 145.197 247.814 144.753 247.771 144.301C247.759 144.071 247.759 143.841 247.771 143.611C247.764 143.381 247.785 143.151 247.834 142.926C248.203 141.14 249.136 139.519 250.497 138.304C250.811 137.996 251.169 137.751 251.501 137.475C251.833 137.2 252.185 136.952 252.556 136.734C252.921 136.521 253.285 136.301 253.662 136.106C253.844 136.006 254.026 135.893 254.221 135.805L254.798 135.56C255.188 135.396 255.577 135.246 255.967 135.095C256.354 134.938 256.753 134.812 257.16 134.718C257.969 134.507 258.788 134.34 259.615 134.216C258.966 134.73 258.289 135.208 257.587 135.648C257.241 135.855 256.915 136.087 256.588 136.326C256.262 136.565 255.96 136.778 255.596 136.998C254.911 137.406 254.34 137.927 253.712 138.367C253.398 138.587 253.1 138.828 252.82 139.089C252.531 139.34 252.192 139.566 251.954 139.83C250.866 140.792 250.008 141.985 249.442 143.322C249.322 143.658 249.225 144.002 249.153 144.352C249.095 144.715 249.066 145.083 249.065 145.451C249.065 146.243 249.201 147.029 249.467 147.774Z" fill="#E6E6E6"/>
<path d="M248.795 147.775C247.66 146.297 247.042 144.488 247.036 142.625C247.01 140.717 247.496 138.837 248.443 137.181L249.196 135.987C249.485 135.617 249.793 135.265 250.101 134.914L250.572 134.392L251.087 133.94L252.142 133.055C252.887 132.537 253.661 132.061 254.459 131.629C255.278 131.258 256.117 130.931 256.971 130.649C256.343 131.315 255.715 131.905 255.043 132.471C254.371 133.036 253.825 133.683 253.235 134.279C252.958 134.606 252.688 134.907 252.406 135.228L251.985 135.686L251.627 136.188C251.388 136.521 251.124 136.816 250.892 137.168L250.264 138.204C249.468 139.602 248.93 141.131 248.675 142.72C248.415 144.398 248.455 146.11 248.795 147.775Z" fill="#E6E6E6"/>
<path d="M235.588 148.704C236.109 146.763 236.674 144.892 237.221 143.052C237.767 141.212 238.301 139.334 238.791 137.475C239.281 135.616 239.689 133.745 240.047 131.823C240.405 129.902 240.599 128.055 240.769 126.021C241.429 127.938 241.739 129.959 241.686 131.987C241.61 134.005 241.317 136.009 240.813 137.965C240.301 139.909 239.609 141.801 238.747 143.617C237.904 145.435 236.843 147.143 235.588 148.704Z" fill="#E6E6E6"/>
<path d="M236.241 148.39C237.058 146.506 237.937 144.622 238.803 142.82C239.67 141.017 240.543 139.183 241.378 137.362C242.213 135.541 243.017 133.714 243.765 131.861C244.512 130.008 245.153 128.093 245.781 126.121C245.975 128.206 245.824 130.309 245.335 132.345C244.839 134.369 244.152 136.342 243.281 138.235C242.407 140.114 241.384 141.92 240.223 143.636C239.073 145.361 237.738 146.955 236.241 148.39Z" fill="#E6E6E6"/>
<path d="M233.686 150.783C234.91 149.1 236.198 147.511 237.454 145.922C238.71 144.333 239.966 142.782 241.184 141.181C242.402 139.579 243.595 137.99 244.738 136.345C245.881 134.7 246.924 133.004 247.985 131.208C247.707 133.283 247.09 135.299 246.158 137.174C245.224 139.036 244.113 140.805 242.842 142.455C241.569 144.09 240.168 145.621 238.653 147.034C237.139 148.461 235.473 149.718 233.686 150.783Z" fill="#E6E6E6"/>
<path d="M237.528 148.044C238.728 146.543 239.927 145.124 241.108 143.686C242.289 142.248 243.432 140.822 244.549 139.372C245.667 137.921 246.703 136.426 247.689 134.9C248.675 133.374 249.573 131.76 250.54 130.09C250.399 132.02 249.923 133.912 249.134 135.679C248.347 137.444 247.354 139.109 246.176 140.64C245.008 142.164 243.691 143.567 242.245 144.829C240.821 146.104 239.235 147.186 237.528 148.044Z" fill="#E6E6E6"/>
<path d="M234.457 149.797C235.139 148.435 235.467 146.923 235.412 145.401C235.329 143.948 234.957 142.526 234.319 141.219L234.106 140.71L233.835 140.22L233.308 139.228C232.887 138.6 232.51 137.928 232.052 137.281C231.594 136.634 231.179 135.987 230.714 135.341C230.226 134.69 229.771 134.015 229.352 133.318C230.074 133.716 230.774 134.152 231.449 134.625C232.108 135.126 232.737 135.665 233.333 136.239C233.631 136.53 233.91 136.841 234.168 137.168C234.436 137.49 234.7 137.817 234.96 138.148L235.632 139.234L235.952 139.787L236.216 140.377C236.982 141.969 237.266 143.75 237.032 145.502C236.92 146.356 236.634 147.178 236.191 147.917C235.748 148.656 235.158 149.296 234.457 149.797Z" fill="#E6E6E6"/>
<path d="M235.626 147.793C236.142 146.237 236.496 144.631 236.681 143.001C236.851 141.482 236.738 139.945 236.348 138.467C236.152 137.739 235.879 137.033 235.532 136.363C235.186 135.673 234.778 135.015 234.313 134.398C233.314 133.091 232.218 131.861 231.035 130.718C232.718 131.216 234.26 132.102 235.538 133.305C236.204 133.918 236.783 134.62 237.259 135.39C237.749 136.169 238.121 137.015 238.364 137.902C238.837 139.677 238.809 141.549 238.282 143.309C237.807 145.011 236.89 146.558 235.626 147.793Z" fill="#E6E6E6"/>
<path d="M238.696 146.306L248.518 136.873L248.123 146.123L238.696 146.306Z" fill="#E6E6E6"/>
<path d="M227.951 145.301H254.063L250.641 164.7H231.374L227.951 145.301Z" fill="#F5F5F5"/>
<path d="M244.261 145.301H254.064L250.641 164.7H245.498L244.261 145.301Z" fill="#EBEBEB"/>
<path d="M65.2305 56.9727V158.709C65.2305 162.939 63.5499 166.996 60.5585 169.988C57.5671 172.979 53.5098 174.66 49.2793 174.66H123.383C127.614 174.66 131.672 172.979 134.665 169.988C137.657 166.997 139.339 162.94 139.341 158.709V56.9727H65.2305Z" fill="#F5F5F5"/>
<path d="M127.71 82.7266H79.8252V130.612H127.71V82.7266Z" fill="#F0F0F0"/>
<path d="M126.24 81.251H78.3555V129.136H126.24V81.251Z" fill="white"/>
<path d="M90.1115 136.226H77.9346V148.403H90.1115V136.226Z" fill="white"/>
<path d="M126.235 136.226H114.058V148.403H126.235V136.226Z" fill="white"/>
<path d="M108.173 136.226H95.9961V148.403H108.173V136.226Z" fill="white"/>
<path d="M139.353 56.9727H65.2305V69.0805H139.353V56.9727Z" fill="#F0F0F0"/>
<path d="M69.708 53.0846V60.8592C69.7072 61.144 69.7627 61.4261 69.8713 61.6893C69.9798 61.9525 70.1394 62.1917 70.3408 62.3931C70.5421 62.5944 70.7813 62.754 71.0445 62.8626C71.3078 62.9712 71.5899 63.0266 71.8746 63.0258C72.1591 63.0258 72.4409 62.9698 72.7037 62.8609C72.9666 62.752 73.2054 62.5924 73.4066 62.3912C73.6078 62.19 73.7674 61.9512 73.8763 61.6883C73.9852 61.4255 74.0412 61.1437 74.0412 60.8592V53.0846C74.0396 52.5105 73.8108 51.9603 73.4048 51.5544C72.9988 51.1484 72.4487 50.9196 71.8746 50.918C71.3 50.918 70.7489 51.1462 70.3426 51.5526C69.9363 51.9589 69.708 52.5099 69.708 53.0846Z" fill="#E6E6E6"/>
<path d="M130.574 53.0846V60.8592C130.574 61.4338 130.802 61.9849 131.209 62.3912C131.615 62.7975 132.166 63.0258 132.741 63.0258C133.026 63.0266 133.308 62.9712 133.571 62.8626C133.834 62.754 134.073 62.5944 134.275 62.3931C134.476 62.1917 134.636 61.9525 134.744 61.6893C134.853 61.4261 134.908 61.144 134.907 60.8592V53.0846C134.907 52.5099 134.679 51.9589 134.273 51.5526C133.867 51.1462 133.315 50.918 132.741 50.918C132.167 50.9196 131.617 51.1484 131.211 51.5544C130.805 51.9603 130.576 52.5105 130.574 53.0846Z" fill="#E6E6E6"/>
<path d="M118.396 53.0846V60.8592C118.396 61.1437 118.453 61.4255 118.561 61.6883C118.67 61.9512 118.83 62.19 119.031 62.3912C119.232 62.5924 119.471 62.752 119.734 62.8609C119.997 62.9698 120.279 63.0258 120.563 63.0258C120.848 63.0258 121.129 62.9698 121.392 62.8609C121.655 62.752 121.894 62.5924 122.095 62.3912C122.296 62.19 122.456 61.9512 122.565 61.6883C122.674 61.4255 122.73 61.1437 122.73 60.8592V53.0846C122.728 52.5126 122.501 51.9644 122.098 51.5588C121.694 51.1532 121.148 50.9229 120.576 50.918C120.29 50.9172 120.008 50.9725 119.744 51.081C119.48 51.1894 119.24 51.3488 119.037 51.55C118.835 51.7511 118.674 51.9902 118.564 52.2535C118.454 52.5168 118.397 52.7992 118.396 53.0846Z" fill="#E6E6E6"/>
<path d="M106.22 53.0846V60.8592C106.219 61.144 106.274 61.4261 106.383 61.6893C106.492 61.9525 106.651 62.1917 106.852 62.3931C107.054 62.5944 107.293 62.754 107.556 62.8626C107.819 62.9712 108.102 63.0266 108.386 63.0258C108.957 63.0208 109.503 62.7902 109.904 62.3842C110.305 61.9783 110.529 61.43 110.528 60.8592V53.0846C110.528 52.511 110.3 51.9609 109.895 51.5548C109.49 51.1486 108.941 50.9196 108.367 50.918C107.796 50.9229 107.25 51.1534 106.848 51.5592C106.445 51.965 106.22 52.5132 106.22 53.0846Z" fill="#E6E6E6"/>
<path d="M94.043 53.0846V60.8592C94.0422 61.1434 94.0974 61.425 94.2056 61.6879C94.3138 61.9507 94.4728 62.1896 94.6735 62.3908C94.8742 62.5921 95.1126 62.7518 95.3751 62.8608C95.6376 62.9697 95.9191 63.0258 96.2033 63.0258C96.4881 63.0266 96.7702 62.9712 97.0334 62.8626C97.2966 62.754 97.5358 62.5944 97.7372 62.3931C97.9385 62.1917 98.0981 61.9525 98.2067 61.6893C98.3152 61.4261 98.3707 61.144 98.3699 60.8592V53.0846C98.3699 52.5099 98.1416 51.9589 97.7353 51.5526C97.329 51.1462 96.7779 50.918 96.2033 50.918C95.6298 50.9196 95.0803 51.1486 94.6753 51.5548C94.2704 51.9609 94.043 52.511 94.043 53.0846Z" fill="#E6E6E6"/>
<path d="M81.8594 53.0846V60.8592C81.8594 61.1437 81.9154 61.4255 82.0243 61.6883C82.1332 61.9512 82.2928 62.19 82.494 62.3912C82.6951 62.5924 82.934 62.752 83.1968 62.8609C83.4597 62.9698 83.7415 63.0258 84.026 63.0258C84.3105 63.0258 84.5922 62.9698 84.8551 62.8609C85.118 62.752 85.3568 62.5924 85.558 62.3912C85.7592 62.19 85.9188 61.9512 86.0276 61.6883C86.1365 61.4255 86.1926 61.1437 86.1926 60.8592V53.0846C86.1909 52.5105 85.9621 51.9603 85.5562 51.5544C85.1502 51.1484 84.6001 50.9196 84.026 50.918C83.4519 50.9196 82.9017 51.1484 82.4958 51.5544C82.0898 51.9603 81.861 52.5105 81.8594 53.0846Z" fill="#E6E6E6"/>
<path d="M116.726 167.952C116.726 169.723 117.429 171.421 118.681 172.673C119.933 173.924 121.631 174.628 123.402 174.628H39.9969C38.2264 174.628 36.5285 173.924 35.2765 172.673C34.0246 171.421 33.3213 169.723 33.3213 167.952H116.726Z" fill="#E6E6E6"/>
<path d="M157 268.508C224.248 268.508 278.763 265.325 278.763 261.399C278.763 257.473 224.248 254.29 157 254.29C89.7524 254.29 35.2373 257.473 35.2373 261.399C35.2373 265.325 89.7524 268.508 157 268.508Z" fill="#F5F5F5"/>
<path opacity="0.2" d="M169.303 201.419C169.303 201.419 123.151 228.668 123.151 254.485H215.467C215.461 228.668 169.303 201.419 169.303 201.419Z" fill="#93CBFA"/>
<path opacity="0.2" d="M169.303 233.93C169.303 233.93 126.687 244.486 126.687 254.484H211.919C211.919 244.486 169.303 233.93 169.303 233.93Z" fill="#93CBFA"/>
<path opacity="0.3" d="M174.904 208.942C183.571 217.464 200.414 236.348 200.414 254.485H188.865C188.865 236.348 179.646 217.464 174.904 208.942Z" fill="white"/>
<path opacity="0.2" d="M169.303 201.419C169.303 201.419 123.151 174.17 123.151 148.353H215.467C215.461 174.17 169.303 201.419 169.303 201.419Z" fill="#93CBFA"/>
<path opacity="0.2" d="M169.303 198.931C169.303 198.931 145.74 187.627 145.74 176.889H192.872C192.872 187.609 169.303 198.931 169.303 198.931Z" fill="#93CBFA"/>
<path opacity="0.3" d="M164.272 193.895C155.612 185.373 138.788 166.489 138.788 148.353H150.337C150.312 166.489 159.512 185.373 164.272 193.895Z" fill="white"/>
<path opacity="0.3" d="M174.904 193.895C183.571 185.373 199.993 164.304 200.414 148.353H197.336C195.892 167.802 181.762 185.649 174.904 193.895Z" fill="white"/>
<path d="M209.193 139.24H203.962V139.868H209.193V139.24Z" fill="#93CBFA"/>
<path d="M226.953 147.869H226.325C226.323 145.749 225.481 143.716 223.982 142.216C222.483 140.716 220.451 139.872 218.331 139.868H212.811V139.24H218.331C220.617 139.245 222.808 140.156 224.424 141.773C226.04 143.391 226.95 145.583 226.953 147.869Z" fill="#93CBFA"/>
<path d="M218.325 141.438H120.281C116.73 141.438 113.851 144.318 113.851 147.869V148.836C113.851 152.388 116.73 155.267 120.281 155.267H218.325C221.876 155.267 224.755 152.388 224.755 148.836V147.869C224.755 144.318 221.876 141.438 218.325 141.438Z" fill="#93CBFA"/>
<path d="M218.325 247.57H120.281C116.73 247.57 113.851 250.449 113.851 254.001V254.968C113.851 258.52 116.73 261.399 120.281 261.399H218.325C221.876 261.399 224.755 258.52 224.755 254.968V254.001C224.755 250.449 221.876 247.57 218.325 247.57Z" fill="#93CBFA"/>
<path d="M88.3721 191.238L84.1143 187.458L91.3739 176.311L95.6318 180.085L88.3721 191.238Z" fill="#FF8B7B"/>
<path d="M84.9936 185.059L90.4069 188.827C90.4531 188.856 90.4932 188.894 90.5248 188.938C90.5565 188.982 90.5791 189.032 90.5913 189.085C90.6036 189.138 90.6052 189.193 90.5962 189.247C90.5872 189.301 90.5677 189.352 90.5388 189.398L87.8259 193.87C87.6696 194.095 87.4312 194.249 87.1621 194.3C86.893 194.35 86.6149 194.293 86.3877 194.14C84.5037 192.802 83.8066 192.149 81.5521 190.328C79.3238 188.577 77.1858 186.713 75.1465 184.745C73.4761 183.012 75.2407 181.335 76.1262 181.932C78.2174 183.351 81.8536 184.915 83.9574 184.789C84.3233 184.76 84.6883 184.855 84.9936 185.059Z" fill="#263238"/>
<path opacity="0.2" d="M95.6255 180.091L91.3677 176.311L87.876 181.68L92.2406 185.304L95.6255 180.091Z" fill="black"/>
<path d="M138.945 124.406C138.945 124.406 110.371 122.453 106.83 132.137C98.7723 154.155 88.291 177.51 88.291 177.51L96.7125 183.608C96.7125 183.608 114.516 156.384 119.948 138.907C130.938 141.576 150.808 143.856 157.208 136.508C162.671 130.228 158.583 124.406 158.583 124.406H138.945Z" fill="#263238"/>
<path opacity="0.3" d="M114.472 141.52C113.806 144.207 112.795 151.907 112.167 157.012C113.555 154.324 114.874 151.599 116.061 148.936L114.472 141.52Z" fill="black"/>
<path d="M96.172 186.365L86.6201 178.88L88.5732 174.685L99.2492 182.842L96.172 186.365Z" fill="#93CBFA"/>
<path d="M82.7011 184.714C83.144 185.002 83.6154 185.244 84.1078 185.436C84.1324 185.444 84.1588 185.446 84.1841 185.44C84.2094 185.434 84.2325 185.422 84.2509 185.403C84.2692 185.385 84.282 185.362 84.2878 185.336C84.2936 185.311 84.2922 185.285 84.2837 185.26C84.2021 185.047 83.4861 183.169 82.7388 182.987C82.6531 182.967 82.5638 182.97 82.4793 182.994C82.3947 183.018 82.3177 183.063 82.2552 183.125C82.1502 183.208 82.0688 183.318 82.0192 183.442C81.9696 183.567 81.9536 183.702 81.9726 183.835C82.0997 184.207 82.3589 184.52 82.7011 184.714ZM83.9132 185.059C82.9272 184.632 82.3118 184.161 82.2427 183.803C82.2319 183.716 82.2448 183.627 82.2802 183.546C82.3156 183.466 82.372 183.396 82.4436 183.345C82.4727 183.314 82.5095 183.291 82.5504 183.278C82.5913 183.266 82.6346 183.265 82.676 183.276C83.0779 183.376 83.5992 184.312 83.9132 185.059Z" fill="#93CBFA"/>
<path d="M84.0762 185.417C84.0968 185.423 84.1185 185.423 84.139 185.417C84.1625 185.42 84.1862 185.416 84.2081 185.408C84.23 185.399 84.2494 185.385 84.2646 185.367C84.3086 185.317 85.3762 184.004 85.2192 183.194C85.1985 183.09 85.1543 182.993 85.0901 182.909C85.0259 182.825 84.9433 182.757 84.8487 182.71C84.7522 182.65 84.6386 182.623 84.5252 182.633C84.4118 182.643 84.3048 182.69 84.2207 182.767C83.7434 183.213 83.7622 184.72 84.0448 185.342C84.049 185.369 84.0598 185.395 84.0762 185.417ZM84.7733 183.012C84.8187 183.042 84.8577 183.081 84.8879 183.126C84.9181 183.171 84.9389 183.222 84.9492 183.276C85.0434 183.753 84.5347 184.576 84.2018 185.028C84.026 184.4 84.0825 183.282 84.3902 182.993C84.453 182.937 84.541 182.88 84.7231 182.993L84.7733 183.012Z" fill="#93CBFA"/>
<path d="M125.914 197.826L120.419 198.925L119.401 184.211L124.984 184.387L125.914 197.826Z" fill="#FF8B7B"/>
<path d="M119.672 196.915L125.952 194.271C126.003 194.246 126.059 194.231 126.116 194.228C126.173 194.225 126.231 194.233 126.285 194.253C126.338 194.272 126.388 194.302 126.43 194.341C126.472 194.38 126.506 194.427 126.53 194.479L128.928 199.302C129.038 199.563 129.041 199.856 128.937 200.119C128.832 200.382 128.628 200.594 128.37 200.708C126.172 201.594 125.079 201.902 122.322 203.07C120.626 203.786 116.042 205.858 113.593 206.467C111.144 207.076 110.591 204.621 111.583 204.144C113.932 203.013 117.825 199.565 118.874 197.663C119.053 197.334 119.333 197.072 119.672 196.915Z" fill="#263238"/>
<path d="M118.108 198.725C118.603 198.498 119.072 198.221 119.509 197.896C119.53 197.879 119.547 197.857 119.557 197.831C119.567 197.806 119.57 197.778 119.565 197.751C119.558 197.725 119.543 197.701 119.523 197.682C119.503 197.663 119.479 197.65 119.452 197.644C119.226 197.594 117.191 197.186 116.62 197.739C116.555 197.802 116.507 197.88 116.482 197.967C116.456 198.054 116.454 198.147 116.475 198.235C116.489 198.371 116.539 198.5 116.62 198.611C116.7 198.721 116.809 198.808 116.934 198.863C117.329 198.964 117.747 198.915 118.108 198.725ZM119.069 197.858C118.158 198.486 117.411 198.756 117.04 198.611C116.958 198.574 116.887 198.514 116.836 198.438C116.785 198.363 116.756 198.275 116.752 198.184C116.739 198.142 116.739 198.097 116.75 198.053C116.761 198.01 116.783 197.971 116.814 197.94C117.122 197.644 118.253 197.72 119.069 197.858Z" fill="#93CBFA"/>
<path d="M119.477 197.914C119.498 197.903 119.517 197.889 119.533 197.87C119.544 197.85 119.549 197.827 119.549 197.805C119.549 197.782 119.544 197.759 119.533 197.739C119.533 197.67 118.956 196.012 118.164 195.704C118.063 195.663 117.953 195.647 117.844 195.657C117.734 195.667 117.629 195.702 117.536 195.76C117.426 195.81 117.336 195.895 117.281 196.002C117.226 196.11 117.21 196.233 117.235 196.351C117.361 196.979 118.686 197.827 119.383 197.921C119.414 197.931 119.447 197.929 119.477 197.914ZM117.762 195.974C117.814 195.952 117.87 195.941 117.926 195.941C117.982 195.941 118.037 195.952 118.089 195.974C118.56 196.156 118.993 197.054 119.207 197.594C118.579 197.387 117.618 196.74 117.536 196.3C117.536 196.219 117.536 196.112 117.706 196.012L117.762 195.974Z" fill="#93CBFA"/>
<path opacity="0.2" d="M124.991 184.393L119.401 184.211L119.935 191.898L125.499 191.797L124.991 184.393Z" fill="black"/>
<path d="M152.824 124.406C152.824 124.406 112.004 128.268 113.473 140.558C115.621 158.287 117.191 189.329 117.191 189.329L127.597 189.737C127.597 189.737 131.503 162.444 129.217 144.289C139.787 144.289 162.746 144.848 166.784 139.384C171.576 132.903 169.359 124.406 169.359 124.406H152.824Z" fill="#263238"/>
<path d="M128.746 190.378L116.255 189.756L115.81 184.324L129.506 185.266L128.746 190.378Z" fill="#93CBFA"/>
<path d="M143.762 88.416C143.674 89.5401 143.574 90.5386 143.435 91.5874C143.297 92.6362 143.165 93.6598 143.002 94.696C142.701 96.7621 142.286 98.8157 141.821 100.882C141.357 102.948 140.785 105.008 140.069 107.086C139.343 109.273 138.389 111.378 137.225 113.366C136.529 114.536 135.685 115.611 134.713 116.563C134.455 116.804 134.185 117.03 133.902 117.241C133.645 117.455 133.387 117.637 133.124 117.819C132.622 118.173 132.099 118.498 131.56 118.792C129.568 119.876 127.462 120.733 125.28 121.348C124.244 121.669 123.201 121.926 122.14 122.158C121.079 122.391 120.068 122.592 119 122.755C116.922 123.095 114.824 123.305 112.72 123.383C112.201 123.405 111.692 123.238 111.287 122.914C110.881 122.589 110.607 122.129 110.515 121.618C110.423 121.106 110.52 120.579 110.787 120.134C111.053 119.688 111.472 119.355 111.966 119.194L112.048 119.163C115.731 117.998 119.343 116.622 122.868 115.043C124.489 114.31 126.04 113.431 127.503 112.418C127.836 112.18 128.131 111.935 128.433 111.69C128.571 111.57 128.715 111.451 128.834 111.325C128.946 111.225 129.051 111.118 129.148 111.005C129.565 110.501 129.924 109.951 130.216 109.366C130.978 107.818 131.59 106.201 132.044 104.537C132.552 102.772 132.992 100.932 133.356 99.0606C133.72 97.1892 134.047 95.2926 134.355 93.3709C134.662 91.4492 134.895 89.4899 135.108 87.6687V87.5619C135.265 86.4607 135.842 85.4627 136.717 84.7764C137.593 84.0901 138.7 83.7684 139.807 83.8787C140.914 83.9889 141.935 84.5224 142.658 85.3679C143.381 86.2133 143.75 87.3054 143.687 88.416H143.762Z" fill="#93CBFA"/>
<path d="M112.927 118.063L109.787 118.258L112.299 124.036C112.299 124.036 117.731 123.916 117.618 121.241L116.639 119.985C116.19 119.421 115.628 118.959 114.988 118.628C114.349 118.297 113.646 118.104 112.927 118.063Z" fill="#FF8B7B"/>
<path d="M106.346 118.736L109.059 124.049H112.293L109.781 118.271L106.346 118.736Z" fill="#FF8B7B"/>
<path d="M143.309 79.5109L149.382 78.2549L154.218 77.5578C154.909 77.4449 155.61 77.4133 156.309 77.4636C158.164 77.6319 159.925 78.3624 161.354 79.5575C162.784 80.7526 163.815 82.3554 164.309 84.1518C165.522 88.5478 166.614 93.9424 167.449 98.7214C168.618 105.359 169.22 115.332 169.333 124.4H140.565C139.937 107.978 136.445 97.3964 135.258 90.8338C134.901 88.8525 135.204 86.8087 136.122 85.017C137.04 83.2252 138.522 81.7849 140.339 80.9176L143.309 79.5109Z" fill="#93CBFA"/>
<path d="M140.565 83.1218C140.635 85.8222 141.193 95.4494 144.089 100.919C144.597 95.7948 150.683 80.1953 150.683 80.1953L140.565 83.1218Z" fill="#F5F5F5"/>
<path opacity="0.3" d="M168.109 103.23C168.109 103.13 168.109 103.036 168.072 102.929L168.015 102.477C167.984 102.232 167.952 101.987 167.921 101.755L167.827 101.083L167.733 100.455C167.733 100.279 167.676 100.097 167.651 99.9272C167.588 99.5253 167.525 99.1359 167.456 98.7528C167.249 97.5785 167.029 96.3602 166.791 95.1356V95.0351C166.552 93.7791 166.307 92.567 166.043 91.3424V91.2608C165.936 90.7333 165.823 90.2183 165.704 89.6971L165.572 89.1193L165.346 88.1208L165.158 87.3421L165.12 87.1788C164.869 86.1489 164.611 85.1378 164.348 84.1832L159.983 81.8848C160.485 83.8127 160.963 85.9354 161.415 88.1082C160.893 88.3816 160.411 88.7261 159.983 89.1319C158.941 90.0613 158.978 92.0395 160.021 94.382C162.906 101.08 164.504 108.262 164.731 115.552C164.863 118.51 164.944 121.505 164.982 124.413H169.378C169.252 117.21 168.85 109.448 168.109 103.23Z" fill="black"/>
<path d="M147.121 67.4092L144.653 71.1772L141.3 76.2954C141.731 76.7351 142.082 77.2474 142.336 77.8089C142.964 79.0649 143.454 79.9692 140.86 81.7339C140.307 82.1107 140.289 82.7073 140.414 83.3667C140.565 84.1705 141.042 85.012 143.83 84.5159C146.525 83.9975 148.985 82.6336 150.852 80.6223C151.781 79.6866 151.567 78.9895 150.669 78.0224C148.132 75.2906 147.372 70.926 147.121 67.4092Z" fill="#FF8B7B"/>
<path d="M141.193 84.6107L142.971 85.7285L145.859 84.5039C145.178 83.8165 144.301 83.3579 143.347 83.1914C142.517 83.4668 141.774 83.9564 141.193 84.6107Z" fill="#263238"/>
<path d="M143.316 83.1907C144.641 83.7371 145.307 84.9679 145.91 86.3872C145.91 86.3872 152.259 81.5767 152.391 78.4053C152.052 77.3252 150.463 77.5136 150.463 77.5136C150.463 77.5136 148.529 80.8671 143.316 83.1907Z" fill="white"/>
<path d="M143.316 83.1907C142.697 83.4412 142.171 83.878 141.811 84.4405C141.451 85.0031 141.274 85.6636 141.306 86.3307C141.306 86.3307 138.48 83.0149 140.779 80.5092C141.402 80.182 142.065 79.9351 142.751 79.7744C142.751 79.7744 142.06 81.156 143.316 83.1907Z" fill="white"/>
<path d="M143.53 85.207H142.72C142.456 85.6592 142.092 91.5498 141.947 94.6836C142.335 96.5131 142.906 98.2992 143.649 100.015C143.647 100.036 143.647 100.057 143.649 100.078C143.693 100.179 143.737 100.273 143.787 100.367C143.875 100.555 143.963 100.744 144.064 100.92C144.354 98.9742 144.805 97.0564 145.414 95.186C144.585 91.5561 143.53 85.207 143.53 85.207Z" fill="#263238"/>
<path opacity="0.2" d="M142.129 75.0334L144.189 71.3848C144.227 71.4727 144.277 71.5794 144.327 71.6799C144.508 72.1353 144.655 72.6034 144.767 73.0804C145.144 74.7069 143.888 77.0179 142.5 78.1044C142.443 78.0039 142.393 77.8971 142.337 77.7904C142.09 77.2631 141.77 76.7728 141.388 76.3334L141.307 76.2706L142.129 75.0334Z" fill="black"/>
<path d="M132.094 67.196C131.598 64.9666 135.146 61.8832 135.146 61.8832L130.944 60.4199C129.048 61.7827 130.279 65.67 132.094 67.196Z" fill="#263238"/>
<path d="M146.248 60.7529C147.241 66.3296 148.132 69.5449 146.035 73.1057C145.378 74.2749 144.413 75.242 143.246 75.9025C142.078 76.563 140.752 76.8916 139.412 76.8528C138.071 76.814 136.766 76.4092 135.639 75.6823C134.512 74.9555 133.605 73.9341 133.016 72.7289C130.661 68.1319 129.437 59.7921 134.228 56.1308C135.244 55.3122 136.457 54.7748 137.745 54.5725C139.034 54.3702 140.353 54.5101 141.57 54.9783C142.788 55.4464 143.861 56.2263 144.682 57.2398C145.503 58.2533 146.043 59.4648 146.248 60.7529Z" fill="#FF8B7B"/>
<path d="M146.324 66.3923L143.686 65.6701V62.2789C143.686 62.2789 140.352 60.3949 140.867 58.0399C141.122 56.7159 141.481 55.414 141.94 54.1463C141.94 54.1463 147.228 53.8072 148.848 54.4854C148.429 54.9401 147.973 55.3601 147.486 55.7414C148.754 56.6186 149.841 57.7316 150.688 59.0196C150.026 59.1671 149.407 59.4659 148.88 59.8925C148.88 59.8925 149.571 64.546 146.324 66.3923Z" fill="#263238"/>
<path d="M140.258 50.5288C142.198 51.7471 141.074 53.9828 141.074 53.9828L146.268 54.0895C145.991 52.4505 141.489 50.4471 140.258 50.5288Z" fill="#263238"/>
<path d="M142.286 59.1829C141.915 60.2254 137.708 61.5065 133.871 61.6321C131.958 61.5906 130.066 61.2342 128.269 60.5771C128.811 60.0207 129.449 59.5674 130.153 59.2394C127.836 58.668 124.903 56.6332 124.093 54.9753C125.785 54.3706 127.612 54.2531 129.368 54.6362C128.793 54.1512 128.321 53.5565 127.98 52.8869C127.638 52.2172 127.433 51.4861 127.377 50.7363C127.377 50.7363 137.199 54.6299 140.98 53.016C145.087 51.2576 148.208 54.5546 145.508 57.0666C142.807 59.5786 142.286 59.1829 142.286 59.1829Z" fill="#263238"/>
<path d="M149.25 64.7906C149.304 66.0206 148.904 67.2273 148.126 68.1818C147.109 69.3939 145.526 68.4267 145.162 66.9258C144.836 65.5631 145.263 63.4593 146.6 62.8061C147.938 62.153 149.181 63.2646 149.25 64.7906Z" fill="#FF8B7B"/>
<path d="M137.758 65.9403C137.896 66.3799 137.758 66.8132 137.507 66.92C137.255 67.0267 136.879 66.7504 136.734 66.292C136.59 65.8335 136.734 65.4191 136.985 65.3123C137.237 65.2055 137.613 65.4756 137.758 65.9403Z" fill="#263238"/>
<path d="M132.892 67.6988C133.03 68.1321 132.892 68.5717 132.64 68.6722C132.389 68.7727 132.012 68.5089 131.868 68.0442C131.724 67.5795 131.868 67.1713 132.119 67.0708C132.37 66.9703 132.747 67.2592 132.892 67.6988Z" fill="#263238"/>
<path d="M134.556 67.4658C134.576 68.7655 134.424 70.0621 134.104 71.3217C134.422 71.3895 134.752 71.3858 135.069 71.3109C135.386 71.236 135.683 71.0917 135.937 70.8884L134.556 67.4658Z" fill="#A02724"/>
<path d="M137.532 72.5649C138.036 72.3958 138.502 72.1276 138.901 71.776C139.3 71.4244 139.624 70.9966 139.856 70.5176C139.868 70.4842 139.867 70.4473 139.853 70.4145C139.839 70.3818 139.813 70.3557 139.78 70.3418C139.764 70.3345 139.747 70.3306 139.729 70.3301C139.712 70.3297 139.694 70.3328 139.678 70.3392C139.661 70.3456 139.646 70.3553 139.634 70.3676C139.621 70.3799 139.611 70.3946 139.604 70.4108C139.349 70.9302 138.978 71.3839 138.52 71.7368C138.061 72.0896 137.528 72.3321 136.96 72.4456C136.943 72.4492 136.926 72.4564 136.912 72.4667C136.897 72.4771 136.884 72.4903 136.875 72.5056C136.866 72.5208 136.859 72.5379 136.857 72.5556C136.854 72.5734 136.855 72.5915 136.86 72.6088C136.867 72.643 136.888 72.6727 136.918 72.6916C136.947 72.7104 136.983 72.7168 137.017 72.7093C137.192 72.6724 137.364 72.6242 137.532 72.5649Z" fill="#263238"/>
<path d="M138.838 63.365C138.877 63.3419 138.91 63.3095 138.933 63.2708C138.953 63.2416 138.966 63.2088 138.973 63.1743C138.98 63.1397 138.98 63.1041 138.973 63.0696C138.966 63.035 138.952 63.0023 138.932 62.9732C138.912 62.9441 138.887 62.9193 138.857 62.9002C138.504 62.664 138.099 62.5176 137.676 62.4738C137.254 62.4301 136.827 62.4902 136.433 62.649C136.401 62.6643 136.372 62.6857 136.348 62.7121C136.324 62.7385 136.306 62.7694 136.294 62.8029C136.282 62.8365 136.277 62.872 136.279 62.9076C136.28 62.9431 136.289 62.978 136.304 63.0101C136.32 63.0423 136.341 63.0711 136.368 63.095C136.394 63.1189 136.425 63.1373 136.458 63.1493C136.492 63.1613 136.527 63.1665 136.563 63.1647C136.599 63.1629 136.633 63.1541 136.666 63.1389C136.973 63.0194 137.306 62.9764 137.634 63.0136C137.962 63.0508 138.276 63.167 138.55 63.3524C138.592 63.3817 138.641 63.3984 138.692 63.4006C138.743 63.4028 138.794 63.3905 138.838 63.365Z" fill="#263238"/>
<path d="M131.924 65.0545C131.936 65.0114 131.936 64.9658 131.924 64.9227C131.896 64.8571 131.843 64.8051 131.777 64.7781C131.712 64.751 131.638 64.7511 131.572 64.7782C131.176 64.9318 130.825 65.1807 130.549 65.5028C130.273 65.8249 130.081 66.2102 129.989 66.6245C129.988 66.6896 130.01 66.7531 130.051 66.8033C130.093 66.8535 130.151 66.887 130.215 66.8977C130.279 66.9084 130.345 66.8955 130.401 66.8615C130.456 66.8275 130.497 66.7745 130.517 66.7125C130.595 66.3894 130.75 66.09 130.969 65.8396C131.187 65.5892 131.463 65.3953 131.773 65.2743C131.815 65.2539 131.851 65.2228 131.877 65.1843C131.904 65.1458 131.92 65.1011 131.924 65.0545Z" fill="#263238"/>
<path d="M162.973 81.4512C163.663 82.3053 164.266 83.0777 164.857 83.9004C165.447 84.7231 166.062 85.5395 166.64 86.3747C167.814 88.0389 168.907 89.7659 169.975 91.5243C171.042 93.2827 172.035 95.1165 172.926 97.057C173.894 99.0702 174.662 101.174 175.219 103.337C175.531 104.595 175.695 105.885 175.708 107.18C175.693 108.476 175.507 109.764 175.156 111.011C174.53 113.183 173.618 115.261 172.443 117.191C171.903 118.114 171.319 118.999 170.71 119.853C170.1 120.707 169.454 121.536 168.826 122.334C167.515 123.938 166.09 125.445 164.561 126.843C164.179 127.184 163.688 127.377 163.176 127.388C162.664 127.4 162.164 127.228 161.767 126.904C161.37 126.581 161.102 126.126 161.009 125.622C160.917 125.119 161.008 124.598 161.264 124.155L161.321 124.061C163.271 120.897 164.976 117.588 166.42 114.164C167.068 112.62 167.54 111.009 167.827 109.36C167.932 108.697 167.96 108.025 167.909 107.356C167.833 106.694 167.69 106.042 167.482 105.409C166.938 103.804 166.256 102.249 165.441 100.762C164.605 99.1859 163.663 97.6222 162.659 96.0333C161.654 94.4445 160.599 92.8933 159.519 91.3673L157.867 89.0688C157.314 88.3215 156.737 87.5239 156.215 86.8394L156.178 86.7892C155.47 85.8914 155.148 84.7493 155.282 83.614C155.416 82.4786 155.996 81.4431 156.894 80.7353C157.791 80.0274 158.933 79.7052 160.069 79.8394C161.204 79.9737 162.24 80.5534 162.947 81.4512H162.973Z" fill="#93CBFA"/>
<path d="M103.137 127.779L156.567 125.361C156.735 125.35 156.904 125.373 157.064 125.429C157.223 125.485 157.37 125.572 157.495 125.686C157.62 125.8 157.72 125.937 157.791 126.091C157.861 126.244 157.9 126.411 157.904 126.579L101.918 129.091C101.911 128.925 101.936 128.759 101.994 128.602C102.051 128.446 102.139 128.302 102.252 128.18C102.366 128.058 102.502 127.959 102.654 127.891C102.806 127.822 102.97 127.784 103.137 127.779Z" fill="#93CBFA"/>
<g opacity="0.6">
<path d="M103.137 127.779L156.567 125.361C156.735 125.35 156.904 125.373 157.064 125.429C157.223 125.485 157.37 125.572 157.495 125.686C157.62 125.8 157.72 125.937 157.791 126.091C157.861 126.244 157.9 126.411 157.904 126.579L101.918 129.091C101.911 128.925 101.936 128.759 101.994 128.602C102.051 128.446 102.139 128.302 102.252 128.18C102.366 128.058 102.502 127.959 102.654 127.891C102.806 127.822 102.97 127.784 103.137 127.779Z" fill="white"/>
</g>
<path d="M94.6337 102.992L132.646 101.271C132.89 101.275 133.127 101.353 133.325 101.496C133.523 101.639 133.672 101.839 133.752 102.069L141.049 125.223C141.088 125.319 141.103 125.423 141.093 125.526C141.083 125.629 141.047 125.727 140.989 125.813C140.931 125.899 140.853 125.969 140.762 126.017C140.67 126.066 140.568 126.091 140.465 126.09L102.452 127.811C102.21 127.808 101.974 127.731 101.777 127.589C101.58 127.448 101.432 127.249 101.353 127.019L94.0559 103.859C94.0168 103.764 94.0017 103.66 94.0119 103.558C94.022 103.456 94.0572 103.357 94.1143 103.272C94.1713 103.186 94.2485 103.116 94.3391 103.067C94.4296 103.018 94.5308 102.993 94.6337 102.992Z" fill="#93CBFA"/>
<path opacity="0.6" d="M94.6337 102.992L132.646 101.271C132.89 101.275 133.127 101.353 133.325 101.496C133.523 101.639 133.672 101.839 133.752 102.069L141.049 125.223C141.088 125.319 141.103 125.423 141.093 125.526C141.083 125.629 141.047 125.727 140.989 125.813C140.931 125.899 140.853 125.969 140.762 126.017C140.67 126.066 140.568 126.091 140.465 126.09L102.452 127.811C102.21 127.808 101.974 127.731 101.777 127.589C101.58 127.448 101.432 127.249 101.353 127.019L94.0559 103.859C94.0168 103.764 94.0017 103.66 94.0119 103.558C94.022 103.456 94.0572 103.357 94.1143 103.272C94.1713 103.186 94.2485 103.116 94.3391 103.067C94.4296 103.018 94.5308 102.993 94.6337 102.992Z" fill="white"/>
<path opacity="0.5" d="M133.764 102.062L141.062 125.217C141.102 125.313 141.119 125.417 141.109 125.521C141.099 125.624 141.063 125.724 141.006 125.811C140.948 125.897 140.869 125.968 140.777 126.017C140.685 126.065 140.582 126.09 140.478 126.089L132.659 101.265C132.903 101.268 133.14 101.346 133.338 101.489C133.535 101.632 133.684 101.832 133.764 102.062Z" fill="#93CBFA"/>
<path opacity="0.5" d="M142.518 125.996L156.566 125.368C156.735 125.357 156.904 125.38 157.063 125.436C157.223 125.492 157.369 125.579 157.494 125.693C157.619 125.806 157.72 125.944 157.79 126.098C157.86 126.251 157.899 126.417 157.904 126.586L141.3 127.334C141.289 127.165 141.312 126.996 141.367 126.837C141.423 126.677 141.511 126.531 141.624 126.406C141.738 126.281 141.876 126.18 142.029 126.11C142.183 126.039 142.349 126.001 142.518 125.996Z" fill="#93CBFA"/>
<path d="M160.266 123.892L156.674 124.413L160.354 129.531C160.354 129.531 166.201 128.596 165.522 126.002L164.266 124.96C163.711 124.512 163.068 124.185 162.379 124.002C161.69 123.818 160.97 123.78 160.266 123.892Z" fill="#FF8B7B"/>
<path d="M152.277 125.945L156.78 129.87L160.353 129.531L156.673 124.413L152.277 125.945Z" fill="#FF8B7B"/>
</svg>
