<svg width="542" height="542" viewBox="0 0 542 542" fill="none" xmlns="http://www.w3.org/2000/svg">
<path d="M542 414.521H0V414.792H542V414.521Z" fill="#EBEBEB"/>
<path d="M487.691 431.963H451.789V432.234H487.691V431.963Z" fill="#EBEBEB"/>
<path d="M326.761 432.104H317.341V432.375H326.761V432.104Z" fill="#EBEBEB"/>
<path d="M450.695 421.903H384.094V422.174H450.695V421.903Z" fill="#EBEBEB"/>
<path d="M244.052 428.3H230.296V428.571H244.052V428.3Z" fill="#EBEBEB"/>
<path d="M220.648 428.3H180.725V428.571H220.648V428.3Z" fill="#EBEBEB"/>
<path d="M84.4323 423.725H56.8662V423.996H84.4323V423.725Z" fill="#EBEBEB"/>
<path d="M172.117 423.725H90.9365V423.996H172.117V423.725Z" fill="#EBEBEB"/>
<path d="M256.908 366.175H47.5987C45.959 366.172 44.3874 365.519 43.229 364.359C42.0706 363.198 41.4199 361.625 41.4199 359.986V65.7556C41.4342 64.1252 42.0911 62.5664 43.248 61.4176C44.4049 60.2688 45.9684 59.6229 47.5987 59.6201H256.908C258.55 59.6201 260.124 60.2722 261.285 61.433C262.446 62.5938 263.098 64.1682 263.098 65.8098V359.986C263.098 361.627 262.446 363.202 261.285 364.362C260.124 365.523 258.55 366.175 256.908 366.175ZM47.5987 59.8369C46.0309 59.8398 44.5282 60.4646 43.4206 61.5743C42.313 62.6839 41.6909 64.1877 41.6909 65.7556V359.986C41.6909 361.553 42.313 363.057 43.4206 364.167C44.5282 365.277 46.0309 365.901 47.5987 365.904H256.908C258.477 365.901 259.981 365.277 261.09 364.168C262.2 363.058 262.824 361.554 262.827 359.986V65.7556C262.824 64.1867 262.2 62.683 261.09 61.5736C259.981 60.4643 258.477 59.8398 256.908 59.8369H47.5987Z" fill="#EBEBEB"/>
<path d="M491.388 366.175H282.068C280.427 366.172 278.854 365.519 277.694 364.359C276.534 363.199 275.881 361.626 275.878 359.986V65.7556C275.895 64.1243 276.554 62.5654 277.713 61.4169C278.872 60.2685 280.436 59.6229 282.068 59.6201H491.388C493.016 59.6258 494.577 60.273 495.732 61.4214C496.886 62.5699 497.542 64.1271 497.556 65.7556V359.986C497.556 361.623 496.907 363.195 495.751 364.355C494.595 365.515 493.026 366.17 491.388 366.175ZM282.068 59.8369C280.499 59.8398 278.995 60.4643 277.886 61.5736C276.776 62.683 276.152 64.1867 276.149 65.7556V359.986C276.152 361.554 276.776 363.058 277.886 364.168C278.995 365.277 280.499 365.901 282.068 365.904H491.388C492.957 365.901 494.461 365.277 495.57 364.168C496.679 363.058 497.304 361.554 497.307 359.986V65.7556C497.304 64.1867 496.679 62.683 495.57 61.5736C494.461 60.4643 492.957 59.8398 491.388 59.8369H282.068Z" fill="#EBEBEB"/>
<path d="M405.21 185.266C430.935 185.266 451.79 164.412 451.79 138.687C451.79 112.962 430.935 92.1074 405.21 92.1074C379.485 92.1074 358.631 112.962 358.631 138.687C358.631 164.412 379.485 185.266 405.21 185.266Z" fill="#E0E0E0"/>
<path d="M402.684 185.266C428.409 185.266 449.263 164.412 449.263 138.687C449.263 112.962 428.409 92.1074 402.684 92.1074C376.959 92.1074 356.104 112.962 356.104 138.687C356.104 164.412 376.959 185.266 402.684 185.266Z" fill="#F0F0F0"/>
<path d="M402.695 176.627C393.73 176.636 385.051 173.469 378.197 167.689C371.344 161.909 366.759 153.889 365.255 145.05C363.752 136.212 365.427 127.126 369.983 119.405C374.539 111.684 381.683 105.825 390.147 102.869C398.611 99.9128 407.849 100.049 416.222 103.254C424.595 106.46 431.562 112.526 435.888 120.379C440.215 128.232 441.62 137.363 439.856 146.153C438.092 154.943 433.272 162.824 426.251 168.399L426.12 168.508C419.451 173.778 411.196 176.639 402.695 176.627Z" fill="#FAFAFA"/>
<path d="M404.202 142.459C403.71 142.706 403.159 142.807 402.611 142.752C402.064 142.696 401.544 142.486 401.112 142.145L381.947 126.969C381.626 126.742 381.354 126.452 381.148 126.117C380.943 125.781 380.808 125.407 380.751 125.018C380.695 124.628 380.719 124.231 380.821 123.851C380.924 123.471 381.103 123.116 381.347 122.807C381.591 122.499 381.896 122.243 382.242 122.057C382.589 121.87 382.97 121.756 383.362 121.721C383.754 121.687 384.149 121.732 384.522 121.856C384.896 121.979 385.241 122.177 385.535 122.438L402.554 135.923L412.039 125.181C412.545 124.606 413.259 124.255 414.023 124.206C414.788 124.157 415.54 124.414 416.115 124.92C416.69 125.426 417.04 126.14 417.089 126.904C417.138 127.669 416.881 128.421 416.375 128.996L405.08 141.787C404.831 142.063 404.533 142.291 404.202 142.459Z" fill="#E0E0E0"/>
<path d="M72.1298 250.957H212.931L200.063 414.522H59.2627L72.1298 250.957Z" fill="#F0F0F0"/>
<path d="M66.037 250.957H206.827L193.96 414.522H53.1699L66.037 250.957Z" fill="#F5F5F5"/>
<path d="M172.909 391.693L182.188 273.775H87.0886L77.8096 391.693H172.909Z" fill="white"/>
<path d="M62.0375 214.838L299.878 214.838V95.8255L62.0375 95.8255L62.0375 214.838Z" fill="#E6E6E6"/>
<path d="M57.8422 214.838L295.683 214.838V95.8255L57.8422 95.8255L57.8422 214.838Z" fill="#F5F5F5"/>
<path d="M288.171 206.394V104.281L65.3655 104.281V206.394H288.171Z" fill="#FAFAFA"/>
<path d="M121.711 206.394L105.592 104.281H87.7061L103.825 206.394H121.711Z" fill="white"/>
<path d="M163.781 206.394L147.662 104.281H113.657L129.776 206.394H163.781Z" fill="white"/>
<path d="M220.009 206.394L203.89 104.281H186.004L202.123 206.394H220.009Z" fill="white"/>
<path d="M68.5303 206.394V104.281H65.365V206.394H68.5303Z" fill="#E6E6E6"/>
<path d="M60.953 187.164L292.571 187.164V175.825L60.953 175.825V187.164Z" fill="#F5F5F5"/>
<path d="M255.347 414.521H304.301V255.824H255.347L255.347 414.521Z" fill="#E6E6E6"/>
<path d="M268.42 414.522H255.347V392.614H282.121L268.42 414.522Z" fill="#F5F5F5"/>
<path d="M444.776 414.521H493.729V255.824H444.776V414.521Z" fill="#E6E6E6"/>
<path d="M255.347 406.978H456.18V255.825L255.347 255.825L255.347 406.978Z" fill="#F5F5F5"/>
<path d="M443.107 414.522H456.18V392.614H429.405L443.107 414.522Z" fill="#F5F5F5"/>
<path d="M265.482 349.98H446.033V312.149H265.482V349.98Z" fill="#F0F0F0"/>
<path d="M265.482 395.888H446.033V358.056H265.482V395.888Z" fill="#F0F0F0"/>
<path d="M292.387 316.192H419.139C421.081 316.192 422.943 315.421 424.317 314.05C425.691 312.678 426.464 310.817 426.467 308.875H285.092C285.092 310.812 285.86 312.67 287.227 314.041C288.595 315.413 290.45 316.186 292.387 316.192Z" fill="#F5F5F5"/>
<path d="M265.482 304.062H446.033V266.231H265.482V304.062Z" fill="#F0F0F0"/>
<path d="M292.387 270.285H419.139C421.081 270.285 422.943 269.514 424.317 268.142C425.691 266.77 426.464 264.909 426.467 262.968H285.092C285.092 264.905 285.86 266.762 287.227 268.134C288.595 269.506 290.45 270.279 292.387 270.285Z" fill="#F5F5F5"/>
<path d="M292.387 362.11H419.139C421.083 362.11 422.947 361.338 424.321 359.964C425.695 358.59 426.467 356.726 426.467 354.782H285.092C285.092 356.72 285.859 358.579 287.227 359.952C288.594 361.326 290.449 362.101 292.387 362.11Z" fill="#F5F5F5"/>
<path d="M271 463.475C387.077 463.475 481.177 457.981 481.177 451.204C481.177 444.427 387.077 438.934 271 438.934C154.923 438.934 60.8232 444.427 60.8232 451.204C60.8232 457.981 154.923 463.475 271 463.475Z" fill="#F5F5F5"/>
<path d="M155.377 128.384C184.718 123.373 205.658 102.64 202.146 82.0735C198.634 61.5073 172.001 48.8966 142.66 53.9068C113.318 58.917 92.3791 79.6507 95.8908 100.217C99.4026 120.783 126.035 133.394 155.377 128.384Z" fill="#93CBFA"/>
<path opacity="0.3" d="M155.377 128.384C184.718 123.373 205.658 102.64 202.146 82.0735C198.634 61.5073 172.001 48.8966 142.66 53.9068C113.318 58.917 92.3791 79.6507 95.8908 100.217C99.4026 120.783 126.035 133.394 155.377 128.384Z" fill="white"/>
<path d="M244.984 92.3032C248.236 99.0131 243.033 108.162 233.45 112.747C223.868 117.333 213.516 115.587 210.307 108.878C207.098 102.168 212.269 93.0078 221.841 88.4333C231.412 83.8588 241.732 85.6366 244.984 92.3032Z" fill="#93CBFA"/>
<path opacity="0.5" d="M244.984 92.3032C248.236 99.0131 243.033 108.162 233.45 112.747C223.868 117.333 213.516 115.587 210.307 108.878C207.098 102.168 212.269 93.0078 221.841 88.4333C231.412 83.8588 241.732 85.6366 244.984 92.3032Z" fill="white"/>
<path d="M262.122 118.851C263.055 122.872 259.141 127.208 253.396 128.531C247.651 129.853 242.242 127.663 241.32 123.631C240.399 119.599 244.301 115.273 249.992 113.951C255.683 112.628 261.244 114.818 262.122 118.851Z" fill="#93CBFA"/>
<path opacity="0.6" d="M262.122 118.851C263.055 122.872 259.141 127.208 253.396 128.531C247.651 129.853 242.242 127.663 241.32 123.631C240.399 119.599 244.301 115.273 249.992 113.951C255.683 112.628 261.244 114.818 262.122 118.851Z" fill="white"/>
<path d="M138.839 122.373C138.167 122.373 137.495 122.373 136.834 122.276C134.9 122.221 133.034 121.557 131.5 120.379C130.613 119.594 130.017 118.532 129.809 117.365C128.584 117.365 127.359 117.279 126.124 117.213C123.414 117.051 120.606 116.747 118.633 114.926C118.042 114.366 117.567 113.695 117.236 112.951C116.904 112.207 116.724 111.404 116.704 110.59C115.601 110.307 114.576 109.782 113.702 109.052C112.828 108.323 112.128 107.408 111.652 106.373C111.312 105.471 111.167 104.507 111.227 103.545C111.287 102.583 111.55 101.644 111.999 100.791C110.811 99.8852 109.75 98.8242 108.845 97.6364C106.924 95.0489 105.924 91.8932 106.005 88.6718C105.462 88.4187 105.028 87.9806 104.78 87.436C104.346 86.352 104.899 85.1379 106.341 83.9564C106.633 83.707 106.948 83.4577 107.251 83.2192C108.113 81.3427 109.367 79.6724 110.928 78.3206C112.49 76.9688 114.322 75.9668 116.303 75.3819C119.555 74.4497 122.948 74.7099 126.243 74.97H126.406C128.809 74.522 131.239 74.2216 133.679 74.0703C135.046 73.7529 136.454 73.6505 137.853 73.7668C139.262 73.1191 140.469 72.0998 141.343 70.8183C141.783 70.1274 142.167 69.4024 142.492 68.6503C142.828 67.845 143.231 67.069 143.695 66.3305C145.712 63.3062 149.625 61.5826 155.348 61.2032C162.134 60.7696 167.63 61.9403 171.684 64.6828C173.216 65.7074 174.525 67.0311 175.532 68.5744C177.564 68.6891 179.574 69.0532 181.516 69.6584C184.259 70.4497 190.643 72.8562 190.611 78.0919C190.488 79.7546 189.988 81.3675 189.147 82.8073L186.882 87.4685C186.998 88.0609 187.045 88.6647 187.023 89.268C187.455 89.4454 187.876 89.6518 188.28 89.8858C190.123 90.9698 192.031 92.9102 191.879 95.3058C191.782 96.8668 190.795 98.3736 189.007 99.8803C186.744 101.712 184.175 103.128 181.419 104.065C180.547 105.743 179.531 107.342 178.383 108.845C176.161 111.75 172.454 115.501 167.413 116.856C164.226 117.741 160.823 117.413 157.863 115.934C156.898 116.574 155.934 117.138 155.056 117.615C149.202 120.78 143.793 122.373 138.839 122.373ZM130.774 117.365C130.975 118.251 131.449 119.051 132.129 119.652C133.51 120.701 135.187 121.289 136.92 121.333C142.21 121.81 148.129 120.249 154.525 116.791C155.262 116.39 156.064 115.934 156.866 115.414C155.98 114.841 155.186 114.135 154.514 113.322C154.143 112.904 153.872 112.407 153.722 111.869C152.302 112.086 150.871 112.249 149.441 112.368C147.211 113.392 144.857 114.121 142.438 114.536C141.307 115.259 140.091 115.838 138.817 116.26C136.212 117.052 133.497 117.425 130.774 117.365ZM132.465 114.027C131.866 114.308 131.367 114.765 131.034 115.338C130.851 115.673 130.741 116.042 130.709 116.422C133.355 116.47 135.992 116.104 138.525 115.338C138.969 115.186 139.424 115.013 139.891 114.807C137.389 114.999 134.872 114.735 132.465 114.027ZM117.669 110.883C117.771 112.162 118.347 113.356 119.284 114.232C121.018 115.837 123.62 116.108 126.178 116.26C127.381 116.325 128.574 116.39 129.755 116.411C129.787 115.875 129.939 115.353 130.2 114.883C130.463 114.388 130.833 113.959 131.284 113.625C130.861 113.463 130.449 113.289 130.048 113.094V113.235C129.942 113.586 129.75 113.903 129.488 114.159C129.227 114.415 128.904 114.601 128.552 114.699C128.07 114.855 127.559 114.894 127.059 114.813C126.56 114.732 126.087 114.533 125.679 114.232C124.656 113.315 123.966 112.083 123.717 110.731C122.437 111.062 121.115 111.204 119.793 111.154C119.078 111.125 118.368 111.034 117.669 110.883ZM158.676 115.327C161.323 116.504 164.297 116.722 167.088 115.945C171.868 114.666 175.413 111.067 177.549 108.281C178.459 107.087 179.285 105.83 180.02 104.52C178.763 104.91 177.484 105.246 176.183 105.528C174.359 107.05 172.201 108.12 169.885 108.65C167.827 109.205 165.734 109.618 163.619 109.886C163.277 110.501 162.897 111.095 162.481 111.663C161.407 113.072 160.124 114.307 158.676 115.327ZM154.665 111.707C154.789 112.083 154.988 112.43 155.251 112.726C155.948 113.567 156.789 114.279 157.733 114.829C159.251 113.807 160.594 112.548 161.711 111.1C161.972 110.753 162.21 110.395 162.438 110.016L160.389 110.211C158.526 110.868 156.612 111.368 154.665 111.707ZM124.66 110.46C124.863 111.619 125.438 112.681 126.297 113.485C126.583 113.687 126.912 113.82 127.258 113.875C127.604 113.929 127.957 113.903 128.292 113.799C128.492 113.743 128.676 113.638 128.828 113.495C128.979 113.351 129.092 113.173 129.159 112.975C129.192 112.866 129.214 112.753 129.224 112.639C128.241 112.106 127.314 111.474 126.46 110.753C126.189 110.525 125.929 110.287 125.679 110.048C125.311 110.2 124.964 110.33 124.66 110.46ZM134.286 113.452C136.907 113.963 139.597 114.004 142.232 113.571C142.608 113.32 142.969 113.048 143.316 112.758H142.98C140.617 112.877 138.178 112.997 135.826 113.224C135.294 113.268 134.765 113.344 134.243 113.452H134.286ZM144.801 112.682L144.313 113.148C144.953 112.986 145.603 112.812 146.232 112.606L144.801 112.682ZM130.2 112.054C130.944 112.423 131.716 112.734 132.508 112.986C133.553 112.597 134.648 112.36 135.76 112.281C138.124 112.054 140.584 111.934 142.958 111.826L144.422 111.75C144.818 111.312 145.18 110.845 145.506 110.352C140.925 110.183 136.337 110.303 131.771 110.709C131.515 110.698 131.259 110.738 131.019 110.827C130.779 110.917 130.559 111.054 130.373 111.23C130.226 111.479 130.151 111.764 130.156 112.054H130.2ZM146.622 110.373C146.344 110.828 146.04 111.265 145.712 111.685C146.882 111.62 148.053 111.544 149.213 111.436C149.885 111.132 150.525 110.807 151.153 110.449C149.766 110.449 148.389 110.449 147.012 110.384L146.622 110.373ZM126.568 109.582L127.067 110.016C127.742 110.595 128.468 111.114 129.235 111.566C129.267 111.256 129.375 110.958 129.549 110.699C129.802 110.397 130.12 110.156 130.478 109.993C130.836 109.83 131.226 109.749 131.62 109.756C136.406 109.342 141.214 109.227 146.015 109.409C146.243 108.982 146.431 108.536 146.579 108.075C145.566 108.394 144.517 108.587 143.457 108.65C138.565 109.088 133.635 108.81 128.823 107.826C128.126 108.497 127.355 109.086 126.525 109.582H126.568ZM152.964 110.46L152.801 110.569L151.804 111.176C152.465 111.1 153.115 111.002 153.766 110.894C153.802 110.745 153.853 110.599 153.917 110.46H152.964ZM155.132 110.46C155.051 110.537 154.982 110.625 154.926 110.72L156.313 110.438L155.132 110.46ZM117.744 109.918C118.456 110.086 119.182 110.184 119.912 110.211C121.15 110.26 122.388 110.129 123.587 109.821C123.36 108.812 123.132 107.653 122.937 106.493L122.742 106.157C121.658 105.788 120.649 105.398 119.62 104.964C118.564 106.348 117.918 108.001 117.755 109.734C117.755 109.734 117.647 109.842 117.647 109.907L117.744 109.918ZM112.736 101.355C112.375 102.072 112.167 102.857 112.124 103.659C112.081 104.461 112.205 105.264 112.487 106.016C112.888 106.891 113.476 107.668 114.207 108.293C114.939 108.918 115.799 109.376 116.725 109.636C116.885 107.806 117.545 106.055 118.633 104.574C118.156 104.368 117.701 104.151 117.235 103.924C115.666 103.196 114.161 102.336 112.736 101.355ZM124.162 108.401C124.238 108.78 124.324 109.149 124.4 109.485L124.92 109.279C124.66 109.029 124.4 108.737 124.162 108.401ZM147.067 109.409C148.909 109.409 150.774 109.485 152.638 109.485C154.552 108.206 156.345 106.755 157.993 105.149C157.158 104.995 156.333 104.792 155.522 104.542C153.803 104.026 152.17 103.259 150.676 102.265C150.658 103.24 150.424 104.198 149.991 105.072C149.558 105.945 148.937 106.712 148.172 107.317L147.717 107.62C147.559 108.261 147.341 108.885 147.067 109.485V109.409ZM159.186 105.322C157.678 106.838 156.05 108.23 154.319 109.485H154.644C155.289 108.985 156.025 108.617 156.812 108.401C159.193 107.67 161.619 107.094 164.075 106.677C164.346 106.016 164.595 105.322 164.844 104.607C163.059 105.358 161.104 105.613 159.186 105.344V105.322ZM163.619 107.696C161.402 108.086 159.212 108.615 157.061 109.279L156.617 109.441C157.809 109.441 158.991 109.344 160.183 109.257C161.361 108.825 162.506 108.307 163.608 107.707L163.619 107.696ZM124.053 106.612C124.568 107.426 125.16 108.188 125.82 108.888C126.484 108.519 127.109 108.083 127.685 107.588C126.46 107.317 125.246 106.97 124.053 106.601V106.612ZM164.356 108.401L164.14 108.856C165.989 108.609 167.821 108.247 169.625 107.772C171.14 107.383 172.598 106.797 173.961 106.027C172.205 106.352 170.448 106.634 168.692 106.915L166.102 107.327L165.527 107.718C165.148 107.934 164.768 108.173 164.356 108.401ZM129.614 107.013C134.145 107.884 138.775 108.117 143.37 107.707C144.574 107.656 145.76 107.391 146.871 106.926C147.097 105.401 147.137 103.854 146.991 102.319C146.991 101.799 146.991 101.235 146.915 100.758C146.1 101.506 145.175 102.124 144.172 102.59C142.578 103.27 140.858 103.606 139.125 103.578C137.392 103.55 135.685 103.158 134.113 102.428C133.722 102.374 133.335 102.298 132.953 102.2L132.574 102.861C131.739 104.348 130.747 105.74 129.614 107.013ZM123.652 105.474C125.251 105.993 126.876 106.431 128.519 106.785C129.784 105.461 130.876 103.982 131.771 102.384L132.032 101.929C130.948 101.547 129.926 101.01 128.996 100.336C127.035 100.625 125.123 101.187 123.316 102.005C123.36 103.208 123.49 104.368 123.652 105.474ZM165.928 104.271C165.874 104.401 165.831 104.542 165.776 104.682C165.56 105.3 165.354 105.897 165.126 106.482L165.722 106.384C166.455 105.843 167.12 105.217 167.706 104.52L165.928 104.271ZM147.858 99.8153V100.151C147.858 100.856 147.858 101.561 147.934 102.319C148.042 103.643 148.042 104.974 147.934 106.298C148.55 105.686 149.032 104.953 149.349 104.145C149.666 103.337 149.812 102.471 149.777 101.604C149.107 101.047 148.516 100.402 148.021 99.6852L147.858 99.8153ZM168.833 104.628C168.456 105.151 168.032 105.637 167.565 106.081L168.551 105.929C171.001 105.539 173.397 105.159 175.717 104.661C175.782 104.661 175.836 104.542 175.901 104.476C174.746 104.69 173.574 104.791 172.4 104.78C171.207 104.78 170.015 104.737 168.833 104.628ZM120.162 104.195L122.037 104.921C121.777 104.336 121.549 103.739 121.343 103.143C120.919 103.458 120.524 103.81 120.162 104.195ZM160.053 104.466C161.397 104.555 162.744 104.363 164.01 103.902L162.926 103.663C162.318 103.523 161.744 103.36 161.18 103.197C160.826 103.624 160.45 104.046 160.053 104.466ZM150.676 101.105C152.207 102.25 153.928 103.116 155.76 103.663C156.751 103.978 157.766 104.206 158.795 104.346C159.272 103.869 159.728 103.371 160.183 102.872C157.456 102.023 154.97 100.536 152.931 98.5362C151.972 97.5438 151.165 96.4151 150.535 95.1866C150.321 95.7723 150.072 96.3443 149.787 96.8993C150.113 97.8096 150.363 98.745 150.535 99.696C150.617 100.162 150.664 100.633 150.676 101.105ZM177.44 104.065L177.278 104.281C178.441 104 179.569 103.674 180.66 103.306C182.027 100.62 183.022 97.7611 183.619 94.8072C183.191 95.1035 182.738 95.3611 182.264 95.5768C182.522 96.5527 182.57 97.572 182.405 98.5678C182.241 99.5636 181.868 100.513 181.31 101.355C180.347 102.653 178.989 103.604 177.44 104.065ZM169.408 103.696C170.394 103.772 171.392 103.815 172.389 103.815C173.886 103.834 175.378 103.645 176.822 103.252C176.909 103.1 176.996 102.948 177.072 102.785C177.508 101.808 177.729 100.748 177.717 99.6781C177.706 98.6079 177.464 97.5527 177.007 96.585C175.248 96.5285 173.498 96.3035 171.782 95.9129L170.85 97.6148C170.557 98.1459 170.264 98.6988 169.961 99.2191C170.079 99.6289 170.152 100.051 170.177 100.477C170.23 101.608 169.963 102.731 169.408 103.718V103.696ZM113.181 100.444C114.588 101.425 116.079 102.281 117.636 103.002C118.167 103.262 118.72 103.501 119.229 103.729C119.748 103.138 120.338 102.614 120.986 102.168H121.061C120.526 100.136 120.361 98.0247 120.574 95.9346C118.828 96.257 117.163 96.92 115.674 97.8858C114.666 98.5731 113.816 99.4674 113.181 100.509V100.444ZM166.687 103.36L168.367 103.566C168.963 102.653 169.262 101.577 169.224 100.487V100.401C168.537 101.532 167.681 102.552 166.687 103.425V103.36ZM122.243 102.514C122.308 102.731 122.384 102.959 122.46 103.176C122.46 102.926 122.46 102.677 122.46 102.417L122.243 102.514ZM161.95 102.341L163.218 102.677C163.923 102.84 164.627 102.991 165.386 103.121C166.109 101.04 166.81 98.9409 167.489 96.8234C167.251 96.585 167.012 96.3573 166.774 96.1622C165.18 98.3519 163.608 100.444 161.917 102.406L161.95 102.341ZM184.779 93.8533C184.258 96.9443 183.317 99.9495 181.982 102.785C184.303 101.907 186.466 100.658 188.389 99.089C190.004 97.7557 190.828 96.4766 190.904 95.1866C191.034 93.2246 189.375 91.5552 187.792 90.6446C187.498 90.4757 187.194 90.3236 186.882 90.1894C186.882 90.3303 186.817 90.482 186.774 90.623C186.413 91.8865 185.712 93.0265 184.746 93.9183L184.779 93.8533ZM178.058 96.5199C178.879 98.4989 178.914 100.717 178.156 102.72C179.114 102.291 179.944 101.618 180.562 100.769C181.03 100.059 181.346 99.261 181.492 98.4236C181.637 97.5863 181.608 96.7279 181.408 95.902C181.007 96.0321 180.595 96.1514 180.183 96.2489C179.474 96.4212 178.753 96.5336 178.026 96.585L178.058 96.5199ZM137.029 102.298C139.293 102.831 141.669 102.606 143.793 101.658C144.981 101.104 146.052 100.328 146.947 99.3708C146.966 98.8223 147.02 98.2755 147.11 97.734C147.056 97.5606 146.991 97.3871 146.947 97.2137C146.881 97.0044 146.831 96.7907 146.796 96.5741C145.809 96.9102 144.812 97.2245 143.815 97.5064C142.44 99.7014 140.325 101.332 137.853 102.103C137.572 102.206 137.287 102.293 136.996 102.363L137.029 102.298ZM168.161 97.6581C167.684 99.154 167.196 100.628 166.687 102.103C167.573 101.2 168.335 100.183 168.953 99.0782C168.74 98.5913 168.463 98.1355 168.129 97.7232L168.161 97.6581ZM151.511 94.7747C152.073 95.8954 152.804 96.9228 153.679 97.8207C155.718 99.8001 158.212 101.248 160.942 102.037C162.725 99.9599 164.397 97.7888 165.95 95.5335C165.625 95.3167 165.332 95.1216 165.072 94.9698C163.593 94.5938 162.181 93.9904 160.888 93.1812C159.42 92.7499 157.906 92.4952 156.378 92.4224L155.836 92.7042C154.384 93.5389 152.942 94.2218 151.478 94.8397L151.511 94.7747ZM121.603 95.6961C121.382 97.658 121.511 99.6435 121.983 101.561L122.341 101.365C122.233 99.4311 122.288 97.4913 122.503 95.566C122.167 95.6636 121.874 95.7069 121.571 95.7611L121.603 95.6961ZM134.34 101.43C135.43 101.564 136.534 101.483 137.592 101.192C139.469 100.629 141.122 99.4917 142.319 97.94C139.821 98.5968 137.287 99.1108 134.731 99.4792H134.33L133.538 101.029L134.34 101.43ZM123.5 95.4468C123.284 97.2448 123.215 99.0575 123.294 100.867C124.821 100.209 126.417 99.7289 128.053 99.4359L127.609 99.0023C126.54 97.9476 125.648 96.729 124.964 95.3926L123.5 95.4468ZM131.555 99.8803C131.945 100.14 132.335 100.39 132.725 100.607C132.899 100.292 133.061 99.9779 133.224 99.6635L132.682 99.7394L131.555 99.8803ZM148.703 98.7963C149.014 99.2796 149.378 99.7268 149.787 100.13C149.787 100.032 149.787 99.9345 149.787 99.837C149.671 99.2154 149.523 98.6003 149.343 97.9942L148.703 98.7963ZM106.959 89.0403C106.963 91.9177 107.89 94.7178 109.604 97.0294C110.426 98.1162 111.392 99.0862 112.476 99.9128C113.174 98.7891 114.096 97.8221 115.186 97.0728C116.876 95.9769 118.772 95.239 120.758 94.9048C120.902 94.0444 121.112 93.1963 121.387 92.3682C116.45 91.8237 111.591 90.7181 106.904 89.0728L106.959 89.0403ZM126.731 95.23C127.785 96.6926 129.04 97.9991 130.46 99.1107C131.153 99.0023 131.858 98.9156 132.563 98.8288L133.733 98.6662C134.048 98.0375 134.351 97.4088 134.655 96.7909L134.969 96.1514C133.736 95.9156 132.565 95.4245 131.533 94.7096C129.925 94.9815 128.304 95.166 126.677 95.2625L126.731 95.23ZM135.988 96.2381C135.825 96.5524 135.674 96.8776 135.511 97.2028C135.349 97.528 135.088 98.07 134.872 98.5145C137.696 98.0947 140.491 97.4973 143.24 96.7259C144.565 94.5816 145.58 92.2605 146.254 89.8316L146.633 88.5525C147.21 86.454 147.908 84.3909 148.725 82.3737C148.606 82.1461 148.476 81.9184 148.335 81.7016C147.59 82.1097 146.867 82.5547 146.167 83.035C146.08 83.1434 145.993 83.2626 145.896 83.371C145.896 85.1525 145.546 86.9167 144.866 88.5634C143.273 92.4983 139.966 96.2381 135.999 96.2381H135.988ZM168.508 96.5958C168.928 97.0451 169.292 97.5438 169.592 98.0809C169.755 97.7665 169.928 97.463 170.102 97.1486C170.275 96.8343 170.589 96.2381 170.85 95.7828C170.459 95.7828 170.069 95.7828 169.679 95.7828H168.855L168.508 96.5958ZM148.096 97.6798C148.119 97.7511 148.148 97.82 148.183 97.8858C148.411 97.5497 148.628 97.192 148.834 96.8018C148.747 96.5416 148.649 96.2923 148.563 96.0321C148.334 96.568 148.167 97.128 148.064 97.7015L148.096 97.6798ZM147.012 90.5796C146.413 92.5801 145.599 94.51 144.584 96.3356C145.289 96.1188 145.983 95.8912 146.676 95.6527C146.609 94.4842 146.797 93.3151 147.229 92.2273C147.057 91.7025 146.969 91.1536 146.969 90.6013L147.012 90.5796ZM167.435 95.5443L167.771 95.837L167.847 95.5985L167.435 95.5443ZM177.191 94.7964C177.364 95.0661 177.524 95.3447 177.668 95.631C178.432 95.6186 179.194 95.5388 179.944 95.3926C180.35 95.3064 180.748 95.1905 181.137 95.0457C180.921 94.3321 180.641 93.6392 180.302 92.9752C179.362 93.7748 178.286 94.399 177.126 94.818L177.191 94.7964ZM174.795 95.4576C175.385 95.5426 175.978 95.5968 176.573 95.6202C176.476 95.4468 176.367 95.2733 176.259 95.1107C175.756 95.2612 175.246 95.3843 174.73 95.4793L174.795 95.4576ZM147.782 93.8858C147.685 94.3599 147.641 94.8436 147.652 95.3275L147.923 95.2191C147.988 95.089 148.053 94.959 148.129 94.8289L147.782 93.8858ZM138.34 91.7178C137.679 92.8668 137.072 94.0484 136.476 95.2408C139.793 94.9481 142.579 91.6419 143.977 88.184C144.449 87.0212 144.759 85.7994 144.899 84.5526C143.583 86.1881 142.088 87.6716 140.443 88.9753C140.378 89.1162 140.313 89.2463 140.237 89.3764C139.738 90.2897 139.072 91.1021 138.275 91.772L138.34 91.7178ZM132.92 94.3953C133.657 94.813 134.466 95.0888 135.305 95.2083H135.446C135.815 94.4495 136.194 93.7015 136.53 92.9536C136.088 93.2098 135.628 93.4344 135.153 93.6256C134.403 93.9607 133.627 94.2361 132.834 94.4495L132.92 94.3953ZM169.202 94.3086C169.928 94.5254 170.644 94.6988 171.316 94.8506C171.836 93.9649 172.438 93.1302 173.115 92.3574L173.267 92.1839C172.398 91.5607 171.472 91.0199 170.503 90.5688L170.188 91.0566C169.863 92.1406 169.538 93.2246 169.202 94.3086ZM174.026 92.7693L173.82 92.9861C173.329 93.5597 172.877 94.1643 172.465 94.7964C173.526 94.7376 174.579 94.5742 175.608 94.3086C175.128 93.7526 174.598 93.2411 174.026 92.7801V92.7693ZM122.308 92.5091C122.05 93.2474 121.85 94.005 121.712 94.7747C122.004 94.7747 122.308 94.688 122.601 94.6446C122.709 93.9508 122.839 93.2679 122.991 92.5742L122.308 92.5091ZM149.993 93.9617C149.738 94.1793 149.505 94.4226 149.3 94.688L149.831 94.482L149.993 93.9617ZM181.028 92.2706C181.434 93.0365 181.768 93.8385 182.026 94.6663C182.695 94.3412 183.318 93.9293 183.879 93.4414C183.977 92.8018 184.064 92.1514 184.129 91.5118C183.91 91.6189 183.676 91.6885 183.435 91.7178C183.212 91.7369 182.988 91.6944 182.787 91.595C182.586 91.4956 182.417 91.3431 182.297 91.1541L182.167 90.9698L182.448 90.0918C182.128 90.8109 181.705 91.4793 181.191 92.0755L181.028 92.2706ZM123.945 92.7042C123.804 93.3113 123.685 93.9292 123.587 94.547L124.563 94.4603C124.331 93.8966 124.122 93.3113 123.934 92.7042H123.945ZM165.44 94.2002C165.874 94.3086 166.308 94.4061 166.741 94.4928C164.575 93.6628 162.799 92.0495 161.766 89.9726C161.574 89.5392 161.421 89.0893 161.31 88.6284C160.717 89.3822 160.032 90.0594 159.272 90.6446C159.839 91.332 160.508 91.928 161.256 92.4116C162.63 92.8274 163.956 93.387 165.213 94.0809L165.44 94.2002ZM125.137 92.7368C125.421 93.2905 125.732 93.8296 126.07 94.3519H126.156C127.555 94.2652 128.964 94.1676 130.362 93.9617L129.549 93.3655L128.736 92.7584C127.587 92.791 126.384 92.791 125.126 92.7368H125.137ZM168.237 93.9942H168.313L168.389 93.7449C168.324 93.8424 168.27 93.9183 168.226 93.9942H168.237ZM174.741 92.1189C175.417 92.6852 176.031 93.321 176.573 94.0159C177.776 93.6078 178.882 92.9586 179.825 92.108C179.446 91.4542 179.023 90.8276 178.557 90.2327L178.373 89.9942C177.028 90.468 175.788 91.1968 174.719 92.1406L174.741 92.1189ZM151.034 93.8424L151.099 93.9834C152.183 93.5281 153.213 93.0511 154.243 92.5416C153.19 92.5888 152.155 92.8238 151.186 93.2354C151.11 93.4414 151.067 93.6365 151.012 93.8424H151.034ZM148.226 92.3465C148.378 92.8668 148.562 93.4305 148.747 93.8966C148.95 93.6487 149.179 93.4233 149.43 93.2246L149.701 92.9969C149.461 92.2224 149.29 91.4279 149.191 90.623C148.798 91.1581 148.467 91.7363 148.205 92.3465H148.226ZM130.2 92.6392C130.698 93.0186 131.197 93.398 131.695 93.7232C132.75 93.5255 133.782 93.2204 134.774 92.8126C135.783 92.403 136.723 91.8399 137.56 91.1433L137.885 90.5796C135.469 91.7459 132.854 92.4447 130.178 92.6392H130.2ZM162.199 88.0756C162.288 88.5948 162.441 89.1009 162.655 89.5823C163.643 91.4801 165.318 92.9299 167.337 93.6365C168.009 92.65 168.671 91.6528 169.332 90.6555L169.495 90.1135L168.942 89.8858C166.766 89.0175 164.496 88.4099 162.178 88.0756H162.199ZM185.158 90.6555C185.158 91.165 185.082 91.6744 185.017 92.1839C185.393 91.6556 185.672 91.0646 185.841 90.4387C185.893 90.2607 185.932 90.0797 185.961 89.8967L185.711 89.8208C185.557 90.1229 185.364 90.4035 185.137 90.6555H185.158ZM151.457 88.3466C151.457 88.6609 151.511 88.9644 151.522 89.2788C151.555 90.2321 151.501 91.1864 151.359 92.1297C152.425 91.7714 153.541 91.5813 154.665 91.566C155.15 91.566 155.637 91.566 156.129 91.566C156.758 91.2368 157.369 90.8749 157.961 90.482C157.541 89.8124 157.23 89.0807 157.039 88.314C157.039 88.1406 156.953 87.9672 156.92 87.8046C155.086 87.8173 153.257 87.9987 151.457 88.3466ZM150.037 89.539C150.082 90.3804 150.209 91.2153 150.416 92.0322C150.549 91.1316 150.599 90.221 150.568 89.3113C150.568 89.2138 150.568 89.1054 150.568 88.997C150.373 89.1704 150.199 89.3547 150.037 89.539ZM157.787 91.707C158.232 91.707 158.676 91.8262 159.121 91.9021C158.904 91.6875 158.701 91.4594 158.514 91.2192L157.787 91.707ZM124.66 91.7612C125.593 91.8118 126.492 91.8334 127.359 91.8262C126.512 91.2908 125.57 90.9228 124.584 90.7422H124.487C124.487 90.7422 124.487 90.8398 124.487 90.894C124.487 91.165 124.606 91.436 124.671 91.6961C124.66 91.6744 124.66 91.7178 124.66 91.7612ZM124.812 89.7666C126.34 90.1127 127.77 90.7981 128.996 91.772C132.51 91.7104 135.945 90.7152 138.947 88.8886C139.24 88.455 139.554 88.0322 139.88 87.6203C140.284 85.9826 140.47 84.2986 140.433 82.6122C140.447 81.0788 140.611 79.5505 140.92 78.0486C139.866 77.8505 138.788 77.814 137.723 77.9402C136.555 78.3564 135.418 78.8526 134.319 79.4252C132.21 80.4907 130.297 81.9054 128.66 83.6095C126.99 85.3883 125.689 87.4811 124.834 89.7666H124.812ZM122.644 91.5986H123.186L123.381 90.9265C123.376 90.8579 123.376 90.7891 123.381 90.7205C123.318 90.7423 123.259 90.7753 123.208 90.8181C122.963 91.0253 122.78 91.295 122.677 91.5986H122.644ZM171.001 89.7774C172.029 90.2675 173.008 90.8518 173.928 91.5227C175.021 90.5357 176.289 89.7634 177.668 89.2463C176.584 88.1623 174.849 86.8615 173.148 87.5769C172.25 88.0971 171.518 88.8598 171.034 89.7774H171.001ZM106.937 88.0647L107.186 88.1623C111.872 89.83 116.736 90.9504 121.679 91.501C121.856 90.982 122.171 90.521 122.59 90.1677C122.757 90.047 122.939 89.9486 123.132 89.875C123.088 89.557 123.056 89.2427 123.034 88.9319C123.017 88.414 123.042 87.8955 123.11 87.3818C123.068 85.6711 123.321 83.9659 123.858 82.3412C124.789 79.7859 126.538 77.6099 128.834 76.1516C128.053 76.1516 127.262 76.054 126.492 75.9998C119.795 77.1482 113.455 79.8306 107.967 83.8371C107.829 84.1623 107.699 84.4984 107.576 84.8452C107.23 85.8875 107.015 86.9691 106.937 88.0647ZM179.359 89.7016C179.779 90.2417 180.166 90.8064 180.519 91.3926C181.035 90.778 181.445 90.082 181.733 89.333C180.931 89.3745 180.136 89.498 179.359 89.7016ZM183.229 90.7856C183.268 90.7962 183.309 90.7962 183.348 90.7856C183.686 90.7176 183.991 90.5382 184.215 90.2761V89.4956L183.641 89.4197L183.229 90.7856ZM149.061 89.1054C148.624 89.3023 148.27 89.648 148.064 90.081C147.969 90.3041 147.917 90.5432 147.912 90.7856C148.25 90.2264 148.634 89.697 149.061 89.2029V89.1054ZM157.896 87.7612C157.907 87.8572 157.929 87.9518 157.961 88.043C158.119 88.6922 158.375 89.3135 158.72 89.8858C159.449 89.3144 160.101 88.6513 160.66 87.913C159.739 87.8046 158.817 87.7395 157.896 87.7287V87.7612ZM149.224 83.5878C148.541 85.2897 148.01 87.1 147.479 88.8886L147.327 89.4089C147.743 88.7745 148.356 88.2945 149.072 88.043C149.072 87.7937 149.072 87.5552 149.148 87.3059C149.244 86.4543 149.43 85.615 149.701 84.8019C149.592 84.3574 149.408 83.9455 149.235 83.5553L149.224 83.5878ZM162.232 87.1542C164.646 87.5014 167.011 88.1308 169.278 89.0295L169.733 89.2246L169.928 88.5742C170.117 88.1096 170.152 87.5964 170.026 87.1108C169.766 86.5471 168.942 86.3628 168.172 86.2544C167.175 86.1244 166.145 85.9726 165.094 85.8534L164.801 85.9726L164.747 85.8208C164.075 85.745 163.392 85.6908 162.709 85.6474C162.608 86.1559 162.448 86.6508 162.232 87.1216V87.1542ZM174.156 86.4496C176.02 86.4496 177.69 87.9021 178.644 88.9428C179.732 88.6203 180.858 88.4417 181.993 88.4116C182.279 87.0291 182.288 85.6037 182.02 84.2177C181.752 82.8317 181.212 81.5124 180.432 80.3358C179.115 79.418 177.71 78.6337 176.237 77.9944L175.879 77.9293C175.122 79.3533 174.099 80.6191 172.866 81.6583C171.076 83.0996 169.077 84.2584 166.936 85.0946L168.302 85.2788C168.82 85.2784 169.328 85.4107 169.78 85.6631C170.232 85.9155 170.611 86.2796 170.882 86.7206C171.08 87.198 171.118 87.7265 170.99 88.2273C171.459 87.5779 172.086 87.0592 172.812 86.7206C173.247 86.5226 173.72 86.4192 174.199 86.417L174.156 86.4496ZM124.042 87.4252C124.042 87.9021 124.042 88.3791 124.129 88.8777C125.008 86.7146 126.275 84.7306 127.869 83.0241C129.578 81.2585 131.571 79.7927 133.766 78.6881C131.746 79.1364 129.831 79.972 128.129 81.1488C126.018 82.6227 124.567 84.8635 124.086 87.3926L124.042 87.4252ZM185.039 85.3439C185.039 85.5282 185.039 85.7124 185.039 85.8859C185.115 86.8073 185.137 87.7178 185.137 88.6284L185.744 87.371C185.612 86.6592 185.389 85.9671 185.082 85.3114L185.039 85.3439ZM183.955 88.5092H184.248C184.248 88.2056 184.248 87.8913 184.248 87.5878L183.955 88.5092ZM182.275 81.7992C183.169 83.8708 183.418 86.1637 182.99 88.3791L184.074 85.1271C184.012 84.5448 183.904 83.9684 183.749 83.4035C183.597 83.2084 183.424 83.0133 183.251 82.8182C183.077 82.623 182.633 82.081 182.297 81.7667L182.275 81.7992ZM150.199 86.6338C150.199 86.894 150.113 87.1542 150.08 87.4252V87.7178L150.384 87.642C150.348 87.2924 150.294 86.945 150.221 86.6013L150.199 86.6338ZM106.525 85.0078C105.95 85.5607 105.322 86.3628 105.614 87.0783C105.7 87.2839 105.843 87.4606 106.026 87.5878C106.112 86.7141 106.279 85.8504 106.525 85.0078ZM156.833 85.8859C155.981 86.0485 155.144 86.2806 154.329 86.5796C153.961 86.7206 153.592 86.894 153.245 87.0783C154.439 86.9158 155.64 86.818 156.844 86.7856C156.819 86.4863 156.815 86.1857 156.833 85.8859ZM157.766 86.7748C158.85 86.7748 159.999 86.8506 161.104 86.9699C161.097 86.4954 161.123 86.0209 161.18 85.5498C160.05 85.5295 158.92 85.5911 157.798 85.7341C157.766 86.08 157.755 86.4275 157.766 86.7748ZM150.676 84.7802C150.889 85.4186 151.059 86.0704 151.186 86.7314L151.446 86.3845C151.894 85.7235 152.191 84.9717 152.314 84.1827C152.438 83.3938 152.386 82.5873 152.161 81.8209C151.549 82.7439 151.05 83.7376 150.676 84.7802ZM185.364 84.0214C185.781 84.667 186.123 85.358 186.383 86.081L188.183 82.3954C188.946 81.0657 189.412 79.5864 189.549 78.0594C189.549 73.4741 183.662 71.2736 181.126 70.5364C179.447 70.016 177.717 69.678 175.966 69.5283C176.578 70.7251 176.915 72.0436 176.952 73.3874C176.976 74.1171 176.9 74.8466 176.725 75.5554C177.299 75.8767 177.85 76.2389 178.373 76.6394L180.378 76.7694C182.351 76.8995 185.072 77.3331 185.895 79.4903C186.247 80.7618 186.139 82.1166 185.592 83.3168L185.364 84.0214ZM141.788 78.3412C141.533 79.743 141.413 81.1659 141.43 82.5905C141.417 83.7425 141.345 84.8931 141.213 86.0376C142.318 84.8371 143.538 83.7479 144.855 82.7856C144.828 82.052 144.643 81.3327 144.314 80.6764C143.985 80.0201 143.519 79.4419 142.947 78.9808C142.592 78.7156 142.202 78.5005 141.788 78.3412ZM152.844 80.8778C153.435 82.439 153.435 84.1621 152.844 85.7233C154.436 85.1242 155.965 84.369 157.408 83.4686C157.919 82.2574 158.654 81.1539 159.576 80.2166C158.802 79.5503 157.942 78.9924 157.018 78.558C156.237 78.7315 155.424 78.9483 154.611 79.1868C153.969 79.6925 153.378 80.2588 152.844 80.8778ZM156.942 84.8236L156.758 84.932H156.931L156.942 84.8236ZM162.752 84.661C163.489 84.661 164.215 84.7802 164.92 84.8561C167.566 83.962 170.04 82.624 172.237 80.8995C173.291 80.0026 174.179 78.9275 174.86 77.7234C171.443 77.0099 167.904 77.1251 164.541 78.0594C164.27 78.6773 164.009 79.3168 163.749 79.9564C163.327 81.0404 162.904 82.1244 162.589 83.2084C162.679 83.5889 162.73 83.9775 162.741 84.3683L162.752 84.661ZM158.145 84.0648C158.058 84.2924 157.993 84.52 157.928 84.7477C159.04 84.6214 160.159 84.5707 161.278 84.5959C161.365 84.1298 161.484 83.6528 161.614 83.1759C161.443 82.5954 161.179 82.0463 160.833 81.5499C160.082 82.5149 159.19 83.3625 158.188 84.0648H158.145ZM130.601 76.1516C127.875 77.4756 125.772 79.8081 124.736 82.6556C124.605 83.0098 124.497 83.3718 124.411 83.7396C125.226 82.4 126.302 81.2386 127.576 80.325C130.332 78.4808 133.509 77.3623 136.812 77.073L137.419 77.0079C138.769 76.5407 140.154 76.1783 141.56 75.9239L141.625 75.8047C141.085 75.5556 140.527 75.349 139.956 75.1868C139.63 75.0892 139.294 75.0134 138.958 74.9483H137.668C135.424 75.7893 133.04 76.1976 130.644 76.1516H130.601ZM149.722 82.3846C149.896 82.7314 150.058 83.0783 150.21 83.4686C150.636 82.4916 151.175 81.5676 151.815 80.7152C151.739 80.5418 151.652 80.3792 151.565 80.2057L150.687 80.5743C150.332 81.1595 150.01 81.7638 149.722 82.3846ZM184.638 82.8832C184.675 82.9358 184.715 82.9865 184.757 83.035C185.21 82.044 185.321 80.9304 185.072 79.8697C184.443 78.2112 182.091 77.8643 180.378 77.7017H179.619L179.944 78.0486C181.516 78.6211 182.871 79.6663 183.825 81.0404C184.177 81.6155 184.451 82.2353 184.638 82.8832ZM142.026 77.4632C143.011 77.8111 143.878 78.4283 144.53 79.2446C145.181 80.0609 145.591 81.0436 145.712 82.081C146.21 81.474 146.72 80.8561 147.24 80.2491C146.158 78.8271 144.829 77.6116 143.316 76.661C142.969 76.661 142.611 76.7586 142.232 76.8236C142.178 76.9646 142.102 77.203 142.004 77.4198L142.026 77.4632ZM121.549 75.7288C119.853 75.6952 118.159 75.8996 116.519 76.3358C113.421 77.2479 110.752 79.24 108.997 81.951C113.268 79.0783 118.012 76.9829 123.013 75.7613C122.528 75.7107 122.041 75.6854 121.549 75.6854V75.7288ZM160.259 80.8236C159.944 81.1637 159.654 81.526 159.392 81.9076C159.709 81.57 159.999 81.2075 160.259 80.8236ZM161.44 80.7586C161.691 81.1008 161.912 81.4634 162.102 81.8426C162.362 81.1163 162.633 80.4008 162.926 79.6746L163.348 78.5906C162.918 78.7944 162.502 79.0262 162.102 79.2843C161.93 79.7823 161.708 80.2616 161.44 80.7152V80.7586ZM149.126 81.3006V81.3656L149.18 81.2464L149.126 81.3006ZM148.508 80.2166C148.562 80.2924 148.617 80.3683 148.66 80.4442C149.137 80.2057 149.603 79.9781 150.069 79.7721C150.286 79.4252 150.503 79.1 150.741 78.7857C150.611 78.6231 150.47 78.4605 150.329 78.3087C149.646 78.9374 149.039 79.5878 148.508 80.2166ZM144.844 76.4442C146.002 77.3004 147.038 78.3106 147.923 79.4469C148.476 78.829 149.007 78.2328 149.636 77.6583C149.532 77.5693 149.423 77.486 149.31 77.409C148.767 76.9897 148.182 76.6265 147.565 76.325C146.638 76.3246 145.712 76.3753 144.79 76.4768L144.844 76.4442ZM158.503 78.1244C159.145 78.5056 159.751 78.9446 160.313 79.4361C160.639 79.1441 160.983 78.8726 161.343 78.6231C161.43 78.2979 161.505 77.9727 161.56 77.6475C160.898 77.7342 160.248 77.8209 159.598 77.9293L158.503 78.1244ZM151.923 78.8074L152.02 78.9591C152.758 78.6881 153.473 78.4388 154.188 78.222C154.449 78.0052 154.72 77.7992 155.001 77.6041H154.904C154.459 77.4632 154.004 77.3331 153.549 77.2139C152.935 77.6972 152.372 78.242 151.869 78.8399L151.923 78.8074ZM151.034 77.7234L151.338 78.0811C151.671 77.6929 152.033 77.3305 152.422 76.9971L152.064 76.9212C151.666 77.1597 151.305 77.4198 150.98 77.7017L151.034 77.7234ZM162.535 77.5933C162.535 77.7234 162.535 77.8426 162.535 77.9727C162.767 77.844 163.006 77.7282 163.251 77.6258L163.511 77.5066L162.535 77.5933ZM154.546 76.5093L155.186 76.7044C155.866 76.9145 156.532 77.1679 157.18 77.4632C157.961 77.2898 158.72 77.1488 159.446 77.0296C160.172 76.9104 160.909 76.802 161.614 76.7152C161.629 76.1978 161.578 75.6805 161.462 75.176C161.429 75.0026 161.382 74.8322 161.321 74.6665C158.918 74.6324 156.552 75.2707 154.492 76.5093H154.546ZM140.79 77.0838L141.17 77.1597C141.17 77.0946 141.17 77.0404 141.17 76.9862L140.79 77.0838ZM149.701 76.5418L149.874 76.6719L150.34 77.0404L150.774 76.6719C150.362 76.6285 150.004 76.5743 149.647 76.5418H149.701ZM162.34 74.6665C162.372 74.766 162.397 74.8673 162.416 74.97C162.534 75.5076 162.592 76.0565 162.589 76.6068L164.324 76.4659C164.584 75.9239 164.844 75.3819 165.126 74.8941C164.184 74.7664 163.236 74.6904 162.286 74.6665H162.34ZM176.562 76.5526H176.671L176.573 76.4876L176.562 76.5526ZM175.196 76.4768H175.554C175.619 76.3142 175.673 76.1516 175.728 75.9998C172.984 74.6449 169.992 73.8664 166.936 73.7126L166.654 74.1353C167.652 74.3088 168.595 74.5256 169.473 74.7315C171.396 75.1996 173.289 75.7824 175.142 76.4768H175.196ZM166.134 75.0459C165.885 75.4795 165.646 75.9348 165.419 76.4009C167.522 76.2925 169.635 76.2816 171.738 76.3358C170.893 76.0974 170.069 75.8806 169.278 75.6963C168.129 75.4253 167.077 75.2085 166.08 75.0459H166.134ZM153.126 76.1299H153.321C153.772 75.796 154.247 75.4953 154.741 75.2302C154.394 75.3964 154.033 75.5698 153.657 75.7505C153.473 75.8806 153.278 76.0215 153.072 76.1516L153.126 76.1299ZM147.782 75.4361C149.117 75.489 150.447 75.6375 151.76 75.8806C152.229 75.5445 152.718 75.2369 153.224 74.9592C155.416 73.8209 157.809 73.1213 160.27 72.8996C159.988 72.6025 159.663 72.3502 159.305 72.1516C158.12 71.6075 156.825 71.3441 155.522 71.382C151.63 71.2194 146.774 71.6638 143.945 74.3413C145.247 74.5541 146.518 74.9292 147.728 75.4578L147.782 75.4361ZM143.088 75.3711L143.565 75.6421C144.021 75.5915 144.476 75.5481 144.931 75.512C144.367 75.3819 143.847 75.2735 143.218 75.1868L143.088 75.3711ZM167.641 72.8562C170.528 73.0629 173.35 73.817 175.955 75.0784C176.064 74.5397 176.115 73.991 176.107 73.4416C176.052 72.0605 175.661 70.7137 174.969 69.5175C173.446 69.4947 171.938 69.8288 170.568 70.4931C169.429 71.0679 168.421 71.8725 167.608 72.8562H167.641ZM139.457 73.9402C140.584 73.9544 141.709 74.0268 142.828 74.157C145.809 70.7858 151.273 70.2329 155.609 70.4064C157.056 70.3785 158.491 70.6826 159.804 71.2952C160.456 71.6575 161.019 72.1612 161.451 72.7695C162.286 72.7153 163.056 72.6936 163.76 72.6828C164.707 72.6828 165.617 72.7044 166.492 72.7478C167.456 71.44 168.705 70.3687 170.145 69.615C171.462 68.9599 172.903 68.5905 174.373 68.531C173.483 67.3081 172.382 66.2545 171.121 65.42C167.24 62.7858 161.95 61.6693 155.37 62.1029C149.95 62.4498 146.297 64.0324 144.454 66.8075C144.022 67.501 143.641 68.2257 143.316 68.9755C142.98 69.7808 142.577 70.5567 142.113 71.2952C141.413 72.3661 140.493 73.2752 139.414 73.9619L139.457 73.9402ZM162.221 73.68C163.379 73.7034 164.534 73.8048 165.679 73.9836C165.744 73.8752 165.809 73.7668 165.885 73.6584C165.202 73.6584 164.508 73.6584 163.804 73.6584C163.24 73.7126 162.709 73.7126 162.145 73.7126L162.221 73.68Z" fill="white"/>
<path d="M104.628 267.628L107.62 273.427C108.263 274.683 109.037 275.868 109.929 276.961L95.165 447.691H98.8506L128.184 284.506H174.026L157.636 447.691H161.322L194.394 276.961C195.568 275.869 196.655 274.688 197.646 273.427L202.253 267.628H104.628Z" fill="#263238"/>
<path opacity="0.5" d="M104.628 267.628L107.62 273.427C108.263 274.683 109.037 275.868 109.929 276.961L95.165 447.691H98.8506L128.184 284.506H174.026L157.636 447.691H161.322L194.394 276.961C195.568 275.869 196.655 274.688 197.646 273.427L202.253 267.628H104.628Z" fill="white"/>
<path d="M315.791 444.407H309.265L277.027 335.486H288.247L315.791 444.407Z" fill="#93CBFA"/>
<path d="M199.348 444.407H205.873L238.112 335.486H226.892L199.348 444.407Z" fill="#93CBFA"/>
<path d="M374.533 444.407H368.008L335.77 335.486H347L374.533 444.407Z" fill="#93CBFA"/>
<path d="M307.477 201.84C266.556 210.642 265.862 264.235 270.003 299.205C270.417 302.642 270.097 306.128 269.065 309.433C268.033 312.737 266.311 315.785 264.015 318.376C261.718 320.967 258.898 323.041 255.741 324.462C252.584 325.883 249.162 326.618 245.7 326.619H205.429C204.045 326.624 202.705 327.1 201.628 327.97C200.552 328.839 199.804 330.049 199.509 331.401C199.213 332.753 199.387 334.165 200.002 335.404C200.618 336.644 201.637 337.636 202.893 338.218C216.128 344.299 242.697 350.511 295.997 350.511C377.07 350.511 373.774 306.674 382.36 264.235C395.79 197.916 380.311 186.176 307.477 201.84Z" fill="#93CBFA"/>
<path opacity="0.3" d="M307.477 201.84C266.556 210.642 265.862 264.235 270.003 299.205C270.417 302.642 270.097 306.128 269.065 309.433C268.033 312.737 266.311 315.785 264.015 318.376C261.718 320.967 258.898 323.041 255.741 324.462C252.584 325.883 249.162 326.618 245.7 326.619H205.429C204.045 326.624 202.705 327.1 201.628 327.97C200.552 328.839 199.804 330.049 199.509 331.401C199.213 332.753 199.387 334.165 200.002 335.404C200.618 336.644 201.637 337.636 202.893 338.218C216.128 344.299 242.697 350.511 295.997 350.511C377.07 350.511 373.774 306.674 382.36 264.235C395.79 197.916 380.311 186.176 307.477 201.84Z" fill="black"/>
<path d="M257.776 204.02C256.158 203.245 254.403 202.796 252.612 202.7C250.821 202.604 249.029 202.862 247.338 203.459C245.646 204.056 244.089 204.98 242.755 206.18C241.422 207.379 240.337 208.829 239.564 210.448L239.207 211.207L238.697 212.291L238.079 213.537L236.779 216.085C235.879 217.776 234.99 219.477 234.025 221.103C234.773 218.599 235.586 216.085 236.421 213.58C237.255 211.076 238.155 208.323 239.077 205.7C240.865 200.464 242.806 195.142 244.616 189.971L244.681 189.798C245.228 188.248 245.198 186.553 244.595 185.025C243.992 183.496 242.857 182.236 241.399 181.478C239.942 180.719 238.259 180.513 236.661 180.896C235.063 181.28 233.657 182.227 232.703 183.565C229.223 188.421 226.199 193.321 223.174 198.329C220.15 203.337 217.44 208.529 214.828 213.851C212.171 219.277 209.829 224.85 207.814 230.545C206.817 233.494 205.874 236.529 205.093 239.759C204.232 243.248 203.724 246.814 203.576 250.404C203.464 253.232 204.376 256.006 206.144 258.216C207.912 260.426 210.418 261.925 213.202 262.436L214.09 262.599C217.844 263.274 221.693 263.226 225.429 262.458C228.849 261.726 232.138 260.48 235.185 258.762C240.281 255.836 244.841 252.064 248.67 247.607C250.426 245.646 252.069 243.587 253.591 241.439C255.076 239.347 256.496 237.255 257.765 235.098C259.033 232.941 260.269 230.762 261.364 228.594C261.916 227.51 262.448 226.372 262.979 225.223L263.727 223.477L264.54 221.505C265.851 218.277 265.881 214.67 264.624 211.421C263.367 208.172 260.917 205.525 257.776 204.02Z" fill="#263238"/>
<path d="M232.41 169.787L232.118 175.207C232.025 177.366 232.394 179.521 233.202 181.526L235.37 187.087C235.87 188.353 236.719 189.451 237.818 190.253C238.918 191.055 240.223 191.529 241.581 191.618C243.426 191.743 245.248 191.148 246.663 189.957C248.078 188.766 248.977 187.073 249.169 185.234C249.333 182.451 249.081 179.66 248.421 176.952L247.814 170.068C247.712 168.94 247.212 167.885 246.404 167.091C245.596 166.297 244.532 165.815 243.402 165.732L237.538 165.288C236.905 165.244 236.27 165.326 235.669 165.528C235.068 165.731 234.513 166.051 234.036 166.469C233.56 166.887 233.171 167.396 232.891 167.965C232.612 168.534 232.449 169.154 232.41 169.787Z" fill="#FFB573"/>
<path opacity="0.2" d="M248.431 176.941L247.824 170.068C247.72 168.943 247.221 167.89 246.416 167.096C245.61 166.303 244.55 165.82 243.423 165.732L237.743 165.299C237.103 174.166 241.645 184.03 246.621 190.014C247.344 189.429 247.943 188.704 248.38 187.883C248.818 187.061 249.086 186.161 249.168 185.234C249.341 182.448 249.092 179.652 248.431 176.941Z" fill="black"/>
<path d="M297.222 192.019C281.569 193.19 261.97 194.469 247.911 201.157C240.973 204.463 239.109 211.412 240.139 219.032C241.775 231.13 243.185 240.788 246.198 250.999C253.179 274.555 239.185 291.422 254.87 309.665C261.754 317.492 303.954 324.841 333.84 315.02C338.176 297.189 332.571 252.842 326.577 212.474C324.485 198.219 311.607 190.946 297.222 192.019Z" fill="#93CBFA"/>
<path d="M277.797 173.061C278.556 179.695 281.841 189.429 287.456 192.464C288.065 192.798 288.585 193.274 288.972 193.852C289.359 194.429 289.602 195.091 289.679 195.782C289.757 196.473 289.667 197.172 289.418 197.821C289.169 198.47 288.767 199.049 288.247 199.51C284.941 202.404 279.835 204.93 272.984 206.35C264.052 208.171 262.144 205.472 262.275 202.697C262.408 201.358 262.953 200.093 263.835 199.077C266.719 195.521 263.835 192.757 262.047 190.676L277.797 173.061Z" fill="#FFB573"/>
<path opacity="0.2" d="M273.787 183.065C273.612 182.693 273.416 182.331 273.201 181.981L262.058 190.708C263.142 192.063 264.833 193.721 265.039 195.683C270.795 192.225 275.478 186.664 273.787 183.065Z" fill="black"/>
<path d="M204.345 411.822C206.513 409.6 220.301 405.318 220.301 405.318C223.913 415.695 226.896 426.279 229.233 437.015L211.38 438.836C211.38 438.836 208.421 420.744 204.345 411.822Z" fill="#FFB573"/>
<path d="M283.303 300.939C231.672 301.677 163.727 298.912 179.727 345.969C186.578 366.11 186.025 373.513 194.036 397.914C197.483 408.418 198.654 411.507 201.158 418.781C203.9 425.285 220.334 424.093 226.404 421.545C233.699 417.665 227.488 407.182 226.675 401.285C222.523 372.494 231.141 361.492 222.079 342.619C238.556 345.004 284.875 343.335 291.769 315.021C291.769 315.021 301.265 303.736 283.303 300.939Z" fill="#263238"/>
<path d="M205.364 422.25L207.532 426.586C207.663 426.846 207.874 427.057 208.133 427.188C208.393 427.319 208.688 427.362 208.974 427.313C211.901 426.803 220.616 425.405 225.689 426.023C225.872 426.042 226.057 426.024 226.233 425.971C226.409 425.917 226.572 425.828 226.713 425.709C226.854 425.591 226.969 425.445 227.052 425.281C227.135 425.117 227.184 424.938 227.196 424.754C227.294 423.042 227.272 420.82 227.25 419.421C227.239 419.066 227.091 418.728 226.836 418.479C226.581 418.231 226.24 418.091 225.885 418.088C219.281 418.155 212.701 418.882 206.243 420.256C206.037 420.305 205.846 420.4 205.683 420.535C205.521 420.67 205.392 420.841 205.307 421.035C205.222 421.228 205.183 421.438 205.193 421.649C205.203 421.86 205.262 422.066 205.364 422.25Z" fill="#93CBFA"/>
<path d="M233.06 448.353L231.196 435.767C231.127 435.475 230.956 435.217 230.713 435.04C230.47 434.863 230.173 434.779 229.873 434.803L211.565 434.879C210.096 434.777 208.634 435.157 207.402 435.963C203.283 439.366 196.898 442.629 187.619 444.429C184.681 445.003 185.928 450.835 192.811 450.803C204.193 450.748 203.716 450.391 213.407 450.358C221.711 450.358 223.792 450.738 230.383 450.803C230.722 450.828 231.062 450.783 231.383 450.672C231.705 450.561 232 450.385 232.25 450.156C232.501 449.926 232.702 449.648 232.842 449.338C232.981 449.028 233.055 448.693 233.06 448.353Z" fill="#263238"/>
<path d="M271.434 155.651C276.279 166.751 279.683 172.995 277.092 181.667C273.211 194.772 257.472 197.721 249.418 188.55C242.177 180.29 235.467 163.51 243.759 153.017C251.932 142.697 266.588 144.54 271.434 155.651Z" fill="#FFB573"/>
<path d="M262.524 182.339C263.122 182.325 263.72 182.358 264.312 182.437C264.353 182.442 264.393 182.455 264.429 182.476C264.464 182.498 264.495 182.526 264.52 182.559C264.544 182.593 264.561 182.631 264.57 182.671C264.58 182.712 264.58 182.754 264.572 182.794C264.569 182.835 264.556 182.874 264.536 182.91C264.517 182.946 264.489 182.977 264.457 183.001C264.424 183.026 264.387 183.043 264.347 183.052C264.307 183.061 264.266 183.062 264.226 183.054C262.91 182.832 261.561 182.925 260.289 183.326C259.016 183.728 257.858 184.426 256.909 185.363C256.85 185.422 256.77 185.455 256.686 185.455C256.603 185.455 256.523 185.422 256.464 185.363C256.435 185.335 256.412 185.301 256.397 185.264C256.381 185.227 256.373 185.187 256.373 185.147C256.373 185.106 256.381 185.066 256.397 185.029C256.412 184.992 256.435 184.958 256.464 184.93C258.07 183.31 260.244 182.381 262.524 182.339Z" fill="#263238"/>
<path d="M257.527 169.104C256.974 169.418 256.93 170.361 257.418 171.207L259.413 170.047C258.925 169.201 258.079 168.779 257.527 169.104Z" fill="#263238"/>
<path d="M247.152 174.99C246.599 175.304 246.545 176.247 247.044 177.092L249.038 175.933C248.485 175.087 247.651 174.664 247.152 174.99Z" fill="#263238"/>
<path d="M254.816 163.835C254.885 163.746 254.978 163.679 255.084 163.643C255.189 163.606 255.304 163.601 255.412 163.629C256.104 163.826 256.833 163.855 257.538 163.713C258.243 163.572 258.904 163.264 259.467 162.816C259.52 162.763 259.583 162.72 259.653 162.691C259.723 162.662 259.798 162.647 259.873 162.647C259.949 162.647 260.023 162.662 260.093 162.691C260.163 162.72 260.226 162.763 260.28 162.816C260.333 162.869 260.375 162.933 260.404 163.002C260.433 163.072 260.448 163.147 260.448 163.222C260.448 163.298 260.433 163.373 260.404 163.442C260.375 163.512 260.333 163.576 260.28 163.629C259.576 164.206 258.744 164.606 257.854 164.795C256.963 164.984 256.04 164.955 255.163 164.713C255.017 164.675 254.892 164.58 254.815 164.451C254.738 164.321 254.715 164.166 254.751 164.019C254.763 163.955 254.785 163.892 254.816 163.835Z" fill="#263238"/>
<path d="M245.797 168.93C245.906 168.85 246.043 168.815 246.177 168.833C246.327 168.847 246.467 168.919 246.564 169.035C246.661 169.151 246.709 169.3 246.697 169.451C246.642 170.36 246.37 171.242 245.902 172.023C245.434 172.804 244.784 173.461 244.009 173.938C243.875 174.008 243.719 174.021 243.575 173.977C243.431 173.932 243.311 173.833 243.239 173.7C243.203 173.635 243.18 173.563 243.172 173.488C243.164 173.414 243.171 173.339 243.192 173.268C243.213 173.196 243.248 173.129 243.296 173.071C243.343 173.013 243.401 172.966 243.467 172.93C244.073 172.542 244.578 172.015 244.94 171.393C245.302 170.771 245.51 170.072 245.548 169.353C245.557 169.269 245.583 169.187 245.626 169.114C245.669 169.041 245.728 168.979 245.797 168.93Z" fill="#263238"/>
<path opacity="0.2" d="M249.418 175.607C249.461 176.448 249.292 177.285 248.926 178.043C248.56 178.8 248.01 179.454 247.326 179.943C252.378 179.12 249.418 175.607 249.418 175.607Z" fill="black"/>
<path opacity="0.2" d="M256.16 171.856C256.882 172.268 257.695 172.493 258.526 172.512C259.357 172.531 260.179 172.343 260.919 171.965C258.166 175.444 256.16 171.856 256.16 171.856Z" fill="black"/>
<path d="M280.593 156.02C280.051 151.012 278.729 147.272 276.973 144.735C277.739 144.98 278.527 145.154 279.325 145.256C274.859 138.481 267.575 139.749 265.233 142.491C262.382 136.258 258.35 140.421 253.764 141.212C249.179 142.004 240.648 138.687 240.648 138.687C240.648 138.687 242.523 141.939 245.58 142.437C239.651 145.115 237.461 149.722 235.889 153.277C234.317 156.833 229.548 161.093 229.548 161.093C231.538 161.114 233.466 160.404 234.968 159.098C234.372 162.719 231.868 169.472 230.632 171.022C233.884 169.938 236.93 165.96 236.93 165.96C236.93 165.96 237.515 172.464 240.572 176.865C239.943 171.239 248.951 159.976 248.951 159.976C248.551 162.392 248.551 164.856 248.951 167.272C253.016 163.835 259.64 152.583 259.64 152.583C259.723 155.852 260.185 159.101 261.016 162.264C261.401 160.371 262.192 158.584 263.336 157.028C262.144 161.06 265.179 170.383 265.179 170.383C265.026 167.948 265.183 165.504 265.645 163.109C266.501 165.884 271.759 168.941 273.916 169.255C273.894 169.277 282.122 169.917 280.593 156.02Z" fill="#263238"/>
<path d="M280.485 166.123C280.314 169.077 278.981 171.843 276.778 173.819C273.829 176.41 270.664 174.187 270.068 170.567C269.526 167.261 270.404 161.895 274.035 160.757C277.667 159.619 280.659 162.502 280.485 166.123Z" fill="#FFB573"/>
<path d="M252.29 174.404C252.29 174.404 253.927 180.247 253.613 183.889C255.986 184.139 257.949 181.786 257.949 181.786L252.29 174.404Z" fill="#ED893E"/>
<path opacity="0.2" d="M246.328 342.771C245.699 335.606 244.789 328.441 243.575 321.352C243.031 318.112 241.985 314.978 240.475 312.062C205.787 307.444 202.719 336.278 225.645 391.096C224.431 369.568 229.981 359.086 222.09 342.62C230.137 343.598 238.27 343.649 246.328 342.771Z" fill="black"/>
<path opacity="0.2" d="M276.421 164.399L278.729 169.201C279.63 171.024 280.09 173.033 280.074 175.066L279.954 180.486C279.9 181.743 279.426 182.945 278.609 183.902C277.792 184.859 276.678 185.514 275.445 185.765C273.545 186.22 271.549 186.053 269.75 185.291C267.951 184.528 266.444 183.209 265.45 181.526C264.261 179.141 263.467 176.578 263.098 173.938L261.136 167.651C260.973 167.156 260.916 166.632 260.97 166.113C261.024 165.594 261.188 165.093 261.45 164.642C261.712 164.191 262.067 163.801 262.492 163.498C262.916 163.194 263.4 162.984 263.911 162.882L269.602 161.342C270.917 161.026 272.299 161.155 273.533 161.708C274.766 162.261 275.782 163.207 276.421 164.399Z" fill="black"/>
<path d="M277.743 165.039L279.521 170.166C280.235 172.199 280.498 174.363 280.29 176.507L279.716 182.469C279.588 183.823 279.079 185.113 278.245 186.188C277.412 187.263 276.291 188.079 275.011 188.54C273.27 189.182 271.347 189.122 269.649 188.371C267.952 187.621 266.613 186.239 265.916 184.518C264.982 181.892 264.448 179.14 264.334 176.356L263.011 169.57C262.79 168.454 262.973 167.297 263.527 166.304C264.081 165.311 264.97 164.547 266.036 164.15L271.553 162.101C272.152 161.88 272.789 161.781 273.426 161.81C274.064 161.838 274.69 161.994 275.266 162.267C275.843 162.541 276.359 162.927 276.784 163.403C277.209 163.879 277.535 164.435 277.743 165.039Z" fill="#FFB573"/>
<path d="M314.285 198.23C310.78 197.351 307.07 197.9 303.97 199.756C300.87 201.612 298.634 204.623 297.754 208.127L297.483 209.211L296.984 211.249L296.366 213.547C295.922 215.119 295.488 216.702 294.979 218.263C294.014 221.385 292.865 224.398 291.662 227.249L291.597 227.401C290.393 223.769 289.277 219.986 288.28 216.138C287.543 213.417 286.838 210.653 286.188 207.878C285.537 205.103 284.843 202.306 284.226 199.488C282.946 193.894 281.754 188.149 280.54 182.577V182.415C280.183 180.808 279.258 179.385 277.934 178.407C276.61 177.43 274.977 176.964 273.336 177.096C271.696 177.228 270.159 177.949 269.008 179.126C267.858 180.303 267.172 181.856 267.077 183.499C266.708 189.656 266.719 195.596 266.871 201.667C267.022 207.737 267.445 213.764 268.106 219.867C268.432 222.924 268.876 225.992 269.375 229.081C269.873 232.17 270.459 235.303 271.272 238.468C272.072 241.782 273.086 245.041 274.307 248.224C274.999 250.032 275.811 251.792 276.735 253.493C277.854 255.562 279.195 257.503 280.735 259.281C282.602 261.408 285.165 262.802 287.965 263.213C290.765 263.624 293.62 263.026 296.019 261.525L296.757 261.059C299.003 259.644 301.127 258.045 303.109 256.279C304.97 254.602 306.706 252.79 308.301 250.859C309.82 249.008 311.242 247.079 312.561 245.081C313.83 243.097 314.957 241.103 316.019 239.086C317.071 237.105 318.022 235.071 318.87 232.994C319.716 230.946 320.529 228.897 321.201 226.815C321.873 224.734 322.523 222.664 323.044 220.539C323.304 219.455 323.575 218.371 323.792 217.287L324.117 215.715L324.442 213.807C325.026 210.409 324.304 206.914 322.42 204.026C320.537 201.137 317.631 199.067 314.285 198.23Z" fill="#263238"/>
<path d="M255.911 410.835C257.808 408.407 271.087 402.781 271.087 402.781C275.728 412.74 279.764 422.97 283.174 433.415L265.591 437.003C265.591 437.003 260.876 419.323 255.911 410.835Z" fill="#FFB573"/>
<path d="M289.927 297.481C239.185 300.939 199.955 301.048 222.329 345.427C231.912 364.418 233.809 374.597 244.248 398.055C248.735 408.158 250.22 411.117 253.44 418.109C256.833 424.32 273.06 421.448 278.838 418.304C285.7 413.697 278.502 403.898 277.06 398.12C270.025 369.936 277.201 359.866 266.448 341.904C283.066 342.76 326.968 343.335 333.862 315.021C333.873 315.021 325.602 297.481 289.927 297.481Z" fill="#263238"/>
<path d="M257.993 421.123L260.627 425.242C260.785 425.487 261.018 425.676 261.291 425.779C261.564 425.882 261.863 425.896 262.144 425.816C264.995 425.014 273.526 422.749 278.643 422.835C278.826 422.837 279.008 422.801 279.178 422.731C279.347 422.66 279.5 422.555 279.628 422.424C279.755 422.292 279.855 422.135 279.921 421.964C279.986 421.793 280.016 421.61 280.009 421.426C279.933 419.714 279.694 417.502 279.521 416.126C279.48 415.769 279.3 415.444 279.019 415.22C278.739 414.997 278.381 414.893 278.025 414.933C271.462 415.667 264.991 417.062 258.708 419.096C258.511 419.16 258.33 419.269 258.182 419.414C258.033 419.559 257.92 419.737 257.851 419.933C257.782 420.129 257.758 420.338 257.783 420.544C257.808 420.751 257.879 420.949 257.993 421.123Z" fill="#93CBFA"/>
<path d="M288.214 443.485L284.561 430.77C284.454 430.488 284.247 430.255 283.979 430.115C283.711 429.975 283.402 429.938 283.109 430.011L265.006 432.743C263.534 432.862 262.143 433.464 261.049 434.455C256.449 439.786 250.129 443.34 243.185 444.504C240.258 445.079 241.505 450.911 248.377 450.878C259.77 450.824 259.272 449.371 268.876 447.973C276.139 446.889 279.217 446.889 285.786 446.26C286.134 446.255 286.476 446.177 286.792 446.031C287.107 445.885 287.389 445.674 287.618 445.413C287.846 445.151 288.018 444.844 288.121 444.512C288.224 444.18 288.255 443.83 288.214 443.485Z" fill="#263238"/>
<path d="M89.278 267.628L452.732 267.628V260.907L89.278 260.907V267.628Z" fill="#93CBFA"/>
<path opacity="0.5" d="M89.278 267.628L452.732 267.628V260.907L89.278 260.907V267.628Z" fill="white"/>
<path opacity="0.3" d="M354.132 267.628H452.722V260.907H354.132V267.628Z" fill="#93CBFA"/>
<path d="M443.15 447.691H446.836L432.072 276.961C432.966 275.87 433.74 274.685 434.381 273.427L437.373 267.628H339.693L344.3 273.427C345.306 274.692 346.412 275.874 347.607 276.961L380.679 447.691H384.365L367.975 284.506H413.817L443.15 447.691Z" fill="#263238"/>
<path opacity="0.6" d="M443.15 447.691H446.836L432.072 276.961C432.966 275.87 433.74 274.685 434.381 273.427L437.373 267.628H339.693L344.3 273.427C345.306 274.692 346.412 275.874 347.607 276.961L380.679 447.691H384.365L367.975 284.506H413.817L443.15 447.691Z" fill="white"/>
<path d="M182.707 232.312H96.3994V260.908H182.707V232.312Z" fill="#93CBFA"/>
<path opacity="0.8" d="M182.707 232.312H96.3994V260.908H182.707V232.312Z" fill="white"/>
<path opacity="0.3" d="M182.708 232.312H139.554V260.908H182.708V232.312Z" fill="#93CBFA"/>
<path opacity="0.3" d="M111.088 243.022L139.456 245.407L174.773 243.022H111.088Z" fill="#93CBFA"/>
<path opacity="0.3" d="M98.5244 249.765L115.023 250.903L135.554 249.765H98.5244Z" fill="#93CBFA"/>
<path d="M139.554 227.25C127.955 232.8 95.1641 228.54 95.1641 228.54C95.1641 228.54 99.5001 232.312 103.749 232.312H179.239C179.239 232.312 182.112 231.348 182.112 230.329C162.871 233.201 143.326 229.526 139.554 227.25Z" fill="#93CBFA"/>
<path opacity="0.4" d="M139.554 227.25C127.955 232.8 95.1641 228.54 95.1641 228.54C95.1641 228.54 99.5001 232.312 103.749 232.312H179.239C179.239 232.312 182.112 231.348 182.112 230.329C162.871 233.201 143.326 229.526 139.554 227.25Z" fill="white"/>
<path d="M444.754 245.613H353.069V260.898H444.754V245.613Z" fill="#93CBFA"/>
<path opacity="0.8" d="M444.754 245.613H353.069V260.898H444.754V245.613Z" fill="white"/>
<path opacity="0.3" d="M444.743 245.613H398.9V260.898H444.743V245.613Z" fill="#93CBFA"/>
<path opacity="0.3" d="M422.966 254.502L392.831 253.223L355.313 254.502H422.966Z" fill="#93CBFA"/>
<path opacity="0.3" d="M436.31 250.881L418.782 250.274L396.972 250.881H436.31Z" fill="#93CBFA"/>
<path d="M390.489 236.941C387.823 246.329 351.747 241.841 351.747 241.841C351.747 241.841 356.332 245.613 360.864 245.613H441.08C441.08 245.613 450.575 243.445 450.575 242.426C430.109 245.31 398.912 243.283 390.489 236.941Z" fill="#93CBFA"/>
<g opacity="0.4">
<path d="M390.489 236.941C387.823 246.329 351.747 241.841 351.747 241.841C351.747 241.841 356.332 245.613 360.864 245.613H441.08C441.08 245.613 450.575 243.445 450.575 242.426C430.109 245.31 398.912 243.283 390.489 236.941Z" fill="white"/>
</g>
</svg>
