<svg width="24" height="24" viewBox="0 0 24 24" fill="none" xmlns="http://www.w3.org/2000/svg">
<path d="M12 8.75C11.138 8.75 10.3114 9.09241 9.7019 9.7019C9.09241 10.3114 8.75 11.138 8.75 12C8.75 12.862 9.09241 13.6886 9.7019 14.2981C10.3114 14.9076 11.138 15.25 12 15.25C12.862 15.25 13.6886 14.9076 14.2981 14.2981C14.9076 13.6886 15.25 12.862 15.25 12C15.25 11.138 14.9076 10.3114 14.2981 9.7019C13.6886 9.09241 12.862 8.75 12 8.75Z" fill="#DCEEFE"/>
<path fill-rule="evenodd" clip-rule="evenodd" d="M6.76963 3.08177C10.2457 2.6967 13.7536 2.6967 17.2296 3.08177C19.1286 3.29377 20.6596 4.78877 20.8826 6.69477C21.2946 10.2194 21.2946 13.7801 20.8826 17.3048C20.6596 19.2108 19.1286 20.7058 17.2306 20.9188C13.7543 21.3039 10.246 21.3039 6.76963 20.9188C4.87063 20.7058 3.33963 19.2108 3.11663 17.3058C2.70461 13.7808 2.70461 10.2198 3.11663 6.69477C3.33963 4.78877 4.87063 3.29377 6.76963 3.08177ZM16.9996 5.99977C16.7344 5.99977 16.4801 6.10513 16.2925 6.29267C16.105 6.4802 15.9996 6.73456 15.9996 6.99977C15.9996 7.26499 16.105 7.51934 16.2925 7.70688C16.4801 7.89441 16.7344 7.99977 16.9996 7.99977C17.2648 7.99977 17.5192 7.89441 17.7067 7.70688C17.8943 7.51934 17.9996 7.26499 17.9996 6.99977C17.9996 6.73456 17.8943 6.4802 17.7067 6.29267C17.5192 6.10513 17.2648 5.99977 16.9996 5.99977ZM7.24963 11.9998C7.24963 10.74 7.75007 9.53181 8.64087 8.64102C9.53167 7.75022 10.7399 7.24977 11.9996 7.24977C13.2594 7.24977 14.4676 7.75022 15.3584 8.64102C16.2492 9.53181 16.7496 10.74 16.7496 11.9998C16.7496 13.2596 16.2492 14.4677 15.3584 15.3585C14.4676 16.2493 13.2594 16.7498 11.9996 16.7498C10.7399 16.7498 9.53167 16.2493 8.64087 15.3585C7.75007 14.4677 7.24963 13.2596 7.24963 11.9998Z" fill="#DCEEFE"/>
</svg>
