<svg width="16" height="17" viewBox="0 0 16 17" fill="none" xmlns="http://www.w3.org/2000/svg">
<path d="M2.66634 13.8332C2.29967 13.8332 1.9859 13.7027 1.72501 13.4418C1.46412 13.1809 1.33345 12.8669 1.33301 12.4998V4.49984C1.33301 4.13317 1.46367 3.81939 1.72501 3.5585C1.98634 3.29761 2.30012 3.16695 2.66634 3.1665H13.333C13.6997 3.1665 14.0137 3.29717 14.275 3.5585C14.5363 3.81984 14.6668 4.13362 14.6663 4.49984V12.4998C14.6663 12.8665 14.5359 13.1805 14.275 13.4418C14.0141 13.7032 13.7001 13.8336 13.333 13.8332H2.66634ZM7.99967 9.1665L13.333 5.83317V4.49984L7.99967 7.83317L2.66634 4.49984V5.83317L7.99967 9.1665Z" fill="#0A2C44"/>
</svg>
